<svg xmlns="http://www.w3.org/2000/svg" xmlns:xlink="http://www.w3.org/1999/xlink" width="110" height="110" x="0" y="0" enable-background="new 0 0 110 110" version="1.0" viewBox="0 0 110 110" xml:space="preserve"><g id="Artboard" display="none"><rect width="1087" height="207" x="-180.5" y="-44.5" fill="gray" stroke="#000" stroke-miterlimit="10" display="inline"/></g><g id="R-Multicolor" display="none"><circle cx="55" cy="55" r="55" fill="#E04F5F" display="inline"/><g display="inline"><g><path fill="#E2E4E5" d="M87,50c0,17.673-24,37-32,37S23,67.673,23,50s14.327-27,32-27S87,32.327,87,50z"/></g><g><path fill="#3E3E3F" d="M59,67c0,0-4-20,20-20C79,47,81,67,59,67z"/></g><g><path fill="#FFF" d="M23,50c0,17.67,24,37,32,37V23C37.32,23,23,32.33,23,50z M51,67c-22,0-20-20-20-20 C55,47,51,67,51,67z"/></g><g><path fill="#3E3E3F" d="M51,67c-22,0-20-20-20-20C55,47,51,67,51,67z"/></g></g></g><g id="Multicolor"><g><g><path fill="#E2E4E5" d="M87,50c0,17.673-24,37-32,37S23,67.673,23,50s14.327-27,32-27S87,32.327,87,50z"/></g><g><path fill="#3E3E3F" d="M59,67c0,0-4-20,20-20C79,47,81,67,59,67z"/></g><g><path fill="#FFF" d="M23,50c0,17.67,24,37,32,37V23C37.32,23,23,32.33,23,50z M51,67c-22,0-20-20-20-20 C55,47,51,67,51,67z"/></g><g><path fill="#3E3E3F" d="M51,67c-22,0-20-20-20-20C55,47,51,67,51,67z"/></g></g></g><g id="Blue" display="none"><g display="inline"><g><path fill="#E1F5FA" d="M87,50c0,17.673-24,37-32,37S23,67.673,23,50s14.327-27,32-27S87,32.327,87,50z"/></g><g><path fill="#0C333D" d="M59,67c0,0-4-20,20-20C79,47,81,67,59,67z"/></g><g><path fill="#FFF" d="M23,50c0,17.67,24,37,32,37V23C37.32,23,23,32.33,23,50z M51,67c-22,0-20-20-20-20 C55,47,51,67,51,67z"/></g><g><path fill="#0C333D" d="M51,67c-22,0-20-20-20-20C55,47,51,67,51,67z"/></g></g></g><g id="R-Blue" display="none"><circle cx="55" cy="55" r="55" fill="#81D2EB" display="inline"/><g display="inline"><g><path fill="#E1F5FA" d="M87,50c0,17.673-24,37-32,37S23,67.673,23,50s14.327-27,32-27S87,32.327,87,50z"/></g><g><path fill="#0C333D" d="M59,67c0,0-4-20,20-20C79,47,81,67,59,67z"/></g><g><path fill="#FFF" d="M23,50c0,17.67,24,37,32,37V23C37.32,23,23,32.33,23,50z M51,67c-22,0-20-20-20-20 C55,47,51,67,51,67z"/></g><g><path fill="#0C333D" d="M51,67c-22,0-20-20-20-20C55,47,51,67,51,67z"/></g></g></g><g id="Green" display="none"><g display="inline"><g><path fill="#D7FCF9" d="M87,50c0,17.673-24,37-32,37S23,67.673,23,50s14.327-27,32-27S87,32.327,87,50z"/></g><g><path fill="#0A3631" d="M59,67c0,0-4-20,20-20C79,47,81,67,59,67z"/></g><g><path fill="#FFF" d="M23,50c0,17.67,24,37,32,37V23C37.32,23,23,32.33,23,50z M51,67c-22,0-20-20-20-20 C55,47,51,67,51,67z"/></g><g><path fill="#0A3631" d="M51,67c-22,0-20-20-20-20C55,47,51,67,51,67z"/></g></g></g><g id="R-Green" display="none"><circle cx="55" cy="55" r="55" fill="#77E0C4" display="inline"/><g display="inline"><g><path fill="#D7FCF9" d="M87,50c0,17.673-24,37-32,37S23,67.673,23,50s14.327-27,32-27S87,32.327,87,50z"/></g><g><path fill="#0A3631" d="M59,67c0,0-4-20,20-20C79,47,81,67,59,67z"/></g><g><path fill="#FFF" d="M23,50c0,17.67,24,37,32,37V23C37.32,23,23,32.33,23,50z M51,67c-22,0-20-20-20-20 C55,47,51,67,51,67z"/></g><g><path fill="#0A3631" d="M51,67c-22,0-20-20-20-20C55,47,51,67,51,67z"/></g></g></g><g id="Red" display="none"><g display="inline"><g><path fill="#FFEFED" d="M87,50c0,17.673-24,37-32,37S23,67.673,23,50s14.327-27,32-27S87,32.327,87,50z"/></g><g><path fill="#4A1410" d="M59,67c0,0-4-20,20-20C79,47,81,67,59,67z"/></g><g><path fill="#FFF" d="M23,50c0,17.67,24,37,32,37V23C37.32,23,23,32.33,23,50z M51,67c-22,0-20-20-20-20 C55,47,51,67,51,67z"/></g><g><path fill="#4A1410" d="M51,67c-22,0-20-20-20-20C55,47,51,67,51,67z"/></g></g></g><g id="R-Red" display="none"><circle cx="55" cy="55" r="55" fill="#FABBAF" display="inline"/><g display="inline"><g><path fill="#FFEFED" d="M87,50c0,17.673-24,37-32,37S23,67.673,23,50s14.327-27,32-27S87,32.327,87,50z"/></g><g><path fill="#4A1410" d="M59,67c0,0-4-20,20-20C79,47,81,67,59,67z"/></g><g><path fill="#FFF" d="M23,50c0,17.67,24,37,32,37V23C37.32,23,23,32.33,23,50z M51,67c-22,0-20-20-20-20 C55,47,51,67,51,67z"/></g><g><path fill="#4A1410" d="M51,67c-22,0-20-20-20-20C55,47,51,67,51,67z"/></g></g></g><g id="Yellow" display="none"><g display="inline"><g><path fill="#FFF5D9" d="M87,50c0,17.673-24,37-32,37S23,67.673,23,50s14.327-27,32-27S87,32.327,87,50z"/></g><g><path fill="#3D320C" d="M59,67c0,0-4-20,20-20C79,47,81,67,59,67z"/></g><g><path fill="#FFF" d="M23,50c0,17.67,24,37,32,37V23C37.32,23,23,32.33,23,50z M51,67c-22,0-20-20-20-20 C55,47,51,67,51,67z"/></g><g><path fill="#3D320C" d="M51,67c-22,0-20-20-20-20C55,47,51,67,51,67z"/></g></g></g><g id="R-Yellow" display="none"><circle cx="55" cy="55" r="55" fill="#FFD75E" display="inline"/><g display="inline"><g><path fill="#FFF5D9" d="M87,50c0,17.673-24,37-32,37S23,67.673,23,50s14.327-27,32-27S87,32.327,87,50z"/></g><g><path fill="#3D320C" d="M59,67c0,0-4-20,20-20C79,47,81,67,59,67z"/></g><g><path fill="#FFF" d="M23,50c0,17.67,24,37,32,37V23C37.32,23,23,32.33,23,50z M51,67c-22,0-20-20-20-20 C55,47,51,67,51,67z"/></g><g><path fill="#3D320C" d="M51,67c-22,0-20-20-20-20C55,47,51,67,51,67z"/></g></g></g></svg>