<svg xmlns="http://www.w3.org/2000/svg" xmlns:xlink="http://www.w3.org/1999/xlink" width="110" height="110" x="0" y="0" enable-background="new 0 0 110 110" version="1.0" viewBox="0 0 110 110" xml:space="preserve"><g id="Artboard" display="none"><rect width="1347" height="333" x="-442" y="-45" fill="gray" display="inline"/></g><g id="R-Multicolor" display="none"><circle cx="55" cy="55" r="55" fill="#32BEA6" display="inline"/><g display="inline"><rect width="50" height="60" x="37" y="27" fill="#FFF"/><g><path fill="#FBE158" d="M65.724,73c0,4.418,3.582,8,8,8c4.418,0,8.416-3.601,8-8c-0.423-4.476-3.893-8.042-8-8 C69.306,65.046,65.724,68.582,65.724,73z"/><path fill="#059BBF" d="M65.724,73c0,4.42,3.58,8,8,8c3.36,0,6.233-2.067,7.42-5l-14.78-6.153 C65.951,70.813,65.724,71.88,65.724,73z"/><path fill="#4AC3AF" d="M65.712,73.003c0,2.82,1.46,5.3,3.667,6.727l4.327-6.82l-7.353-3.06 C65.939,70.817,65.712,71.883,65.712,73.003z"/><path fill="#FA5655" d="M66.364,69.847l7.36,3.067V65C70.424,65,67.591,67,66.364,69.847z"/></g><rect width="4" height="18" x="77" y="40" fill="#4AC3AF"/><rect width="4" height="10" x="69.712" y="48" fill="#4AC3AF"/><g><circle cx="60.333" cy="68.167" r="1.5" fill="#CFD3D4"/><rect width="10" height="1" x="46.712" y="67.667" fill="#CFD3D4"/></g><g><circle cx="60.333" cy="73.333" r="1.5" fill="#CFD3D4"/><rect width="10" height="1" x="46.712" y="72.833" fill="#CFD3D4"/></g><g><circle cx="60.333" cy="78.5" r="1.5" fill="#CFD3D4"/><rect width="10" height="1" x="46.712" y="78" fill="#CFD3D4"/></g><path fill="#84462D" d="M39.742,58.021L28.944,68.819c-1.344,1.344-3.522,1.344-4.867,0s-1.344-3.522,0-4.867L34.9,53.131 C36.098,55.126,37.758,56.805,39.742,58.021z"/><path fill="#9C6144" d="M36.992,55.826L24.041,68.777c-1.308-1.344-1.296-3.492,0.03-4.824L34.9,53.125 C35.489,54.104,36.195,55.01,36.992,55.826z"/><path fill="#FFF" d="M47.4,60.1c-7.995,0-14.5-6.505-14.5-14.5s6.505-14.5,14.5-14.5s14.5,6.505,14.5,14.5 S55.396,60.1,47.4,60.1z"/><path fill="#CFD3D4" d="M47.4,31.088c8.012,0,14.512,6.5,14.512,14.512s-6.5,14.512-14.512,14.512 c-8.041,0-14.512-6.561-14.512-14.512C32.888,37.588,39.388,31.088,47.4,31.088 M47.4,29.1c-9.098,0-16.5,7.402-16.5,16.5 s7.402,16.5,16.5,16.5s16.5-7.402,16.5-16.5S56.499,29.1,47.4,29.1L47.4,29.1z"/><circle cx="47.4" cy="45.6" r="11.558" fill="#6FDAF1"/><path fill="#9CE5F4" d="M47.4,34.042c-6.383,0-11.558,5.175-11.558,11.558c0,3.158,1.27,6.018,3.323,8.104l16.339-16.339 C53.418,35.311,50.559,34.042,47.4,34.042z"/></g></g><g id="Multicolor_1_"><g><rect width="50" height="60" x="37" y="27" fill="#FFF"/><g><path fill="#FBE158" d="M65.724,73c0,4.418,3.582,8,8,8c4.418,0,8.416-3.601,8-8c-0.423-4.476-3.893-8.042-8-8 C69.306,65.046,65.724,68.582,65.724,73z"/><path fill="#059BBF" d="M65.724,73c0,4.42,3.58,8,8,8c3.36,0,6.233-2.067,7.42-5l-14.78-6.153 C65.951,70.813,65.724,71.88,65.724,73z"/><path fill="#4AC3AF" d="M65.712,73.003c0,2.82,1.46,5.3,3.667,6.727l4.327-6.82l-7.353-3.06 C65.939,70.817,65.712,71.883,65.712,73.003z"/><path fill="#FA5655" d="M66.364,69.847l7.36,3.067V65C70.424,65,67.591,67,66.364,69.847z"/></g><rect width="4" height="18" x="77" y="40" fill="#4AC3AF"/><rect width="4" height="10" x="69.712" y="48" fill="#4AC3AF"/><g><circle cx="60.333" cy="68.167" r="1.5" fill="#CFD3D4"/><rect width="10" height="1" x="46.712" y="67.667" fill="#CFD3D4"/></g><g><circle cx="60.333" cy="73.333" r="1.5" fill="#CFD3D4"/><rect width="10" height="1" x="46.712" y="72.833" fill="#CFD3D4"/></g><g><circle cx="60.333" cy="78.5" r="1.5" fill="#CFD3D4"/><rect width="10" height="1" x="46.712" y="78" fill="#CFD3D4"/></g><path fill="#84462D" d="M39.742,58.021L28.944,68.819c-1.344,1.344-3.522,1.344-4.867,0s-1.344-3.522,0-4.867L34.9,53.131 C36.098,55.126,37.758,56.805,39.742,58.021z"/><path fill="#9C6144" d="M36.992,55.826L24.041,68.777c-1.308-1.344-1.296-3.492,0.03-4.824L34.9,53.125 C35.489,54.104,36.195,55.01,36.992,55.826z"/><path fill="#FFF" d="M47.4,60.1c-7.995,0-14.5-6.505-14.5-14.5s6.505-14.5,14.5-14.5s14.5,6.505,14.5,14.5 S55.396,60.1,47.4,60.1z"/><path fill="#CFD3D4" d="M47.4,31.088c8.012,0,14.512,6.5,14.512,14.512s-6.5,14.512-14.512,14.512 c-8.041,0-14.512-6.561-14.512-14.512C32.888,37.588,39.388,31.088,47.4,31.088 M47.4,29.1c-9.098,0-16.5,7.402-16.5,16.5 s7.402,16.5,16.5,16.5s16.5-7.402,16.5-16.5S56.499,29.1,47.4,29.1L47.4,29.1z"/><circle cx="47.4" cy="45.6" r="11.558" fill="#6FDAF1"/><path fill="#9CE5F4" d="M47.4,34.042c-6.383,0-11.558,5.175-11.558,11.558c0,3.158,1.27,6.018,3.323,8.104l16.339-16.339 C53.418,35.311,50.559,34.042,47.4,34.042z"/></g></g><g id="Blue" display="none"><g display="inline"><g><rect width="50" height="60" x="37" y="27" fill="#FFF"/></g><g><path fill="#00B7E5" d="M65.725,73c0,4.419,3.581,8,8,8c4.418,0,8.415-3.601,8-8c-0.423-4.476-3.893-8.042-8-8 C69.306,65.046,65.725,68.582,65.725,73z"/></g><g><path fill="#0081A1" d="M65.725,73c0,4.42,3.58,8,8,8c3.359,0,6.233-2.066,7.42-5l-14.78-6.153 C65.951,70.814,65.725,71.88,65.725,73z"/></g><g><path fill="#BBE7F2" d="M65.712,73.003c0,2.82,1.46,5.3,3.666,6.727l4.327-6.82l-7.353-3.06 C65.938,70.816,65.712,71.884,65.712,73.003z"/></g><g><path fill="#33899E" d="M66.364,69.847l7.36,3.067V65C70.424,65,67.591,67,66.364,69.847z"/></g><g><rect width="4" height="18" x="77" y="40" fill="#009FC7"/></g><g><rect width="4" height="10" x="69.712" y="48" fill="#00B7E5"/></g><g><circle cx="60.333" cy="68.167" r="1.5" fill="#00B7E5"/></g><g><rect width="10" height="1" x="46.712" y="67.667" fill="#BBE7F2"/></g><g><circle cx="60.333" cy="73.333" r="1.5" fill="#00B7E5"/></g><g><rect width="10" height="1" x="46.712" y="72.833" fill="#BBE7F2"/></g><g><circle cx="60.333" cy="78.5" r="1.5" fill="#00B7E5"/></g><g><rect width="10" height="1" x="46.712" y="78" fill="#BBE7F2"/></g><g><path fill="#0C333D" d="M39.742,58.021L28.944,68.819c-1.345,1.344-3.522,1.344-4.867,0c-1.344-1.345-1.344-3.522,0-4.867 l10.822-10.822C36.098,55.126,37.758,56.805,39.742,58.021z"/></g><g><path fill="#0F6175" d="M36.992,55.826L24.041,68.776c-1.308-1.344-1.296-3.491,0.03-4.824l10.828-10.828 C35.489,54.104,36.195,55.01,36.992,55.826z"/></g><g><path fill="#FFF" d="M47.4,60.1c-7.995,0-14.5-6.505-14.5-14.5s6.505-14.5,14.5-14.5s14.5,6.505,14.5,14.5 S55.395,60.1,47.4,60.1z"/></g><g><path fill="#53BAD4" d="M47.5,30.988c8.012,0,14.512,6.5,14.512,14.512s-6.5,14.512-14.512,14.512 c-8.041,0-14.512-6.561-14.512-14.512C32.988,37.488,39.488,30.988,47.5,30.988 M47.5,29C38.402,29,31,36.402,31,45.5 C31,54.599,38.402,62,47.5,62S64,54.599,64,45.5C64,36.402,56.598,29,47.5,29L47.5,29z"/></g><g><circle cx="47.4" cy="45.6" r="11.558" fill="#009FC7"/></g><g><path fill="#00B7E5" d="M47.4,34.042c-6.383,0-11.558,5.175-11.558,11.558c0,3.158,1.27,6.018,3.323,8.104l16.339-16.339 C53.418,35.312,50.559,34.042,47.4,34.042z"/></g></g></g><g id="R-Blue" display="none"><g display="inline"><circle cx="55" cy="55" r="55" fill="#81D2EB"/></g><g display="inline"><g><rect width="50" height="60" x="37" y="27" fill="#FFF"/></g><g><path fill="#00B7E5" d="M65.725,73c0,4.419,3.581,8,8,8c4.418,0,8.415-3.601,8-8c-0.423-4.476-3.893-8.042-8-8 C69.306,65.046,65.725,68.582,65.725,73z"/></g><g><path fill="#0081A1" d="M65.725,73c0,4.42,3.58,8,8,8c3.359,0,6.233-2.066,7.42-5l-14.78-6.153 C65.951,70.814,65.725,71.88,65.725,73z"/></g><g><path fill="#BBE7F2" d="M65.712,73.003c0,2.82,1.46,5.3,3.666,6.727l4.327-6.82l-7.353-3.06 C65.938,70.816,65.712,71.884,65.712,73.003z"/></g><g><path fill="#33899E" d="M66.364,69.847l7.36,3.067V65C70.424,65,67.591,67,66.364,69.847z"/></g><g><rect width="4" height="18" x="77" y="40" fill="#009FC7"/></g><g><rect width="4" height="10" x="69.712" y="48" fill="#00B7E5"/></g><g><circle cx="60.333" cy="68.167" r="1.5" fill="#00B7E5"/></g><g><rect width="10" height="1" x="46.712" y="67.667" fill="#BBE7F2"/></g><g><circle cx="60.333" cy="73.333" r="1.5" fill="#00B7E5"/></g><g><rect width="10" height="1" x="46.712" y="72.833" fill="#BBE7F2"/></g><g><circle cx="60.333" cy="78.5" r="1.5" fill="#00B7E5"/></g><g><rect width="10" height="1" x="46.712" y="78" fill="#BBE7F2"/></g><g><path fill="#0C333D" d="M39.742,58.021L28.944,68.819c-1.345,1.344-3.522,1.344-4.867,0c-1.344-1.345-1.344-3.522,0-4.867 l10.822-10.822C36.098,55.126,37.758,56.805,39.742,58.021z"/></g><g><path fill="#0F6175" d="M36.992,55.826L24.041,68.776c-1.308-1.344-1.296-3.491,0.03-4.824l10.828-10.828 C35.489,54.104,36.195,55.01,36.992,55.826z"/></g><g><path fill="#FFF" d="M47.4,60.1c-7.995,0-14.5-6.505-14.5-14.5s6.505-14.5,14.5-14.5s14.5,6.505,14.5,14.5 S55.395,60.1,47.4,60.1z"/></g><g><path fill="#53BAD4" d="M47.5,30.988c8.012,0,14.512,6.5,14.512,14.512s-6.5,14.512-14.512,14.512 c-8.041,0-14.512-6.561-14.512-14.512C32.988,37.488,39.488,30.988,47.5,30.988 M47.5,29C38.402,29,31,36.402,31,45.5 C31,54.599,38.402,62,47.5,62S64,54.599,64,45.5C64,36.402,56.598,29,47.5,29L47.5,29z"/></g><g><circle cx="47.4" cy="45.6" r="11.558" fill="#009FC7"/></g><g><path fill="#00B7E5" d="M47.4,34.042c-6.383,0-11.558,5.175-11.558,11.558c0,3.158,1.27,6.018,3.323,8.104l16.339-16.339 C53.418,35.312,50.559,34.042,47.4,34.042z"/></g></g></g><g id="Green" display="none"><g display="inline"><g><rect width="50" height="60" x="37" y="27" fill="#FFF"/></g><g><path fill="#00D6C1" d="M65.725,73c0,4.419,3.581,8,8,8c4.418,0,8.415-3.601,8-8c-0.423-4.476-3.894-8.042-8-8 C69.306,65.046,65.725,68.582,65.725,73z"/></g><g><path fill="#009687" d="M65.725,73c0,4.42,3.58,8,8,8c3.359,0,6.233-2.066,7.42-5l-14.78-6.153 C65.951,70.814,65.725,71.88,65.725,73z"/></g><g><path fill="#AAF0E9" d="M65.712,73.003c0,2.82,1.46,5.3,3.667,6.727l4.327-6.82l-7.353-3.06 C65.938,70.816,65.712,71.884,65.712,73.003z"/></g><g><path fill="#3E948B" d="M66.364,69.847l7.36,3.067V65C70.424,65,67.591,67,66.364,69.847z"/></g><g><rect width="4" height="18" x="77" y="40" fill="#00B8A5"/></g><g><rect width="4" height="10" x="69.712" y="48" fill="#00D6C1"/></g><g><circle cx="60.333" cy="68.167" r="1.5" fill="#00D6C1"/></g><g><rect width="10" height="1" x="46.712" y="67.667" fill="#AAF0E9"/></g><g><circle cx="60.333" cy="73.333" r="1.5" fill="#00D6C1"/></g><g><rect width="10" height="1" x="46.712" y="72.833" fill="#AAF0E9"/></g><g><circle cx="60.333" cy="78.5" r="1.5" fill="#00D6C1"/></g><g><rect width="10" height="1" x="46.712" y="78" fill="#AAF0E9"/></g><g><path fill="#0A3631" d="M39.742,58.021L28.944,68.819c-1.345,1.344-3.522,1.344-4.867,0c-1.344-1.345-1.344-3.522,0-4.867 l10.822-10.822C36.098,55.126,37.758,56.805,39.742,58.021z"/></g><g><path fill="#14635B" d="M36.992,55.826L24.041,68.776c-1.308-1.344-1.296-3.491,0.03-4.824l10.828-10.828 C35.489,54.104,36.195,55.01,36.992,55.826z"/></g><g><path fill="#FFF" d="M47.4,60.1c-7.995,0-14.5-6.505-14.5-14.5s6.505-14.5,14.5-14.5s14.5,6.505,14.5,14.5 S55.396,60.1,47.4,60.1z"/></g><g><path fill="#5DCFC3" d="M47.5,30.988c8.012,0,14.512,6.5,14.512,14.512s-6.5,14.512-14.512,14.512 c-8.041,0-14.512-6.561-14.512-14.512C32.988,37.488,39.488,30.988,47.5,30.988 M47.5,29C38.402,29,31,36.402,31,45.5 C31,54.599,38.402,62,47.5,62S64,54.599,64,45.5C64,36.402,56.598,29,47.5,29L47.5,29z"/></g><g><circle cx="47.4" cy="45.6" r="11.558" fill="#00B8A5"/></g><g><path fill="#00D6C1" d="M47.4,34.042c-6.383,0-11.558,5.175-11.558,11.558c0,3.158,1.27,6.018,3.323,8.104l16.339-16.339 C53.418,35.312,50.559,34.042,47.4,34.042z"/></g></g></g><g id="R-Green" display="none"><g display="inline"><circle cx="55" cy="55" r="55" fill="#87E0C8"/></g><g display="inline"><g><rect width="50" height="60" x="37" y="27" fill="#FFF"/></g><g><path fill="#00D6C1" d="M65.725,73c0,4.419,3.581,8,8,8c4.418,0,8.415-3.601,8-8c-0.423-4.476-3.894-8.042-8-8 C69.306,65.046,65.725,68.582,65.725,73z"/></g><g><path fill="#009687" d="M65.725,73c0,4.42,3.58,8,8,8c3.359,0,6.233-2.066,7.42-5l-14.78-6.153 C65.951,70.814,65.725,71.88,65.725,73z"/></g><g><path fill="#AAF0E9" d="M65.712,73.003c0,2.82,1.46,5.3,3.667,6.727l4.327-6.82l-7.353-3.06 C65.938,70.816,65.712,71.884,65.712,73.003z"/></g><g><path fill="#3E948B" d="M66.364,69.847l7.36,3.067V65C70.424,65,67.591,67,66.364,69.847z"/></g><g><rect width="4" height="18" x="77" y="40" fill="#00B8A5"/></g><g><rect width="4" height="10" x="69.712" y="48" fill="#00D6C1"/></g><g><circle cx="60.333" cy="68.167" r="1.5" fill="#00D6C1"/></g><g><rect width="10" height="1" x="46.712" y="67.667" fill="#AAF0E9"/></g><g><circle cx="60.333" cy="73.333" r="1.5" fill="#00D6C1"/></g><g><rect width="10" height="1" x="46.712" y="72.833" fill="#AAF0E9"/></g><g><circle cx="60.333" cy="78.5" r="1.5" fill="#00D6C1"/></g><g><rect width="10" height="1" x="46.712" y="78" fill="#AAF0E9"/></g><g><path fill="#0A3631" d="M39.742,58.021L28.944,68.819c-1.345,1.344-3.522,1.344-4.867,0c-1.344-1.345-1.344-3.522,0-4.867 l10.822-10.822C36.098,55.126,37.758,56.805,39.742,58.021z"/></g><g><path fill="#14635B" d="M36.992,55.826L24.041,68.776c-1.308-1.344-1.296-3.491,0.03-4.824l10.828-10.828 C35.489,54.104,36.195,55.01,36.992,55.826z"/></g><g><path fill="#FFF" d="M47.4,60.1c-7.995,0-14.5-6.505-14.5-14.5s6.505-14.5,14.5-14.5s14.5,6.505,14.5,14.5 S55.396,60.1,47.4,60.1z"/></g><g><path fill="#5DCFC3" d="M47.5,30.988c8.012,0,14.512,6.5,14.512,14.512s-6.5,14.512-14.512,14.512 c-8.041,0-14.512-6.561-14.512-14.512C32.988,37.488,39.488,30.988,47.5,30.988 M47.5,29C38.402,29,31,36.402,31,45.5 C31,54.599,38.402,62,47.5,62S64,54.599,64,45.5C64,36.402,56.598,29,47.5,29L47.5,29z"/></g><g><circle cx="47.4" cy="45.6" r="11.558" fill="#00B8A5"/></g><g><path fill="#00D6C1" d="M47.4,34.042c-6.383,0-11.558,5.175-11.558,11.558c0,3.158,1.27,6.018,3.323,8.104l16.339-16.339 C53.418,35.312,50.559,34.042,47.4,34.042z"/></g></g></g><g id="Red" display="none"><g display="inline"><g><rect width="50" height="60" x="37" y="27" fill="#FFF"/></g><g><path fill="#FF6C5E" d="M65.725,73c0,4.419,3.581,8,8,8c4.418,0,8.415-3.601,8-8c-0.423-4.476-3.894-8.042-8-8 C69.306,65.046,65.725,68.582,65.725,73z"/></g><g><path fill="#C23023" d="M65.725,73c0,4.42,3.58,8,8,8c3.359,0,6.233-2.066,7.42-5l-14.78-6.153 C65.951,70.814,65.725,71.88,65.725,73z"/></g><g><path fill="#FFD7D4" d="M65.712,73.003c0,2.82,1.46,5.3,3.667,6.727l4.327-6.82l-7.353-3.06 C65.938,70.816,65.712,71.884,65.712,73.003z"/></g><g><path fill="#B84E44" d="M66.364,69.847l7.36,3.067V65C70.424,65,67.591,67,66.364,69.847z"/></g><g><rect width="4" height="18" x="77" y="40" fill="#E54B44"/></g><g><rect width="4" height="10" x="69.712" y="48" fill="#FF6C5E"/></g><g><circle cx="60.333" cy="68.167" r="1.5" fill="#FF6C5E"/></g><g><rect width="10" height="1" x="46.712" y="67.667" fill="#FFD7D4"/></g><g><circle cx="60.333" cy="73.333" r="1.5" fill="#FF6C5E"/></g><g><rect width="10" height="1" x="46.712" y="72.833" fill="#FFD7D4"/></g><g><circle cx="60.333" cy="78.5" r="1.5" fill="#FF6C5E"/></g><g><rect width="10" height="1" x="46.712" y="78" fill="#FFD7D4"/></g><g><path fill="#4A1410" d="M39.742,58.021L28.944,68.819c-1.345,1.344-3.522,1.344-4.867,0c-1.344-1.345-1.344-3.522,0-4.867 l10.822-10.822C36.098,55.126,37.758,56.805,39.742,58.021z"/></g><g><path fill="#7D261E" d="M36.992,55.826L24.041,68.776c-1.308-1.344-1.296-3.491,0.03-4.824l10.828-10.828 C35.489,54.104,36.195,55.01,36.992,55.826z"/></g><g><path fill="#FFF" d="M47.4,60.1c-7.995,0-14.5-6.505-14.5-14.5s6.505-14.5,14.5-14.5s14.5,6.505,14.5,14.5 S55.396,60.1,47.4,60.1z"/></g><g><path fill="#E8A099" d="M47.5,30.988c8.012,0,14.512,6.5,14.512,14.512s-6.5,14.512-14.512,14.512 c-8.041,0-14.512-6.561-14.512-14.512C32.988,37.488,39.488,30.988,47.5,30.988 M47.5,29C38.402,29,31,36.402,31,45.5 C31,54.599,38.402,62,47.5,62S64,54.599,64,45.5C64,36.402,56.598,29,47.5,29L47.5,29z"/></g><g><circle cx="47.4" cy="45.6" r="11.558" fill="#E54B44"/></g><g><path fill="#FF6C5E" d="M47.4,34.042c-6.383,0-11.558,5.175-11.558,11.558c0,3.158,1.27,6.018,3.323,8.104l16.339-16.339 C53.418,35.312,50.559,34.042,47.4,34.042z"/></g></g></g><g id="R-Red" display="none"><g display="inline"><circle cx="55" cy="55" r="55" fill="#FABBAF"/></g><g display="inline"><g><rect width="50" height="60" x="37" y="27" fill="#FFF"/></g><g><path fill="#FF6C5E" d="M65.725,73c0,4.419,3.581,8,8,8c4.418,0,8.415-3.601,8-8c-0.423-4.476-3.894-8.042-8-8 C69.306,65.046,65.725,68.582,65.725,73z"/></g><g><path fill="#C23023" d="M65.725,73c0,4.42,3.58,8,8,8c3.359,0,6.233-2.066,7.42-5l-14.78-6.153 C65.951,70.814,65.725,71.88,65.725,73z"/></g><g><path fill="#FFD7D4" d="M65.712,73.003c0,2.82,1.46,5.3,3.667,6.727l4.327-6.82l-7.353-3.06 C65.938,70.816,65.712,71.884,65.712,73.003z"/></g><g><path fill="#B84E44" d="M66.364,69.847l7.36,3.067V65C70.424,65,67.591,67,66.364,69.847z"/></g><g><rect width="4" height="18" x="77" y="40" fill="#E54B44"/></g><g><rect width="4" height="10" x="69.712" y="48" fill="#FF6C5E"/></g><g><circle cx="60.333" cy="68.167" r="1.5" fill="#FF6C5E"/></g><g><rect width="10" height="1" x="46.712" y="67.667" fill="#FFD7D4"/></g><g><circle cx="60.333" cy="73.333" r="1.5" fill="#FF6C5E"/></g><g><rect width="10" height="1" x="46.712" y="72.833" fill="#FFD7D4"/></g><g><circle cx="60.333" cy="78.5" r="1.5" fill="#FF6C5E"/></g><g><rect width="10" height="1" x="46.712" y="78" fill="#FFD7D4"/></g><g><path fill="#4A1410" d="M39.742,58.021L28.944,68.819c-1.345,1.344-3.522,1.344-4.867,0c-1.344-1.345-1.344-3.522,0-4.867 l10.822-10.822C36.098,55.126,37.758,56.805,39.742,58.021z"/></g><g><path fill="#7D261E" d="M36.992,55.826L24.041,68.776c-1.308-1.344-1.296-3.491,0.03-4.824l10.828-10.828 C35.489,54.104,36.195,55.01,36.992,55.826z"/></g><g><path fill="#FFF" d="M47.4,60.1c-7.995,0-14.5-6.505-14.5-14.5s6.505-14.5,14.5-14.5s14.5,6.505,14.5,14.5 S55.396,60.1,47.4,60.1z"/></g><g><path fill="#E8A099" d="M47.5,30.988c8.012,0,14.512,6.5,14.512,14.512s-6.5,14.512-14.512,14.512 c-8.041,0-14.512-6.561-14.512-14.512C32.988,37.488,39.488,30.988,47.5,30.988 M47.5,29C38.402,29,31,36.402,31,45.5 C31,54.599,38.402,62,47.5,62S64,54.599,64,45.5C64,36.402,56.598,29,47.5,29L47.5,29z"/></g><g><circle cx="47.4" cy="45.6" r="11.558" fill="#E54B44"/></g><g><path fill="#FF6C5E" d="M47.4,34.042c-6.383,0-11.558,5.175-11.558,11.558c0,3.158,1.27,6.018,3.323,8.104l16.339-16.339 C53.418,35.312,50.559,34.042,47.4,34.042z"/></g></g></g><g id="Yellow" display="none"><g display="inline"><g><rect width="50" height="60" x="37" y="27" fill="#FFF"/></g><g><path fill="#FA0" d="M65.725,73c0,4.419,3.581,8,8,8c4.418,0,8.415-3.601,8-8c-0.423-4.476-3.894-8.042-8-8 C69.306,65.046,65.725,68.582,65.725,73z"/></g><g><path fill="#E07000" d="M65.725,73c0,4.42,3.58,8,8,8c3.359,0,6.233-2.066,7.42-5l-14.78-6.153 C65.951,70.814,65.725,71.88,65.725,73z"/></g><g><path fill="#FFE9A1" d="M65.712,73.003c0,2.82,1.46,5.3,3.667,6.727l4.327-6.82l-7.353-3.06 C65.938,70.816,65.712,71.884,65.712,73.003z"/></g><g><path fill="#947615" d="M66.364,69.847l7.36,3.067V65C70.424,65,67.591,67,66.364,69.847z"/></g><g><rect width="4" height="18" x="77" y="40" fill="#FA9200"/></g><g><rect width="4" height="10" x="69.712" y="48" fill="#FA0"/></g><g><circle cx="60.333" cy="68.167" r="1.5" fill="#FA0"/></g><g><rect width="10" height="1" x="46.712" y="67.667" fill="#FFE9A1"/></g><g><circle cx="60.333" cy="73.333" r="1.5" fill="#FA0"/></g><g><rect width="10" height="1" x="46.712" y="72.833" fill="#FFE9A1"/></g><g><circle cx="60.333" cy="78.5" r="1.5" fill="#FA0"/></g><g><rect width="10" height="1" x="46.712" y="78" fill="#FFE9A1"/></g><g><path fill="#3D320C" d="M39.742,58.021L28.944,68.819c-1.345,1.344-3.522,1.344-4.867,0c-1.344-1.345-1.344-3.522,0-4.867 l10.822-10.822C36.098,55.126,37.758,56.805,39.742,58.021z"/></g><g><path fill="#66510D" d="M36.992,55.826L24.041,68.776c-1.308-1.344-1.296-3.491,0.03-4.824l10.828-10.828 C35.489,54.104,36.195,55.01,36.992,55.826z"/></g><g><path fill="#FFF" d="M47.4,60.1c-7.995,0-14.5-6.505-14.5-14.5s6.505-14.5,14.5-14.5s14.5,6.505,14.5,14.5 S55.396,60.1,47.4,60.1z"/></g><g><path fill="#F5C43D" d="M47.5,30.988c8.012,0,14.512,6.5,14.512,14.512s-6.5,14.512-14.512,14.512 c-8.041,0-14.512-6.561-14.512-14.512C32.988,37.488,39.488,30.988,47.5,30.988 M47.5,29C38.402,29,31,36.402,31,45.5 C31,54.599,38.402,62,47.5,62S64,54.599,64,45.5C64,36.402,56.598,29,47.5,29L47.5,29z"/></g><g><circle cx="47.4" cy="45.6" r="11.558" fill="#FA9200"/></g><g><path fill="#FA0" d="M47.4,34.042c-6.383,0-11.558,5.175-11.558,11.558c0,3.158,1.27,6.018,3.323,8.104l16.339-16.339 C53.418,35.312,50.559,34.042,47.4,34.042z"/></g></g></g><g id="R-Yellow" display="none"><g display="inline"><circle cx="55" cy="55" r="55" fill="#FFD75E"/></g><g display="inline"><g><rect width="50" height="60" x="37" y="27" fill="#FFF"/></g><g><path fill="#FA0" d="M65.725,73c0,4.419,3.581,8,8,8c4.418,0,8.415-3.601,8-8c-0.423-4.476-3.893-8.042-8-8 C69.306,65.046,65.725,68.582,65.725,73z"/></g><g><path fill="#E07000" d="M65.725,73c0,4.42,3.58,8,8,8c3.359,0,6.233-2.066,7.42-5l-14.78-6.153 C65.951,70.814,65.725,71.88,65.725,73z"/></g><g><path fill="#FFE9A1" d="M65.712,73.003c0,2.82,1.46,5.3,3.666,6.727l4.327-6.82l-7.353-3.06 C65.938,70.816,65.712,71.884,65.712,73.003z"/></g><g><path fill="#947615" d="M66.364,69.847l7.36,3.067V65C70.424,65,67.591,67,66.364,69.847z"/></g><g><rect width="4" height="18" x="77" y="40" fill="#FA9200"/></g><g><rect width="4" height="10" x="69.712" y="48" fill="#FA0"/></g><g><circle cx="60.333" cy="68.167" r="1.5" fill="#FA0"/></g><g><rect width="10" height="1" x="46.712" y="67.667" fill="#FFE9A1"/></g><g><circle cx="60.333" cy="73.333" r="1.5" fill="#FA0"/></g><g><rect width="10" height="1" x="46.712" y="72.833" fill="#FFE9A1"/></g><g><circle cx="60.333" cy="78.5" r="1.5" fill="#FA0"/></g><g><rect width="10" height="1" x="46.712" y="78" fill="#FFE9A1"/></g><g><path fill="#3D320C" d="M39.742,58.021L28.944,68.819c-1.345,1.344-3.522,1.344-4.867,0c-1.344-1.345-1.344-3.522,0-4.867 l10.822-10.822C36.098,55.126,37.758,56.805,39.742,58.021z"/></g><g><path fill="#66510D" d="M36.992,55.826L24.041,68.776c-1.308-1.344-1.296-3.491,0.03-4.824l10.828-10.828 C35.489,54.104,36.195,55.01,36.992,55.826z"/></g><g><path fill="#FFF" d="M47.4,60.1c-7.995,0-14.5-6.505-14.5-14.5s6.505-14.5,14.5-14.5s14.5,6.505,14.5,14.5 S55.395,60.1,47.4,60.1z"/></g><g><path fill="#F5C43D" d="M47.5,30.988c8.012,0,14.512,6.5,14.512,14.512s-6.5,14.512-14.512,14.512 c-8.041,0-14.512-6.561-14.512-14.512C32.988,37.488,39.488,30.988,47.5,30.988 M47.5,29C38.402,29,31,36.402,31,45.5 C31,54.599,38.402,62,47.5,62S64,54.599,64,45.5C64,36.402,56.598,29,47.5,29L47.5,29z"/></g><g><circle cx="47.4" cy="45.6" r="11.558" fill="#FA9200"/></g><g><path fill="#FA0" d="M47.4,34.042c-6.383,0-11.558,5.175-11.558,11.558c0,3.158,1.27,6.018,3.323,8.104l16.339-16.339 C53.418,35.312,50.559,34.042,47.4,34.042z"/></g></g></g></svg>