<svg xmlns="http://www.w3.org/2000/svg" xmlns:xlink="http://www.w3.org/1999/xlink" width="110" height="110" x="0" y="0" enable-background="new 0 0 110 110" version="1.0" viewBox="0 0 110 110" xml:space="preserve"><g id="Artboard" display="none"><rect width="1366" height="606" x="-61.5" y="-302.5" fill="gray" stroke="#000" stroke-miterlimit="10" display="inline"/></g><g id="R-Multicolor" display="none"><circle cx="55" cy="55" r="55" fill="#E04F5F" display="inline"/><g display="inline"><rect width="32" height="56" x="27" y="27" fill="#FBE158"/><rect width="24" height="44" x="59" y="27" fill="#F99134"/><polygon fill="#FFF" points="23 23 87 23 83 27 27 27"/><polygon fill="#FFF" points="23 87 59 87 59 83 27 83"/><rect width="24" height="16" x="59" y="71" fill="#CFD3D4"/><path fill="#FFF" d="M79,71H63V58c0-4.418,3.582-8,8-8s8,3.582,8,8V71z"/><path fill="#40C9E7" d="M66,58c0-2.761,2.239-5,5-5s5,2.239,5,5H66z"/><rect width="10" height="11" x="66" y="60" fill="#E2E4E5"/><rect width="24" height="2" x="59" y="83" fill="#F0F1F1"/><rect width="24" height="2" x="59" y="79" fill="#F0F1F1"/><rect width="24" height="2" x="59" y="75" fill="#F0F1F1"/><rect width="24" height="2" x="59" y="71" fill="#F0F1F1"/><path fill="#40C9E7" d="M71,43c-2.757,0-5-2.243-5-5s2.243-5,5-5s5,2.243,5,5S73.757,43,71,43z"/><path fill="#FFF" d="M71,33c2.757,0,5,2.243,5,5s-2.243,5-5,5s-5-2.243-5-5S68.243,33,71,33 M71,31 c-3.866,0-7,3.134-7,7s3.134,7,7,7s7-3.134,7-7S74.866,31,71,31L71,31z"/><path fill="#40C9E7" d="M41,78H31V63c0-2.761,2.239-5,5-5s5,2.239,5,5V78z"/><rect width="10" height="7" x="31" y="71" fill="#40C9E7"/><path fill="#40C9E7" d="M55,78H45V63c0-2.761,2.239-5,5-5s5,2.239,5,5V78z"/><rect width="10" height="7" x="45" y="71" fill="#40C9E7"/><path fill="#40C9E7" d="M55,51H45V36c0-2.761,2.239-5,5-5s5,2.239,5,5V51z"/><rect width="10" height="7" x="45" y="44" fill="#40C9E7"/><path fill="#6FDAF1" d="M55,37.35V36c0-2.761-2.239-5-5-5s-5,2.239-5,5v11.35L55,37.35z"/><polygon fill="#6FDAF1" points="48.35 44 45 44 45 47.35"/><path fill="#6FDAF1" d="M41,64.35V63c0-2.761-2.239-5-5-5s-5,2.239-5,5v11.35L41,64.35z"/><polygon fill="#6FDAF1" points="34.35 71 31 71 31 74.35"/><path fill="#6FDAF1" d="M55,64.35V63c0-2.761-2.239-5-5-5s-5,2.239-5,5v11.35L55,64.35z"/><polygon fill="#6FDAF1" points="48.35 71 45 71 45 74.35"/><rect width="10" height="2" x="45" y="42" fill="#FFF"/><rect width="10" height="2" x="31" y="69" fill="#FFF"/><rect width="10" height="2" x="45" y="69" fill="#FFF"/><polygon fill="#FFF" points="23 51 59 51 59 55 27 55"/><path fill="#40C9E7" d="M41,51H31V36c0-2.761,2.239-5,5-5s5,2.239,5,5V51z"/><rect width="10" height="7" x="31" y="44" fill="#40C9E7"/><path fill="#6FDAF1" d="M41,37.35V36c0-2.761-2.239-5-5-5s-5,2.239-5,5v11.35L41,37.35z"/><rect width="10" height="2" x="31" y="42" fill="#FFF"/><path fill="#FFF" d="M83,87h4V65c0-1.105-0.895-2-2-2s-2,0.895-2,2V87z"/></g></g><g id="Multicolor_1_"><g><rect width="32" height="56" x="27" y="27" fill="#FBE158"/><rect width="24" height="44" x="59" y="27" fill="#F99134"/><polygon fill="#FFF" points="23 23 87 23 83 27 27 27"/><polygon fill="#FFF" points="23 87 59 87 59 83 27 83"/><rect width="24" height="16" x="59" y="71" fill="#CFD3D4"/><path fill="#FFF" d="M79,71H63V58c0-4.418,3.582-8,8-8s8,3.582,8,8V71z"/><path fill="#40C9E7" d="M66,58c0-2.761,2.239-5,5-5s5,2.239,5,5H66z"/><rect width="10" height="11" x="66" y="60" fill="#E2E4E5"/><rect width="24" height="2" x="59" y="83" fill="#F0F1F1"/><rect width="24" height="2" x="59" y="79" fill="#F0F1F1"/><rect width="24" height="2" x="59" y="75" fill="#F0F1F1"/><rect width="24" height="2" x="59" y="71" fill="#F0F1F1"/><path fill="#40C9E7" d="M71,43c-2.757,0-5-2.243-5-5s2.243-5,5-5s5,2.243,5,5S73.757,43,71,43z"/><path fill="#FFF" d="M71,33c2.757,0,5,2.243,5,5s-2.243,5-5,5s-5-2.243-5-5S68.243,33,71,33 M71,31 c-3.866,0-7,3.134-7,7s3.134,7,7,7s7-3.134,7-7S74.866,31,71,31L71,31z"/><path fill="#40C9E7" d="M41,78H31V63c0-2.761,2.239-5,5-5s5,2.239,5,5V78z"/><rect width="10" height="7" x="31" y="71" fill="#40C9E7"/><path fill="#40C9E7" d="M55,78H45V63c0-2.761,2.239-5,5-5s5,2.239,5,5V78z"/><rect width="10" height="7" x="45" y="71" fill="#40C9E7"/><path fill="#40C9E7" d="M55,51H45V36c0-2.761,2.239-5,5-5s5,2.239,5,5V51z"/><rect width="10" height="7" x="45" y="44" fill="#40C9E7"/><path fill="#6FDAF1" d="M55,37.35V36c0-2.761-2.239-5-5-5s-5,2.239-5,5v11.35L55,37.35z"/><polygon fill="#6FDAF1" points="48.35 44 45 44 45 47.35"/><path fill="#6FDAF1" d="M41,64.35V63c0-2.761-2.239-5-5-5s-5,2.239-5,5v11.35L41,64.35z"/><polygon fill="#6FDAF1" points="34.35 71 31 71 31 74.35"/><path fill="#6FDAF1" d="M55,64.35V63c0-2.761-2.239-5-5-5s-5,2.239-5,5v11.35L55,64.35z"/><polygon fill="#6FDAF1" points="48.35 71 45 71 45 74.35"/><rect width="10" height="2" x="45" y="42" fill="#FFF"/><rect width="10" height="2" x="31" y="69" fill="#FFF"/><rect width="10" height="2" x="45" y="69" fill="#FFF"/><polygon fill="#FFF" points="23 51 59 51 59 55 27 55"/><path fill="#40C9E7" d="M41,51H31V36c0-2.761,2.239-5,5-5s5,2.239,5,5V51z"/><rect width="10" height="7" x="31" y="44" fill="#40C9E7"/><path fill="#6FDAF1" d="M41,37.35V36c0-2.761-2.239-5-5-5s-5,2.239-5,5v11.35L41,37.35z"/><rect width="10" height="2" x="31" y="42" fill="#FFF"/><path fill="#FFF" d="M83,87h4V65c0-1.105-0.895-2-2-2s-2,0.895-2,2V87z"/></g></g><g id="Blue" display="none"><g display="inline"><g><rect width="32" height="56" x="27" y="27" fill="#E1F5FA"/></g><g><rect width="24" height="44" x="59" y="27" fill="#BBE7F2"/></g><g><polygon fill="#FFF" points="23 23 87 23 83 27 27 27"/></g><g><polygon fill="#0F6175" points="23 87 59 87 59 83 27 83"/></g><g><rect width="24" height="16" x="59" y="71" fill="#53BAD4"/></g><g><path fill="#FFF" d="M79,71H63V58c0-4.418,3.582-8,8-8s8,3.582,8,8V71z"/></g><g><path fill="#00B7E5" d="M66,58c0-2.761,2.238-5,5-5s5,2.239,5,5H66z"/></g><g><rect width="10" height="11" x="66" y="60" fill="#BBE7F2"/></g><g><rect width="24" height="2" x="59" y="83" fill="#E1F5FA"/></g><g><rect width="24" height="2" x="59" y="79" fill="#E1F5FA"/></g><g><rect width="24" height="2" x="59" y="75" fill="#E1F5FA"/></g><g><rect width="24" height="2" x="59" y="71" fill="#E1F5FA"/></g><g><path fill="#00B7E5" d="M71,43c-2.757,0-5-2.243-5-5s2.243-5,5-5s5,2.243,5,5S73.757,43,71,43z"/></g><g><path fill="#FFF" d="M71,33c2.757,0,5,2.243,5,5s-2.243,5-5,5s-5-2.243-5-5S68.243,33,71,33 M71,31 c-3.866,0-7,3.134-7,7s3.134,7,7,7s7-3.134,7-7S74.866,31,71,31L71,31z"/></g><g><path fill="#009FC7" d="M41,78H31V63c0-2.761,2.238-5,5-5s5,2.239,5,5V78z"/></g><g><rect width="10" height="7" x="31" y="71" fill="#009FC7"/></g><g><path fill="#009FC7" d="M55,78H45V63c0-2.761,2.238-5,5-5s5,2.239,5,5V78z"/></g><g><rect width="10" height="7" x="45" y="71" fill="#009FC7"/></g><g><path fill="#009FC7" d="M55,51H45V36c0-2.761,2.238-5,5-5s5,2.239,5,5V51z"/></g><g><rect width="10" height="7" x="45" y="44" fill="#009FC7"/></g><g><path fill="#00B7E5" d="M55,37.35V36c0-2.761-2.238-5-5-5s-5,2.239-5,5v11.35L55,37.35z"/></g><g><polygon fill="#00B7E5" points="48.351 44 45 44 45 47.35"/></g><g><path fill="#00B7E5" d="M41,64.35V63c0-2.761-2.238-5-5-5s-5,2.239-5,5v11.35L41,64.35z"/></g><g><polygon fill="#00B7E5" points="34.351 71 31 71 31 74.35"/></g><g><path fill="#00B7E5" d="M55,64.35V63c0-2.761-2.238-5-5-5s-5,2.239-5,5v11.35L55,64.35z"/></g><g><polygon fill="#00B7E5" points="48.351 71 45 71 45 74.35"/></g><g><rect width="10" height="2" x="45" y="42" fill="#FFF"/></g><g><rect width="10" height="2" x="31" y="69" fill="#FFF"/></g><g><rect width="10" height="2" x="45" y="69" fill="#FFF"/></g><g><polygon fill="#FFF" points="23 51 59 51 59 55 27 55"/></g><g><path fill="#009FC7" d="M41,51H31V36c0-2.761,2.238-5,5-5s5,2.239,5,5V51z"/></g><g><rect width="10" height="7" x="31" y="44" fill="#009FC7"/></g><g><path fill="#00B7E5" d="M41,37.35V36c0-2.761-2.238-5-5-5s-5,2.239-5,5v11.35L41,37.35z"/></g><g><rect width="10" height="2" x="31" y="42" fill="#FFF"/></g><g><path fill="#FFF" d="M83,87h4V65c0-1.104-0.896-2-2-2s-2,0.896-2,2V87z"/></g></g></g><g id="R-Blue" display="none"><g display="inline"><circle cx="55" cy="55" r="55" fill="#81D2EB"/></g><g display="inline"><g><rect width="32" height="56" x="27" y="27" fill="#E1F5FA"/></g><g><rect width="24" height="44" x="59" y="27" fill="#BBE7F2"/></g><g><polygon fill="#FFF" points="23 23 87 23 83 27 27 27"/></g><g><polygon fill="#0F6175" points="23 87 59 87 59 83 27 83"/></g><g><rect width="24" height="16" x="59" y="71" fill="#53BAD4"/></g><g><path fill="#FFF" d="M79,71H63V58c0-4.418,3.582-8,8-8s8,3.582,8,8V71z"/></g><g><path fill="#00B7E5" d="M66,58c0-2.761,2.238-5,5-5s5,2.239,5,5H66z"/></g><g><rect width="10" height="11" x="66" y="60" fill="#BBE7F2"/></g><g><rect width="24" height="2" x="59" y="83" fill="#E1F5FA"/></g><g><rect width="24" height="2" x="59" y="79" fill="#E1F5FA"/></g><g><rect width="24" height="2" x="59" y="75" fill="#E1F5FA"/></g><g><rect width="24" height="2" x="59" y="71" fill="#E1F5FA"/></g><g><path fill="#00B7E5" d="M71,43c-2.757,0-5-2.243-5-5s2.243-5,5-5s5,2.243,5,5S73.757,43,71,43z"/></g><g><path fill="#FFF" d="M71,33c2.757,0,5,2.243,5,5s-2.243,5-5,5s-5-2.243-5-5S68.243,33,71,33 M71,31 c-3.866,0-7,3.134-7,7s3.134,7,7,7s7-3.134,7-7S74.866,31,71,31L71,31z"/></g><g><path fill="#009FC7" d="M41,78H31V63c0-2.761,2.238-5,5-5s5,2.239,5,5V78z"/></g><g><rect width="10" height="7" x="31" y="71" fill="#009FC7"/></g><g><path fill="#009FC7" d="M55,78H45V63c0-2.761,2.238-5,5-5s5,2.239,5,5V78z"/></g><g><rect width="10" height="7" x="45" y="71" fill="#009FC7"/></g><g><path fill="#009FC7" d="M55,51H45V36c0-2.761,2.238-5,5-5s5,2.239,5,5V51z"/></g><g><rect width="10" height="7" x="45" y="44" fill="#009FC7"/></g><g><path fill="#00B7E5" d="M55,37.35V36c0-2.761-2.238-5-5-5s-5,2.239-5,5v11.35L55,37.35z"/></g><g><polygon fill="#00B7E5" points="48.351 44 45 44 45 47.35"/></g><g><path fill="#00B7E5" d="M41,64.35V63c0-2.761-2.238-5-5-5s-5,2.239-5,5v11.35L41,64.35z"/></g><g><polygon fill="#00B7E5" points="34.351 71 31 71 31 74.35"/></g><g><path fill="#00B7E5" d="M55,64.35V63c0-2.761-2.238-5-5-5s-5,2.239-5,5v11.35L55,64.35z"/></g><g><polygon fill="#00B7E5" points="48.351 71 45 71 45 74.35"/></g><g><rect width="10" height="2" x="45" y="42" fill="#FFF"/></g><g><rect width="10" height="2" x="31" y="69" fill="#FFF"/></g><g><rect width="10" height="2" x="45" y="69" fill="#FFF"/></g><g><polygon fill="#FFF" points="23 51 59 51 59 55 27 55"/></g><g><path fill="#009FC7" d="M41,51H31V36c0-2.761,2.238-5,5-5s5,2.239,5,5V51z"/></g><g><rect width="10" height="7" x="31" y="44" fill="#009FC7"/></g><g><path fill="#00B7E5" d="M41,37.35V36c0-2.761-2.238-5-5-5s-5,2.239-5,5v11.35L41,37.35z"/></g><g><rect width="10" height="2" x="31" y="42" fill="#FFF"/></g><g><path fill="#FFF" d="M83,87h4V65c0-1.104-0.896-2-2-2s-2,0.896-2,2V87z"/></g></g></g><g id="Green" display="none"><g display="inline"><g><rect width="32" height="56" x="27" y="27" fill="#D7FCF9"/></g><g><rect width="24" height="44" x="59" y="27" fill="#AAF0E9"/></g><g><polygon fill="#FFF" points="23 23 87 23 83 27 27 27"/></g><g><polygon fill="#14635B" points="23 87 59 87 59 83 27 83"/></g><g><rect width="24" height="16" x="59" y="71" fill="#5DCFC3"/></g><g><path fill="#FFF" d="M79,71H63V58c0-4.418,3.582-8,8-8s8,3.582,8,8V71z"/></g><g><path fill="#00D6C1" d="M66,58c0-2.761,2.238-5,5-5s5,2.239,5,5H66z"/></g><g><rect width="10" height="11" x="66" y="60" fill="#AAF0E9"/></g><g><rect width="24" height="2" x="59" y="83" fill="#D7FCF9"/></g><g><rect width="24" height="2" x="59" y="79" fill="#D7FCF9"/></g><g><rect width="24" height="2" x="59" y="75" fill="#D7FCF9"/></g><g><rect width="24" height="2" x="59" y="71" fill="#D7FCF9"/></g><g><path fill="#00D6C1" d="M71,43c-2.757,0-5-2.243-5-5c0-2.757,2.243-5,5-5s5,2.243,5,5C76,40.757,73.757,43,71,43z"/></g><g><path fill="#FFF" d="M71,33c2.757,0,5,2.243,5,5c0,2.757-2.243,5-5,5s-5-2.243-5-5C66,35.243,68.243,33,71,33 M71,31 c-3.866,0-7,3.134-7,7s3.134,7,7,7s7-3.134,7-7S74.866,31,71,31L71,31z"/></g><g><path fill="#00B8A5" d="M41,78H31V63c0-2.761,2.238-5,5-5s5,2.239,5,5V78z"/></g><g><rect width="10" height="7" x="31" y="71" fill="#00B8A5"/></g><g><path fill="#00B8A5" d="M55,78H45V63c0-2.761,2.238-5,5-5s5,2.239,5,5V78z"/></g><g><rect width="10" height="7" x="45" y="71" fill="#00B8A5"/></g><g><path fill="#00B8A5" d="M55,51H45V36c0-2.761,2.238-5,5-5s5,2.239,5,5V51z"/></g><g><rect width="10" height="7" x="45" y="44" fill="#00B8A5"/></g><g><path fill="#00D6C1" d="M55,37.35V36c0-2.761-2.238-5-5-5s-5,2.239-5,5v11.35L55,37.35z"/></g><g><polygon fill="#00D6C1" points="48.351 44 45 44 45 47.35"/></g><g><path fill="#00D6C1" d="M41,64.35V63c0-2.761-2.238-5-5-5s-5,2.239-5,5v11.35L41,64.35z"/></g><g><polygon fill="#00D6C1" points="34.351 71 31 71 31 74.35"/></g><g><path fill="#00D6C1" d="M55,64.35V63c0-2.761-2.238-5-5-5s-5,2.239-5,5v11.35L55,64.35z"/></g><g><polygon fill="#00D6C1" points="48.351 71 45 71 45 74.35"/></g><g><rect width="10" height="2" x="45" y="42" fill="#FFF"/></g><g><rect width="10" height="2" x="31" y="69" fill="#FFF"/></g><g><rect width="10" height="2" x="45" y="69" fill="#FFF"/></g><g><polygon fill="#FFF" points="23 51 59 51 59 55 27 55"/></g><g><path fill="#00B8A5" d="M41,51H31V36c0-2.761,2.238-5,5-5s5,2.239,5,5V51z"/></g><g><rect width="10" height="7" x="31" y="44" fill="#00B8A5"/></g><g><path fill="#00D6C1" d="M41,37.35V36c0-2.761-2.238-5-5-5s-5,2.239-5,5v11.35L41,37.35z"/></g><g><rect width="10" height="2" x="31" y="42" fill="#FFF"/></g><g><path fill="#FFF" d="M83,87h4V65c0-1.104-0.896-2-2-2s-2,0.896-2,2V87z"/></g></g></g><g id="R-Green" display="none"><g display="inline"><circle cx="55" cy="55" r="55" fill="#87E0C8"/></g><g display="inline"><g><rect width="32" height="56" x="27" y="27" fill="#D7FCF9"/></g><g><rect width="24" height="44" x="59" y="27" fill="#AAF0E9"/></g><g><polygon fill="#FFF" points="23 23 87 23 83 27 27 27"/></g><g><polygon fill="#14635B" points="23 87 59 87 59 83 27 83"/></g><g><rect width="24" height="16" x="59" y="71" fill="#5DCFC3"/></g><g><path fill="#FFF" d="M79,71H63V58c0-4.418,3.582-8,8-8s8,3.582,8,8V71z"/></g><g><path fill="#00D6C1" d="M66,58c0-2.761,2.238-5,5-5c2.762,0,5,2.239,5,5H66z"/></g><g><rect width="10" height="11" x="66" y="60" fill="#AAF0E9"/></g><g><rect width="24" height="2" x="59" y="83" fill="#D7FCF9"/></g><g><rect width="24" height="2" x="59" y="79" fill="#D7FCF9"/></g><g><rect width="24" height="2" x="59" y="75" fill="#D7FCF9"/></g><g><rect width="24" height="2" x="59" y="71" fill="#D7FCF9"/></g><g><path fill="#00D6C1" d="M71,43c-2.757,0-5-2.243-5-5s2.243-5,5-5s5,2.243,5,5S73.757,43,71,43z"/></g><g><path fill="#FFF" d="M71,33c2.757,0,5,2.243,5,5s-2.243,5-5,5s-5-2.243-5-5S68.243,33,71,33 M71,31 c-3.866,0-7,3.134-7,7s3.134,7,7,7c3.866,0,7-3.134,7-7S74.866,31,71,31L71,31z"/></g><g><path fill="#00B8A5" d="M41,78H31V63c0-2.761,2.238-5,5-5s5,2.239,5,5V78z"/></g><g><rect width="10" height="7" x="31" y="71" fill="#00B8A5"/></g><g><path fill="#00B8A5" d="M55,78H45V63c0-2.761,2.238-5,5-5s5,2.239,5,5V78z"/></g><g><rect width="10" height="7" x="45" y="71" fill="#00B8A5"/></g><g><path fill="#00B8A5" d="M55,51H45V36c0-2.761,2.238-5,5-5s5,2.239,5,5V51z"/></g><g><rect width="10" height="7" x="45" y="44" fill="#00B8A5"/></g><g><path fill="#00D6C1" d="M55,37.35V36c0-2.761-2.238-5-5-5s-5,2.239-5,5v11.35L55,37.35z"/></g><g><polygon fill="#00D6C1" points="48.351 44 45 44 45 47.35"/></g><g><path fill="#00D6C1" d="M41,64.35V63c0-2.761-2.238-5-5-5s-5,2.239-5,5v11.35L41,64.35z"/></g><g><polygon fill="#00D6C1" points="34.351 71 31 71 31 74.35"/></g><g><path fill="#00D6C1" d="M55,64.35V63c0-2.761-2.238-5-5-5s-5,2.239-5,5v11.35L55,64.35z"/></g><g><polygon fill="#00D6C1" points="48.351 71 45 71 45 74.35"/></g><g><rect width="10" height="2" x="45" y="42" fill="#FFF"/></g><g><rect width="10" height="2" x="31" y="69" fill="#FFF"/></g><g><rect width="10" height="2" x="45" y="69" fill="#FFF"/></g><g><polygon fill="#FFF" points="23 51 59 51 59 55 27 55"/></g><g><path fill="#00B8A5" d="M41,51H31V36c0-2.761,2.238-5,5-5s5,2.239,5,5V51z"/></g><g><rect width="10" height="7" x="31" y="44" fill="#00B8A5"/></g><g><path fill="#00D6C1" d="M41,37.35V36c0-2.761-2.238-5-5-5s-5,2.239-5,5v11.35L41,37.35z"/></g><g><rect width="10" height="2" x="31" y="42" fill="#FFF"/></g><g><path fill="#FFF" d="M83,87h4V65c0-1.104-0.896-2-2-2s-2,0.896-2,2V87z"/></g></g></g><g id="Red" display="none"><g display="inline"><g><rect width="32" height="56" x="27" y="27" fill="#FFEFED"/></g><g><rect width="24" height="44" x="59" y="27" fill="#FFD7D4"/></g><g><polygon fill="#FFF" points="23 23 87 23 83 27 27 27"/></g><g><polygon fill="#7D261E" points="23 87 59 87 59 83 27 83"/></g><g><rect width="24" height="16" x="59" y="71" fill="#E8A099"/></g><g><path fill="#FFF" d="M79,71H63V58c0-4.418,3.582-8,8-8s8,3.582,8,8V71z"/></g><g><path fill="#FF6C5E" d="M66,58c0-2.761,2.238-5,5-5c2.762,0,5,2.239,5,5H66z"/></g><g><rect width="10" height="11" x="66" y="60" fill="#FFD7D4"/></g><g><rect width="24" height="2" x="59" y="83" fill="#FFEFED"/></g><g><rect width="24" height="2" x="59" y="79" fill="#FFEFED"/></g><g><rect width="24" height="2" x="59" y="75" fill="#FFEFED"/></g><g><rect width="24" height="2" x="59" y="71" fill="#FFEFED"/></g><g><path fill="#FF6C5E" d="M71,43c-2.757,0-5-2.243-5-5s2.243-5,5-5c2.757,0,5,2.243,5,5S73.757,43,71,43z"/></g><g><path fill="#FFF" d="M71,33c2.757,0,5,2.243,5,5s-2.243,5-5,5c-2.757,0-5-2.243-5-5S68.243,33,71,33 M71,31 c-3.866,0-7,3.134-7,7s3.134,7,7,7c3.866,0,7-3.134,7-7S74.866,31,71,31L71,31z"/></g><g><path fill="#E54B44" d="M41,78H31V63c0-2.761,2.238-5,5-5s5,2.239,5,5V78z"/></g><g><rect width="10" height="7" x="31" y="71" fill="#E54B44"/></g><g><path fill="#E54B44" d="M55,78H45V63c0-2.761,2.238-5,5-5s5,2.239,5,5V78z"/></g><g><rect width="10" height="7" x="45" y="71" fill="#E54B44"/></g><g><path fill="#E54B44" d="M55,51H45V36c0-2.761,2.238-5,5-5s5,2.239,5,5V51z"/></g><g><rect width="10" height="7" x="45" y="44" fill="#E54B44"/></g><g><path fill="#FF6C5E" d="M55,37.35V36c0-2.761-2.238-5-5-5s-5,2.239-5,5v11.35L55,37.35z"/></g><g><polygon fill="#FF6C5E" points="48.351 44 45 44 45 47.35"/></g><g><path fill="#FF6C5E" d="M41,64.35V63c0-2.761-2.238-5-5-5s-5,2.239-5,5v11.35L41,64.35z"/></g><g><polygon fill="#FF6C5E" points="34.351 71 31 71 31 74.35"/></g><g><path fill="#FF6C5E" d="M55,64.35V63c0-2.761-2.238-5-5-5s-5,2.239-5,5v11.35L55,64.35z"/></g><g><polygon fill="#FF6C5E" points="48.351 71 45 71 45 74.35"/></g><g><rect width="10" height="2" x="45" y="42" fill="#FFF"/></g><g><rect width="10" height="2" x="31" y="69" fill="#FFF"/></g><g><rect width="10" height="2" x="45" y="69" fill="#FFF"/></g><g><polygon fill="#FFF" points="23 51 59 51 59 55 27 55"/></g><g><path fill="#E54B44" d="M41,51H31V36c0-2.761,2.238-5,5-5s5,2.239,5,5V51z"/></g><g><rect width="10" height="7" x="31" y="44" fill="#E54B44"/></g><g><path fill="#FF6C5E" d="M41,37.35V36c0-2.761-2.238-5-5-5s-5,2.239-5,5v11.35L41,37.35z"/></g><g><rect width="10" height="2" x="31" y="42" fill="#FFF"/></g><g><path fill="#FFF" d="M83,87h4V65c0-1.104-0.896-2-2-2s-2,0.896-2,2V87z"/></g></g></g><g id="R-Red" display="none"><g display="inline"><circle cx="55" cy="55" r="55" fill="#FABBAF"/></g><g display="inline"><g><rect width="32" height="56" x="27" y="27" fill="#FFEFED"/></g><g><rect width="24" height="44" x="59" y="27" fill="#FFD7D4"/></g><g><polygon fill="#FFF" points="23 23 87 23 83 27 27 27"/></g><g><polygon fill="#7D261E" points="23 87 59 87 59 83 27 83"/></g><g><rect width="24" height="16" x="59" y="71" fill="#E8A099"/></g><g><path fill="#FFF" d="M79,71H63V58c0-4.418,3.582-8,8-8s8,3.582,8,8V71z"/></g><g><path fill="#FF6C5E" d="M66,58c0-2.761,2.238-5,5-5c2.762,0,5,2.239,5,5H66z"/></g><g><rect width="10" height="11" x="66" y="60" fill="#FFD7D4"/></g><g><rect width="24" height="2" x="59" y="83" fill="#FFEFED"/></g><g><rect width="24" height="2" x="59" y="79" fill="#FFEFED"/></g><g><rect width="24" height="2" x="59" y="75" fill="#FFEFED"/></g><g><rect width="24" height="2" x="59" y="71" fill="#FFEFED"/></g><g><path fill="#FF6C5E" d="M71,43c-2.757,0-5-2.243-5-5s2.243-5,5-5s5,2.243,5,5S73.757,43,71,43z"/></g><g><path fill="#FFF" d="M71,33c2.757,0,5,2.243,5,5s-2.243,5-5,5s-5-2.243-5-5S68.243,33,71,33 M71,31 c-3.866,0-7,3.134-7,7s3.134,7,7,7c3.866,0,7-3.134,7-7S74.866,31,71,31L71,31z"/></g><g><path fill="#E54B44" d="M41,78H31V63c0-2.761,2.238-5,5-5s5,2.239,5,5V78z"/></g><g><rect width="10" height="7" x="31" y="71" fill="#E54B44"/></g><g><path fill="#E54B44" d="M55,78H45V63c0-2.761,2.238-5,5-5s5,2.239,5,5V78z"/></g><g><rect width="10" height="7" x="45" y="71" fill="#E54B44"/></g><g><path fill="#E54B44" d="M55,51H45V36c0-2.761,2.238-5,5-5s5,2.239,5,5V51z"/></g><g><rect width="10" height="7" x="45" y="44" fill="#E54B44"/></g><g><path fill="#FF6C5E" d="M55,37.35V36c0-2.761-2.238-5-5-5s-5,2.239-5,5v11.35L55,37.35z"/></g><g><polygon fill="#FF6C5E" points="48.351 44 45 44 45 47.35"/></g><g><path fill="#FF6C5E" d="M41,64.35V63c0-2.761-2.238-5-5-5s-5,2.239-5,5v11.35L41,64.35z"/></g><g><polygon fill="#FF6C5E" points="34.351 71 31 71 31 74.35"/></g><g><path fill="#FF6C5E" d="M55,64.35V63c0-2.761-2.238-5-5-5s-5,2.239-5,5v11.35L55,64.35z"/></g><g><polygon fill="#FF6C5E" points="48.351 71 45 71 45 74.35"/></g><g><rect width="10" height="2" x="45" y="42" fill="#FFF"/></g><g><rect width="10" height="2" x="31" y="69" fill="#FFF"/></g><g><rect width="10" height="2" x="45" y="69" fill="#FFF"/></g><g><polygon fill="#FFF" points="23 51 59 51 59 55 27 55"/></g><g><path fill="#E54B44" d="M41,51H31V36c0-2.761,2.238-5,5-5s5,2.239,5,5V51z"/></g><g><rect width="10" height="7" x="31" y="44" fill="#E54B44"/></g><g><path fill="#FF6C5E" d="M41,37.35V36c0-2.761-2.238-5-5-5s-5,2.239-5,5v11.35L41,37.35z"/></g><g><rect width="10" height="2" x="31" y="42" fill="#FFF"/></g><g><path fill="#FFF" d="M83,87h4V65c0-1.104-0.896-2-2-2s-2,0.896-2,2V87z"/></g></g></g><g id="Yellow" display="none"><g display="inline"><g><rect width="32" height="56" x="27" y="27" fill="#FFF5D9"/></g><g><rect width="24" height="44" x="59" y="27" fill="#FFE9A1"/></g><g><polygon fill="#FFF" points="23 23 87 23 83 27 27 27"/></g><g><polygon fill="#66510D" points="23 87 59 87 59 83 27 83"/></g><g><rect width="24" height="16" x="59" y="71" fill="#F5C43D"/></g><g><path fill="#FFF" d="M79,71H63V58c0-4.418,3.582-8,8-8s8,3.582,8,8V71z"/></g><g><path fill="#FA0" d="M66,58c0-2.761,2.238-5,5-5c2.762,0,5,2.239,5,5H66z"/></g><g><rect width="10" height="11" x="66" y="60" fill="#FFE9A1"/></g><g><rect width="24" height="2" x="59" y="83" fill="#FFF5D9"/></g><g><rect width="24" height="2" x="59" y="79" fill="#FFF5D9"/></g><g><rect width="24" height="2" x="59" y="75" fill="#FFF5D9"/></g><g><rect width="24" height="2" x="59" y="71" fill="#FFF5D9"/></g><g><path fill="#FA0" d="M71,43c-2.757,0-5-2.243-5-5s2.243-5,5-5s5,2.243,5,5S73.757,43,71,43z"/></g><g><path fill="#FFF" d="M71,33c2.757,0,5,2.243,5,5s-2.243,5-5,5s-5-2.243-5-5S68.243,33,71,33 M71,31 c-3.866,0-7,3.134-7,7s3.134,7,7,7c3.866,0,7-3.134,7-7S74.866,31,71,31L71,31z"/></g><g><path fill="#FA9200" d="M41,78H31V63c0-2.761,2.238-5,5-5s5,2.239,5,5V78z"/></g><g><rect width="10" height="7" x="31" y="71" fill="#FA9200"/></g><g><path fill="#FA9200" d="M55,78H45V63c0-2.761,2.238-5,5-5s5,2.239,5,5V78z"/></g><g><rect width="10" height="7" x="45" y="71" fill="#FA9200"/></g><g><path fill="#FA9200" d="M55,51H45V36c0-2.761,2.238-5,5-5s5,2.239,5,5V51z"/></g><g><rect width="10" height="7" x="45" y="44" fill="#FA9200"/></g><g><path fill="#FA0" d="M55,37.35V36c0-2.761-2.238-5-5-5s-5,2.239-5,5v11.35L55,37.35z"/></g><g><polygon fill="#FA0" points="48.351 44 45 44 45 47.35"/></g><g><path fill="#FA0" d="M41,64.35V63c0-2.761-2.238-5-5-5s-5,2.239-5,5v11.35L41,64.35z"/></g><g><polygon fill="#FA0" points="34.351 71 31 71 31 74.35"/></g><g><path fill="#FA0" d="M55,64.35V63c0-2.761-2.238-5-5-5s-5,2.239-5,5v11.35L55,64.35z"/></g><g><polygon fill="#FA0" points="48.351 71 45 71 45 74.35"/></g><g><rect width="10" height="2" x="45" y="42" fill="#FFF"/></g><g><rect width="10" height="2" x="31" y="69" fill="#FFF"/></g><g><rect width="10" height="2" x="45" y="69" fill="#FFF"/></g><g><polygon fill="#FFF" points="23 51 59 51 59 55 27 55"/></g><g><path fill="#FA9200" d="M41,51H31V36c0-2.761,2.238-5,5-5s5,2.239,5,5V51z"/></g><g><rect width="10" height="7" x="31" y="44" fill="#FA9200"/></g><g><path fill="#FA0" d="M41,37.35V36c0-2.761-2.238-5-5-5s-5,2.239-5,5v11.35L41,37.35z"/></g><g><rect width="10" height="2" x="31" y="42" fill="#FFF"/></g><g><path fill="#FFF" d="M83,87h4V65c0-1.104-0.896-2-2-2s-2,0.896-2,2V87z"/></g></g></g><g id="R-Yellow" display="none"><g display="inline"><circle cx="55" cy="55" r="55" fill="#FFD75E"/></g><g display="inline"><g><rect width="32" height="56" x="27" y="27" fill="#FFF5D9"/></g><g><rect width="24" height="44" x="59" y="27" fill="#FFE9A1"/></g><g><polygon fill="#FFF" points="23 23 87 23 83 27 27 27"/></g><g><polygon fill="#66510D" points="23 87 59 87 59 83 27 83"/></g><g><rect width="24" height="16" x="59" y="71" fill="#F5C43D"/></g><g><path fill="#FFF" d="M79,71H63V58c0-4.418,3.582-8,8-8s8,3.582,8,8V71z"/></g><g><path fill="#FA0" d="M66,58c0-2.761,2.238-5,5-5c2.762,0,5,2.239,5,5H66z"/></g><g><rect width="10" height="11" x="66" y="60" fill="#FFE9A1"/></g><g><rect width="24" height="2" x="59" y="83" fill="#FFF5D9"/></g><g><rect width="24" height="2" x="59" y="79" fill="#FFF5D9"/></g><g><rect width="24" height="2" x="59" y="75" fill="#FFF5D9"/></g><g><rect width="24" height="2" x="59" y="71" fill="#FFF5D9"/></g><g><path fill="#FA0" d="M71,43c-2.757,0-5-2.243-5-5s2.243-5,5-5c2.757,0,5,2.243,5,5S73.757,43,71,43z"/></g><g><path fill="#FFF" d="M71,33c2.757,0,5,2.243,5,5s-2.243,5-5,5c-2.757,0-5-2.243-5-5S68.243,33,71,33 M71,31 c-3.866,0-7,3.134-7,7s3.134,7,7,7c3.866,0,7-3.134,7-7S74.866,31,71,31L71,31z"/></g><g><path fill="#FA9200" d="M41,78H31V63c0-2.761,2.238-5,5-5s5,2.239,5,5V78z"/></g><g><rect width="10" height="7" x="31" y="71" fill="#FA9200"/></g><g><path fill="#FA9200" d="M55,78H45V63c0-2.761,2.238-5,5-5s5,2.239,5,5V78z"/></g><g><rect width="10" height="7" x="45" y="71" fill="#FA9200"/></g><g><path fill="#FA9200" d="M55,51H45V36c0-2.761,2.238-5,5-5s5,2.239,5,5V51z"/></g><g><rect width="10" height="7" x="45" y="44" fill="#FA9200"/></g><g><path fill="#FA0" d="M55,37.35V36c0-2.761-2.238-5-5-5s-5,2.239-5,5v11.35L55,37.35z"/></g><g><polygon fill="#FA0" points="48.351 44 45 44 45 47.35"/></g><g><path fill="#FA0" d="M41,64.35V63c0-2.761-2.238-5-5-5s-5,2.239-5,5v11.35L41,64.35z"/></g><g><polygon fill="#FA0" points="34.351 71 31 71 31 74.35"/></g><g><path fill="#FA0" d="M55,64.35V63c0-2.761-2.238-5-5-5s-5,2.239-5,5v11.35L55,64.35z"/></g><g><polygon fill="#FA0" points="48.351 71 45 71 45 74.35"/></g><g><rect width="10" height="2" x="45" y="42" fill="#FFF"/></g><g><rect width="10" height="2" x="31" y="69" fill="#FFF"/></g><g><rect width="10" height="2" x="45" y="69" fill="#FFF"/></g><g><polygon fill="#FFF" points="23 51 59 51 59 55 27 55"/></g><g><path fill="#FA9200" d="M41,51H31V36c0-2.761,2.238-5,5-5s5,2.239,5,5V51z"/></g><g><rect width="10" height="7" x="31" y="44" fill="#FA9200"/></g><g><path fill="#FA0" d="M41,37.35V36c0-2.761-2.238-5-5-5s-5,2.239-5,5v11.35L41,37.35z"/></g><g><rect width="10" height="2" x="31" y="42" fill="#FFF"/></g><g><path fill="#FFF" d="M83,87h4V65c0-1.104-0.896-2-2-2s-2,0.896-2,2V87z"/></g></g></g></svg>