<svg xmlns="http://www.w3.org/2000/svg" xmlns:xlink="http://www.w3.org/1999/xlink" width="110" height="110" x="0" y="0" enable-background="new 0 0 110 110" version="1.0" viewBox="0 0 110 110" xml:space="preserve"><g id="Artboard" display="none"><rect width="1392" height="1369" x="-1096.5" y="-674.5" fill="gray" stroke="#000" stroke-miterlimit="10" display="inline"/></g><g id="R-Multicolor" display="none"><circle cx="55" cy="55" r="55" fill="#E04F5F" display="inline"/><g display="inline"><g><path fill="#FBE158" d="M83,39L27,59v26c0,0.65,0.316,1.26,0.848,1.635s1.212,0.467,1.825,0.249L83,67.838V39z"/></g><g><path fill="#FCF6C2" d="M83,39L27,59l28-36C67.21,23,78.326,30.413,83,39z"/></g><g><circle cx="52" cy="70" r="1" fill="#F3B607"/></g><g><circle cx="78" cy="46" r="1" fill="#F3B607"/></g><g><circle cx="71" cy="55" r="4" fill="#F3B607"/></g><g><circle cx="40" cy="58" r="1" fill="#F3B607"/></g><g><path fill="#F3B607" d="M44.6,78.831c-0.025,0.018-0.051,0.043-0.07,0.068c-0.721,0.955-0.637,1.928-0.159,2.601 l3.616-1.291C47.884,78.732,46.197,77.691,44.6,78.831z"/></g><g><circle cx="64" cy="65" r="2" fill="#F3B607"/></g><g><circle cx="37" cy="69" r="2" fill="#F3B607"/></g><g><ellipse cx="58" cy="30.5" fill="#FACB1B" rx="3" ry="1.5"/></g><g><ellipse cx="51.5" cy="41.25" fill="#FACB1B" rx="2.5" ry="1.25"/></g><g><ellipse cx="66.5" cy="37" fill="#FACB1B" rx="4.5" ry="2"/></g><g><ellipse cx="42" cy="48" fill="#FACB1B" rx="2" ry="1"/></g></g></g><g id="Multicolor"><g><g><path fill="#FBE158" d="M83,39L27,59v26c0,0.65,0.316,1.26,0.848,1.635s1.212,0.467,1.825,0.249L83,67.838V39z"/></g><g><path fill="#FCF6C2" d="M83,39L27,59l28-36C67.21,23,78.326,30.413,83,39z"/></g><g><circle cx="52" cy="70" r="1" fill="#F3B607"/></g><g><circle cx="78" cy="46" r="1" fill="#F3B607"/></g><g><circle cx="71" cy="55" r="4" fill="#F3B607"/></g><g><circle cx="40" cy="58" r="1" fill="#F3B607"/></g><g><path fill="#F3B607" d="M44.6,78.831c-0.025,0.018-0.051,0.043-0.07,0.068c-0.721,0.955-0.637,1.928-0.159,2.601 l3.616-1.291C47.884,78.732,46.197,77.691,44.6,78.831z"/></g><g><circle cx="64" cy="65" r="2" fill="#F3B607"/></g><g><circle cx="37" cy="69" r="2" fill="#F3B607"/></g><g><ellipse cx="58" cy="30.5" fill="#FACB1B" rx="3" ry="1.5"/></g><g><ellipse cx="51.5" cy="41.25" fill="#FACB1B" rx="2.5" ry="1.25"/></g><g><ellipse cx="66.5" cy="37" fill="#FACB1B" rx="4.5" ry="2"/></g><g><ellipse cx="42" cy="48" fill="#FACB1B" rx="2" ry="1"/></g></g></g><g id="Blue" display="none"><g display="inline"><g><path fill="#BBE7F2" d="M83,39L27,59v26c0,0.65,0.316,1.26,0.848,1.635c0.531,0.375,1.213,0.468,1.825,0.249L83,67.838V39 z"/></g><g><path fill="#FFF" d="M83,39L27,59l28-36C67.21,23,78.326,30.413,83,39z"/></g><g><circle cx="52" cy="70" r="1" fill="#53BAD4"/></g><g><circle cx="78" cy="46" r="1" fill="#53BAD4"/></g><g><circle cx="71" cy="55" r="4" fill="#53BAD4"/></g><g><circle cx="40" cy="58" r="1" fill="#53BAD4"/></g><g><path fill="#53BAD4" d="M44.6,78.831c-0.025,0.018-0.051,0.043-0.07,0.068c-0.721,0.955-0.637,1.928-0.158,2.601 l3.615-1.291C47.884,78.732,46.197,77.691,44.6,78.831z"/></g><g><circle cx="64" cy="65" r="2" fill="#53BAD4"/></g><g><circle cx="37" cy="69" r="2" fill="#53BAD4"/></g><g><ellipse cx="58" cy="30.5" fill="#BBE7F2" rx="3" ry="1.5"/></g><g><ellipse cx="51.5" cy="41.25" fill="#BBE7F2" rx="2.5" ry="1.25"/></g><g><ellipse cx="66.5" cy="37" fill="#BBE7F2" rx="4.5" ry="2"/></g><g><ellipse cx="42" cy="48" fill="#BBE7F2" rx="2" ry="1"/></g></g></g><g id="R-Blue" display="none"><circle cx="55" cy="55" r="55" fill="#81D2EB" display="inline"/><g display="inline"><g><path fill="#BBE7F2" d="M83,39L27,59v26c0,0.65,0.316,1.26,0.848,1.635c0.531,0.375,1.213,0.468,1.825,0.249L83,67.838V39 z"/></g><g><path fill="#FFF" d="M83,39L27,59l28-36C67.21,23,78.326,30.413,83,39z"/></g><g><circle cx="52" cy="70" r="1" fill="#53BAD4"/></g><g><circle cx="78" cy="46" r="1" fill="#53BAD4"/></g><g><circle cx="71" cy="55" r="4" fill="#53BAD4"/></g><g><circle cx="40" cy="58" r="1" fill="#53BAD4"/></g><g><path fill="#53BAD4" d="M44.6,78.831c-0.025,0.018-0.051,0.043-0.07,0.068c-0.721,0.955-0.637,1.928-0.158,2.601 l3.615-1.291C47.884,78.732,46.197,77.691,44.6,78.831z"/></g><g><circle cx="64" cy="65" r="2" fill="#53BAD4"/></g><g><circle cx="37" cy="69" r="2" fill="#53BAD4"/></g><g><ellipse cx="58" cy="30.5" fill="#BBE7F2" rx="3" ry="1.5"/></g><g><ellipse cx="51.5" cy="41.25" fill="#BBE7F2" rx="2.5" ry="1.25"/></g><g><ellipse cx="66.5" cy="37" fill="#BBE7F2" rx="4.5" ry="2"/></g><g><ellipse cx="42" cy="48" fill="#BBE7F2" rx="2" ry="1"/></g></g></g><g id="Green" display="none"><g display="inline"><g><path fill="#AAF0E9" d="M83,39L27,59v26c0,0.65,0.316,1.26,0.848,1.635c0.531,0.375,1.213,0.468,1.825,0.249L83,67.838V39 z"/></g><g><path fill="#FFF" d="M83,39L27,59l28-36C67.21,23,78.326,30.413,83,39z"/></g><g><circle cx="52" cy="70" r="1" fill="#55C9BE"/></g><g><circle cx="78" cy="46" r="1" fill="#55C9BE"/></g><g><circle cx="71" cy="55" r="4" fill="#55C9BE"/></g><g><circle cx="40" cy="58" r="1" fill="#55C9BE"/></g><g><path fill="#55C9BE" d="M44.6,78.831c-0.025,0.018-0.051,0.043-0.07,0.068c-0.721,0.955-0.637,1.928-0.158,2.601 l3.615-1.291C47.884,78.732,46.197,77.691,44.6,78.831z"/></g><g><circle cx="64" cy="65" r="2" fill="#55C9BE"/></g><g><circle cx="37" cy="69" r="2" fill="#55C9BE"/></g><g><ellipse cx="58" cy="30.5" fill="#AAF0E9" rx="3" ry="1.5"/></g><g><ellipse cx="51.5" cy="41.25" fill="#AAF0E9" rx="2.5" ry="1.25"/></g><g><ellipse cx="66.5" cy="37" fill="#AAF0E9" rx="4.5" ry="2"/></g><g><ellipse cx="42" cy="48" fill="#AAF0E9" rx="2" ry="1"/></g></g></g><g id="R-Green" display="none"><circle cx="55" cy="55" r="55" fill="#77E0C4" display="inline"/><g display="inline"><g><path fill="#AAF0E9" d="M83,39L27,59v26c0,0.65,0.316,1.26,0.848,1.635c0.531,0.375,1.213,0.468,1.825,0.249L83,67.838V39 z"/></g><g><path fill="#FFF" d="M83,39L27,59l28-36C67.21,23,78.326,30.413,83,39z"/></g><g><circle cx="52" cy="70" r="1" fill="#55C9BE"/></g><g><circle cx="78" cy="46" r="1" fill="#55C9BE"/></g><g><circle cx="71" cy="55" r="4" fill="#55C9BE"/></g><g><circle cx="40" cy="58" r="1" fill="#55C9BE"/></g><g><path fill="#55C9BE" d="M44.6,78.831c-0.025,0.018-0.051,0.043-0.07,0.068c-0.721,0.955-0.637,1.928-0.158,2.601 l3.615-1.291C47.884,78.732,46.197,77.691,44.6,78.831z"/></g><g><circle cx="64" cy="65" r="2" fill="#55C9BE"/></g><g><circle cx="37" cy="69" r="2" fill="#55C9BE"/></g><g><ellipse cx="58" cy="30.5" fill="#AAF0E9" rx="3" ry="1.5"/></g><g><ellipse cx="51.5" cy="41.25" fill="#AAF0E9" rx="2.5" ry="1.25"/></g><g><ellipse cx="66.5" cy="37" fill="#AAF0E9" rx="4.5" ry="2"/></g><g><ellipse cx="42" cy="48" fill="#AAF0E9" rx="2" ry="1"/></g></g></g><g id="Red" display="none"><g display="inline"><g><path fill="#FFD7D4" d="M83,39L27,59v26c0,0.65,0.316,1.26,0.848,1.635c0.531,0.375,1.213,0.468,1.825,0.249L83,67.838V39 z"/></g><g><path fill="#FFF" d="M83,39L27,59l28-36C67.21,23,78.326,30.413,83,39z"/></g><g><circle cx="52" cy="70" r="1" fill="#E8A099"/></g><g><circle cx="78" cy="46" r="1" fill="#E8A099"/></g><g><circle cx="71" cy="55" r="4" fill="#E8A099"/></g><g><circle cx="40" cy="58" r="1" fill="#E8A099"/></g><g><path fill="#E8A099" d="M44.6,78.831c-0.025,0.018-0.051,0.043-0.07,0.068c-0.721,0.955-0.637,1.928-0.158,2.601 l3.615-1.291C47.884,78.732,46.197,77.691,44.6,78.831z"/></g><g><circle cx="64" cy="65" r="2" fill="#E8A099"/></g><g><circle cx="37" cy="69" r="2" fill="#E8A099"/></g><g><ellipse cx="58" cy="30.5" fill="#FFD7D4" rx="3" ry="1.5"/></g><g><ellipse cx="51.5" cy="41.25" fill="#FFD7D4" rx="2.5" ry="1.25"/></g><g><ellipse cx="66.5" cy="37" fill="#FFD7D4" rx="4.5" ry="2"/></g><g><ellipse cx="42" cy="48" fill="#FFD7D4" rx="2" ry="1"/></g></g></g><g id="R-Red" display="none"><circle cx="55" cy="55" r="55" fill="#FABBAF" display="inline"/><g display="inline"><g><path fill="#FFD7D4" d="M83,39L27,59v26c0,0.65,0.316,1.26,0.848,1.635c0.531,0.375,1.213,0.468,1.825,0.249L83,67.838V39 z"/></g><g><path fill="#FFF" d="M83,39L27,59l28-36C67.21,23,78.326,30.413,83,39z"/></g><g><circle cx="52" cy="70" r="1" fill="#E8A099"/></g><g><circle cx="78" cy="46" r="1" fill="#E8A099"/></g><g><circle cx="71" cy="55" r="4" fill="#E8A099"/></g><g><circle cx="40" cy="58" r="1" fill="#E8A099"/></g><g><path fill="#E8A099" d="M44.6,78.831c-0.025,0.018-0.051,0.043-0.07,0.068c-0.721,0.955-0.637,1.928-0.158,2.601 l3.615-1.291C47.884,78.732,46.197,77.691,44.6,78.831z"/></g><g><circle cx="64" cy="65" r="2" fill="#E8A099"/></g><g><circle cx="37" cy="69" r="2" fill="#E8A099"/></g><g><ellipse cx="58" cy="30.5" fill="#FFD7D4" rx="3" ry="1.5"/></g><g><ellipse cx="51.5" cy="41.25" fill="#FFD7D4" rx="2.5" ry="1.25"/></g><g><ellipse cx="66.5" cy="37" fill="#FFD7D4" rx="4.5" ry="2"/></g><g><ellipse cx="42" cy="48" fill="#FFD7D4" rx="2" ry="1"/></g></g></g><g id="Yellow" display="none"><g display="inline"><g><path fill="#FFE9A1" d="M83,39L27,59v26c0,0.65,0.316,1.26,0.848,1.635c0.531,0.375,1.213,0.468,1.825,0.249L83,67.838V39 z"/></g><g><path fill="#FFF" d="M83,39L27,59l28-36C67.21,23,78.326,30.413,83,39z"/></g><g><circle cx="52" cy="70" r="1" fill="#F5C43D"/></g><g><circle cx="78" cy="46" r="1" fill="#F5C43D"/></g><g><circle cx="71" cy="55" r="4" fill="#F5C43D"/></g><g><circle cx="40" cy="58" r="1" fill="#F5C43D"/></g><g><path fill="#F5C43D" d="M44.6,78.831c-0.025,0.018-0.051,0.043-0.07,0.068c-0.721,0.955-0.637,1.928-0.158,2.601 l3.615-1.291C47.884,78.732,46.197,77.691,44.6,78.831z"/></g><g><circle cx="64" cy="65" r="2" fill="#F5C43D"/></g><g><circle cx="37" cy="69" r="2" fill="#F5C43D"/></g><g><ellipse cx="58" cy="30.5" fill="#FFE9A1" rx="3" ry="1.5"/></g><g><ellipse cx="51.5" cy="41.25" fill="#FFE9A1" rx="2.5" ry="1.25"/></g><g><ellipse cx="66.5" cy="37" fill="#FFE9A1" rx="4.5" ry="2"/></g><g><ellipse cx="42" cy="48" fill="#FFE9A1" rx="2" ry="1"/></g></g></g><g id="R-Yellow" display="none"><circle cx="55" cy="55" r="55" fill="#FFD75E" display="inline"/><g display="inline"><g><path fill="#FFE9A1" d="M83,39L27,59v26c0,0.65,0.316,1.26,0.848,1.635c0.531,0.375,1.213,0.468,1.825,0.249L83,67.838V39 z"/></g><g><path fill="#FFF" d="M83,39L27,59l28-36C67.21,23,78.326,30.413,83,39z"/></g><g><circle cx="52" cy="70" r="1" fill="#F5C43D"/></g><g><circle cx="78" cy="46" r="1" fill="#F5C43D"/></g><g><circle cx="71" cy="55" r="4" fill="#F5C43D"/></g><g><circle cx="40" cy="58" r="1" fill="#F5C43D"/></g><g><path fill="#F5C43D" d="M44.6,78.831c-0.025,0.018-0.051,0.043-0.07,0.068c-0.721,0.955-0.637,1.928-0.158,2.601 l3.615-1.291C47.884,78.732,46.197,77.691,44.6,78.831z"/></g><g><circle cx="64" cy="65" r="2" fill="#F5C43D"/></g><g><circle cx="37" cy="69" r="2" fill="#F5C43D"/></g><g><ellipse cx="58" cy="30.5" fill="#FFE9A1" rx="3" ry="1.5"/></g><g><ellipse cx="51.5" cy="41.25" fill="#FFE9A1" rx="2.5" ry="1.25"/></g><g><ellipse cx="66.5" cy="37" fill="#FFE9A1" rx="4.5" ry="2"/></g><g><ellipse cx="42" cy="48" fill="#FFE9A1" rx="2" ry="1"/></g></g></g></svg>