<svg xmlns="http://www.w3.org/2000/svg" xmlns:xlink="http://www.w3.org/1999/xlink" width="110" height="110" x="0" y="0" enable-background="new 0 0 110 110" version="1.0" viewBox="0 0 110 110" xml:space="preserve"><g id="Artboard" display="none"><rect width="1326" height="332" x="-1192.5" y="-164.5" fill="gray" stroke="#000" stroke-miterlimit="10" display="inline"/></g><g id="R-Multicolor" display="none"><circle cx="55" cy="55" r="55" fill="#25B7D3" display="inline"/><g display="inline"><g><path fill="#84462D" d="M23,27c0-2.209,1.791-4,4-4h56c2.209,0,4,1.791,4,4v56c0,2.209-1.791,4-4,4H27 c-2.209,0-4-1.791-4-4V27z"/></g><g><rect width="56" height="56" x="27" y="27" fill="#FFF"/></g><g><rect width="14" height="14" x="27" y="69" fill="#3E3E3F"/></g><g><rect width="14" height="14" x="41" y="55" fill="#3E3E3F"/></g><g><rect width="14" height="14" x="55" y="41" fill="#3E3E3F"/></g><g><rect width="14" height="14" x="55" y="69" fill="#3E3E3F"/></g><g><rect width="14" height="14" x="69" y="27" fill="#3E3E3F"/></g><g><rect width="14" height="14" x="41" y="27" fill="#5B5C5F"/></g><g><polygon fill="#3E3E3F" points="55 41 41 41 55 27"/></g><g><rect width="14" height="14" x="27" y="41" fill="#5B5C5F"/></g><g><polygon fill="#3E3E3F" points="41 55 27 55 41 41"/></g><g><rect width="14" height="14" x="69" y="55" fill="#3E3E3F"/></g><g><circle cx="48" cy="62" r="4" fill="#FFF"/></g><g><circle cx="76" cy="62" r="4" fill="#FFF"/></g><g><circle cx="62" cy="76" r="4" fill="#FFF"/></g><g><circle cx="34" cy="76" r="4" fill="#FFF"/></g></g></g><g id="Multicolor"><g><g><path fill="#84462D" d="M23,27c0-2.209,1.791-4,4-4h56c2.209,0,4,1.791,4,4v56c0,2.209-1.791,4-4,4H27 c-2.209,0-4-1.791-4-4V27z"/></g><g><rect width="56" height="56" x="27" y="27" fill="#FFF"/></g><g><rect width="14" height="14" x="27" y="69" fill="#3E3E3F"/></g><g><rect width="14" height="14" x="41" y="55" fill="#3E3E3F"/></g><g><rect width="14" height="14" x="55" y="41" fill="#3E3E3F"/></g><g><rect width="14" height="14" x="55" y="69" fill="#3E3E3F"/></g><g><rect width="14" height="14" x="69" y="27" fill="#3E3E3F"/></g><g><rect width="14" height="14" x="41" y="27" fill="#5B5C5F"/></g><g><polygon fill="#3E3E3F" points="55 41 41 41 55 27"/></g><g><rect width="14" height="14" x="27" y="41" fill="#5B5C5F"/></g><g><polygon fill="#3E3E3F" points="41 55 27 55 41 41"/></g><g><rect width="14" height="14" x="69" y="55" fill="#3E3E3F"/></g><g><circle cx="48" cy="62" r="4" fill="#FFF"/></g><g><circle cx="76" cy="62" r="4" fill="#FFF"/></g><g><circle cx="62" cy="76" r="4" fill="#FFF"/></g><g><circle cx="34" cy="76" r="4" fill="#FFF"/></g></g></g><g id="Blue" display="none"><g display="inline"><g><path fill="#0F6175" d="M23,27c0-2.209,1.791-4,4-4h56c2.209,0,4,1.791,4,4v56c0,2.209-1.791,4-4,4H27 c-2.209,0-4-1.791-4-4V27z"/></g><g><rect width="56" height="56" x="27" y="27" fill="#FFF"/></g><g><rect width="14" height="14" x="27" y="69" fill="#0C333D"/></g><g><rect width="14" height="14" x="41" y="55" fill="#0C333D"/></g><g><rect width="14" height="14" x="55" y="41" fill="#0C333D"/></g><g><rect width="14" height="14" x="55" y="69" fill="#0C333D"/></g><g><rect width="14" height="14" x="69" y="27" fill="#0C333D"/></g><g><rect width="14" height="14" x="41" y="27" fill="#0F6175"/></g><g><polygon fill="#0C333D" points="55 41 41 41 55 27"/></g><g><rect width="14" height="14" x="27" y="41" fill="#0F6175"/></g><g><polygon fill="#0C333D" points="41 55 27 55 41 41"/></g><g><rect width="14" height="14" x="69" y="55" fill="#0C333D"/></g><g><circle cx="48" cy="62" r="4" fill="#FFF"/></g><g><circle cx="76" cy="62" r="4" fill="#FFF"/></g><g><circle cx="62" cy="76" r="4" fill="#FFF"/></g><g><circle cx="34" cy="76" r="4" fill="#FFF"/></g></g></g><g id="R-Blue" display="none"><circle cx="55" cy="55" r="55" fill="#81D2EB" display="inline"/><g display="inline"><g><path fill="#0F6175" d="M23,27c0-2.209,1.791-4,4-4h56c2.209,0,4,1.791,4,4v56c0,2.209-1.791,4-4,4H27 c-2.209,0-4-1.791-4-4V27z"/></g><g><rect width="56" height="56" x="27" y="27" fill="#FFF"/></g><g><rect width="14" height="14" x="27" y="69" fill="#0C333D"/></g><g><rect width="14" height="14" x="41" y="55" fill="#0C333D"/></g><g><rect width="14" height="14" x="55" y="41" fill="#0C333D"/></g><g><rect width="14" height="14" x="55" y="69" fill="#0C333D"/></g><g><rect width="14" height="14" x="69" y="27" fill="#0C333D"/></g><g><rect width="14" height="14" x="41" y="27" fill="#0F6175"/></g><g><polygon fill="#0C333D" points="55 41 41 41 55 27"/></g><g><rect width="14" height="14" x="27" y="41" fill="#0F6175"/></g><g><polygon fill="#0C333D" points="41 55 27 55 41 41"/></g><g><rect width="14" height="14" x="69" y="55" fill="#0C333D"/></g><g><circle cx="48" cy="62" r="4" fill="#FFF"/></g><g><circle cx="76" cy="62" r="4" fill="#FFF"/></g><g><circle cx="62" cy="76" r="4" fill="#FFF"/></g><g><circle cx="34" cy="76" r="4" fill="#FFF"/></g></g></g><g id="Green" display="none"><g display="inline"><g><path fill="#14635B" d="M23,27c0-2.209,1.791-4,4-4h56c2.209,0,4,1.791,4,4v56c0,2.209-1.791,4-4,4H27 c-2.209,0-4-1.791-4-4V27z"/></g><g><rect width="56" height="56" x="27" y="27" fill="#FFF"/></g><g><rect width="14" height="14" x="27" y="69" fill="#0A3631"/></g><g><rect width="14" height="14" x="41" y="55" fill="#0A3631"/></g><g><rect width="14" height="14" x="55" y="41" fill="#0A3631"/></g><g><rect width="14" height="14" x="55" y="69" fill="#0A3631"/></g><g><rect width="14" height="14" x="69" y="27" fill="#0A3631"/></g><g><rect width="14" height="14" x="41" y="27" fill="#14635B"/></g><g><polygon fill="#0A3631" points="55 41 41 41 55 27"/></g><g><rect width="14" height="14" x="27" y="41" fill="#14635B"/></g><g><polygon fill="#0A3631" points="41 55 27 55 41 41"/></g><g><rect width="14" height="14" x="69" y="55" fill="#0A3631"/></g><g><circle cx="48" cy="62" r="4" fill="#FFF"/></g><g><circle cx="76" cy="62" r="4" fill="#FFF"/></g><g><circle cx="62" cy="76" r="4" fill="#FFF"/></g><g><circle cx="34" cy="76" r="4" fill="#FFF"/></g></g></g><g id="R-Green" display="none"><circle cx="55" cy="55" r="55" fill="#77E0C4" display="inline"/><g display="inline"><g><path fill="#14635B" d="M23,27c0-2.209,1.791-4,4-4h56c2.209,0,4,1.791,4,4v56c0,2.209-1.791,4-4,4H27 c-2.209,0-4-1.791-4-4V27z"/></g><g><rect width="56" height="56" x="27" y="27" fill="#FFF"/></g><g><rect width="14" height="14" x="27" y="69" fill="#0A3631"/></g><g><rect width="14" height="14" x="41" y="55" fill="#0A3631"/></g><g><rect width="14" height="14" x="55" y="41" fill="#0A3631"/></g><g><rect width="14" height="14" x="55" y="69" fill="#0A3631"/></g><g><rect width="14" height="14" x="69" y="27" fill="#0A3631"/></g><g><rect width="14" height="14" x="41" y="27" fill="#14635B"/></g><g><polygon fill="#0A3631" points="55 41 41 41 55 27"/></g><g><rect width="14" height="14" x="27" y="41" fill="#14635B"/></g><g><polygon fill="#0A3631" points="41 55 27 55 41 41"/></g><g><rect width="14" height="14" x="69" y="55" fill="#0A3631"/></g><g><circle cx="48" cy="62" r="4" fill="#FFF"/></g><g><circle cx="76" cy="62" r="4" fill="#FFF"/></g><g><circle cx="62" cy="76" r="4" fill="#FFF"/></g><g><circle cx="34" cy="76" r="4" fill="#FFF"/></g></g></g><g id="Red" display="none"><g display="inline"><g><path fill="#7D261E" d="M23,27c0-2.209,1.791-4,4-4h56c2.209,0,4,1.791,4,4v56c0,2.209-1.791,4-4,4H27 c-2.209,0-4-1.791-4-4V27z"/></g><g><rect width="56" height="56" x="27" y="27" fill="#FFF"/></g><g><rect width="14" height="14" x="27" y="69" fill="#4A1410"/></g><g><rect width="14" height="14" x="41" y="55" fill="#4A1410"/></g><g><rect width="14" height="14" x="55" y="41" fill="#4A1410"/></g><g><rect width="14" height="14" x="55" y="69" fill="#4A1410"/></g><g><rect width="14" height="14" x="69" y="27" fill="#4A1410"/></g><g><rect width="14" height="14" x="41" y="27" fill="#7D261E"/></g><g><polygon fill="#4A1410" points="55 41 41 41 55 27"/></g><g><rect width="14" height="14" x="27" y="41" fill="#7D261E"/></g><g><polygon fill="#4A1410" points="41 55 27 55 41 41"/></g><g><rect width="14" height="14" x="69" y="55" fill="#4A1410"/></g><g><circle cx="48" cy="62" r="4" fill="#FFF"/></g><g><circle cx="76" cy="62" r="4" fill="#FFF"/></g><g><circle cx="62" cy="76" r="4" fill="#FFF"/></g><g><circle cx="34" cy="76" r="4" fill="#FFF"/></g></g></g><g id="R-Red" display="none"><circle cx="55" cy="55" r="55" fill="#FABBAF" display="inline"/><g display="inline"><g><path fill="#7D261E" d="M23,27c0-2.209,1.791-4,4-4h56c2.209,0,4,1.791,4,4v56c0,2.209-1.791,4-4,4H27 c-2.209,0-4-1.791-4-4V27z"/></g><g><rect width="56" height="56" x="27" y="27" fill="#FFF"/></g><g><rect width="14" height="14" x="27" y="69" fill="#4A1410"/></g><g><rect width="14" height="14" x="41" y="55" fill="#4A1410"/></g><g><rect width="14" height="14" x="55" y="41" fill="#4A1410"/></g><g><rect width="14" height="14" x="55" y="69" fill="#4A1410"/></g><g><rect width="14" height="14" x="69" y="27" fill="#4A1410"/></g><g><rect width="14" height="14" x="41" y="27" fill="#7D261E"/></g><g><polygon fill="#4A1410" points="55 41 41 41 55 27"/></g><g><rect width="14" height="14" x="27" y="41" fill="#7D261E"/></g><g><polygon fill="#4A1410" points="41 55 27 55 41 41"/></g><g><rect width="14" height="14" x="69" y="55" fill="#4A1410"/></g><g><circle cx="48" cy="62" r="4" fill="#FFF"/></g><g><circle cx="76" cy="62" r="4" fill="#FFF"/></g><g><circle cx="62" cy="76" r="4" fill="#FFF"/></g><g><circle cx="34" cy="76" r="4" fill="#FFF"/></g></g></g><g id="Yellow" display="none"><g display="inline"><g><path fill="#66510D" d="M23,27c0-2.209,1.791-4,4-4h56c2.209,0,4,1.791,4,4v56c0,2.209-1.791,4-4,4H27 c-2.209,0-4-1.791-4-4V27z"/></g><g><rect width="56" height="56" x="27" y="27" fill="#FFF"/></g><g><rect width="14" height="14" x="27" y="69" fill="#3D320C"/></g><g><rect width="14" height="14" x="41" y="55" fill="#3D320C"/></g><g><rect width="14" height="14" x="55" y="41" fill="#3D320C"/></g><g><rect width="14" height="14" x="55" y="69" fill="#3D320C"/></g><g><rect width="14" height="14" x="69" y="27" fill="#3D320C"/></g><g><rect width="14" height="14" x="41" y="27" fill="#66510D"/></g><g><polygon fill="#3D320C" points="55 41 41 41 55 27"/></g><g><rect width="14" height="14" x="27" y="41" fill="#66510D"/></g><g><polygon fill="#3D320C" points="41 55 27 55 41 41"/></g><g><rect width="14" height="14" x="69" y="55" fill="#3D320C"/></g><g><circle cx="48" cy="62" r="4" fill="#FFF"/></g><g><circle cx="76" cy="62" r="4" fill="#FFF"/></g><g><circle cx="62" cy="76" r="4" fill="#FFF"/></g><g><circle cx="34" cy="76" r="4" fill="#FFF"/></g></g></g><g id="R-Yellow" display="none"><circle cx="55" cy="55" r="55" fill="#FFD75E" display="inline"/><g display="inline"><g><path fill="#66510D" d="M23,27c0-2.209,1.791-4,4-4h56c2.209,0,4,1.791,4,4v56c0,2.209-1.791,4-4,4H27 c-2.209,0-4-1.791-4-4V27z"/></g><g><rect width="56" height="56" x="27" y="27" fill="#FFF"/></g><g><rect width="14" height="14" x="27" y="69" fill="#3D320C"/></g><g><rect width="14" height="14" x="41" y="55" fill="#3D320C"/></g><g><rect width="14" height="14" x="55" y="41" fill="#3D320C"/></g><g><rect width="14" height="14" x="55" y="69" fill="#3D320C"/></g><g><rect width="14" height="14" x="69" y="27" fill="#3D320C"/></g><g><rect width="14" height="14" x="41" y="27" fill="#66510D"/></g><g><polygon fill="#3D320C" points="55 41 41 41 55 27"/></g><g><rect width="14" height="14" x="27" y="41" fill="#66510D"/></g><g><polygon fill="#3D320C" points="41 55 27 55 41 41"/></g><g><rect width="14" height="14" x="69" y="55" fill="#3D320C"/></g><g><circle cx="48" cy="62" r="4" fill="#FFF"/></g><g><circle cx="76" cy="62" r="4" fill="#FFF"/></g><g><circle cx="62" cy="76" r="4" fill="#FFF"/></g><g><circle cx="34" cy="76" r="4" fill="#FFF"/></g></g></g></svg>