<svg xmlns="http://www.w3.org/2000/svg" xmlns:xlink="http://www.w3.org/1999/xlink" width="110" height="110" x="0" y="0" enable-background="new 0 0 110 110" version="1.0" viewBox="0 0 110 110" xml:space="preserve"><g id="Artboard" display="none"><rect width="1347" height="333" x="-186" y="-173" fill="gray" display="inline"/></g><g id="R-Multicolor" display="none"><circle cx="55" cy="55" r="55" fill="#E04F5F" display="inline"/><g display="inline"><path fill="#84462D" d="M81,34c0-1.105-0.895-2-2-2H31c-1.105,0-2,0.895-2,2v51c0,1.105,0.895,2,2,2h48 c1.105,0,2-0.895,2-2V34z"/><rect width="44" height="47" x="33" y="36" fill="#FFF"/><path fill="#FACB1B" d="M65,29h-4c0-3.313-2.687-6-6-6s-6,2.687-6,6h-4c-1.104,0-2,0.896-2,2v8c0,1.104,0.896,2,2,2h20 c1.105,0,2-0.896,2-2v-8C67,29.896,66.104,29,65,29z M55,25c1.104,0,2,0.896,2,2s-0.896,2-2,2s-2-0.896-2-2S53.896,25,55,25z"/><g><path fill="#DF2C2C" d="M59.571,78.5c-3.309,0-6-2.692-6-6s2.691-6,6-6s6,2.692,6,6S62.88,78.5,59.571,78.5z M59.571,69.5 c-1.654,0-3,1.346-3,3s1.346,3,3,3s3-1.346,3-3S61.226,69.5,59.571,69.5z"/></g><polygon fill="#5B5C5F" points="72.142 53.743 70.328 51.929 67.607 54.65 64.885 51.929 63.071 53.743 65.792 56.464 63.071 59.186 64.885 61 67.607 58.279 70.328 61 72.142 59.186 69.421 56.464"/><polygon fill="#5B5C5F" points="48.071 47.814 46.257 46 43.536 48.721 40.743 45.929 38.929 47.743 41.721 50.536 39 53.257 40.814 55.071 43.536 52.35 46.186 55 48 53.186 45.35 50.536"/><path fill="#DF2C2C" d="M59.167,52l-8.096,0.947l2.231,2.348C50.264,57.099,42.571,62.864,42.571,75 c0,0.828,0.671,1.5,1.5,1.5s1.5-0.672,1.5-1.5c0-11.708,8.142-16.568,9.862-17.463l2.376,2.5L59.167,52z"/><path fill="#FBE158" d="M65,29h-4c0-3.313-2.687-6-6-6s-6,2.687-6,6h-4c-1.104,0-2,0.896-2,2v4h24v-4 C67,29.896,66.104,29,65,29z M55,29c-1.104,0-2-0.896-2-2s0.896-2,2-2s2,0.896,2,2S56.104,29,55,29z"/></g></g><g id="Multicolor_1_"><g><path fill="#84462D" d="M81,34c0-1.105-0.895-2-2-2H31c-1.105,0-2,0.895-2,2v51c0,1.105,0.895,2,2,2h48 c1.105,0,2-0.895,2-2V34z"/><rect width="44" height="47" x="33" y="36" fill="#FFF"/><path fill="#FACB1B" d="M65,29h-4c0-3.313-2.687-6-6-6s-6,2.687-6,6h-4c-1.104,0-2,0.896-2,2v8c0,1.104,0.896,2,2,2h20 c1.105,0,2-0.896,2-2v-8C67,29.896,66.104,29,65,29z M55,25c1.104,0,2,0.896,2,2s-0.896,2-2,2s-2-0.896-2-2S53.896,25,55,25z"/><g><path fill="#DF2C2C" d="M59.571,78.5c-3.309,0-6-2.692-6-6s2.691-6,6-6s6,2.692,6,6S62.88,78.5,59.571,78.5z M59.571,69.5 c-1.654,0-3,1.346-3,3s1.346,3,3,3s3-1.346,3-3S61.226,69.5,59.571,69.5z"/></g><polygon fill="#5B5C5F" points="72.142 53.743 70.328 51.929 67.607 54.65 64.885 51.929 63.071 53.743 65.792 56.464 63.071 59.186 64.885 61 67.607 58.279 70.328 61 72.142 59.186 69.421 56.464"/><polygon fill="#5B5C5F" points="48.071 47.814 46.257 46 43.536 48.721 40.743 45.929 38.929 47.743 41.721 50.536 39 53.257 40.814 55.071 43.536 52.35 46.186 55 48 53.186 45.35 50.536"/><path fill="#DF2C2C" d="M59.167,52l-8.096,0.947l2.231,2.348C50.264,57.099,42.571,62.864,42.571,75 c0,0.828,0.671,1.5,1.5,1.5s1.5-0.672,1.5-1.5c0-11.708,8.142-16.568,9.862-17.463l2.376,2.5L59.167,52z"/><path fill="#FBE158" d="M65,29h-4c0-3.313-2.687-6-6-6s-6,2.687-6,6h-4c-1.104,0-2,0.896-2,2v4h24v-4 C67,29.896,66.104,29,65,29z M55,29c-1.104,0-2-0.896-2-2s0.896-2,2-2s2,0.896,2,2S56.104,29,55,29z"/></g></g><g id="Blue" display="none"><g display="inline"><g><path fill="#0F6175" d="M81,34c0-1.104-0.896-2-2-2H31c-1.104,0-2,0.896-2,2v51c0,1.104,0.896,2,2,2h48 c1.104,0,2-0.896,2-2V34z"/></g><g><rect width="44" height="47" x="33" y="36" fill="#FFF"/></g><g><path fill="#BBE7F2" d="M65,29h-4c0-3.313-2.687-6-6-6s-6,2.687-6,6h-4c-1.104,0-2,0.896-2,2v8c0,1.104,0.896,2,2,2h20 c1.104,0,2-0.896,2-2v-8C67,29.896,66.104,29,65,29z M55,25c1.104,0,2,0.896,2,2s-0.896,2-2,2s-2-0.896-2-2S53.895,25,55,25z"/></g><g><g><path fill="#0081A1" d="M59.571,78.5c-3.309,0-6-2.691-6-6c0-3.308,2.691-6,6-6s6,2.692,6,6 C65.571,75.809,62.88,78.5,59.571,78.5z M59.571,69.5c-1.654,0-3,1.346-3,3c0,1.654,1.346,3,3,3s3-1.346,3-3 C62.571,70.846,61.226,69.5,59.571,69.5z"/></g></g><g><polygon fill="#00B7E5" points="72.142 53.743 70.328 51.929 67.606 54.65 64.885 51.929 63.071 53.743 65.792 56.465 63.071 59.186 64.885 61 67.606 58.279 70.328 61 72.142 59.186 69.421 56.465"/></g><g><polygon fill="#3BC8EB" points="48.071 47.815 46.257 46 43.535 48.721 40.743 45.929 38.929 47.743 41.721 50.536 39 53.257 40.814 55.071 43.535 52.35 46.185 55 48 53.186 45.35 50.536"/></g><g><path fill="#0C333D" d="M59.167,52l-8.096,0.947l2.231,2.348C50.264,57.099,42.571,62.864,42.571,75 c0,0.828,0.671,1.5,1.5,1.5c0.829,0,1.5-0.672,1.5-1.5c0-11.708,8.142-16.568,9.861-17.463l2.376,2.501L59.167,52z"/></g><g><path fill="#E1F5FA" d="M65,29h-4c0-3.313-2.687-6-6-6s-6,2.687-6,6h-4c-1.104,0-2,0.896-2,2v4h24v-4 C67,29.896,66.104,29,65,29z M55,29c-1.104,0-2-0.896-2-2s0.896-2,2-2s2,0.896,2,2S56.104,29,55,29z"/></g></g></g><g id="R-Blue" display="none"><g display="inline"><circle cx="55" cy="55" r="55" fill="#81D2EB"/></g><g display="inline"><g><path fill="#0F6175" d="M81,34c0-1.104-0.896-2-2-2H31c-1.104,0-2,0.896-2,2v51c0,1.104,0.896,2,2,2h48 c1.104,0,2-0.896,2-2V34z"/></g><g><rect width="44" height="47" x="33" y="36" fill="#FFF"/></g><g><path fill="#BBE7F2" d="M65,29h-4c0-3.313-2.687-6-6-6s-6,2.687-6,6h-4c-1.104,0-2,0.896-2,2v8c0,1.104,0.896,2,2,2h20 c1.104,0,2-0.896,2-2v-8C67,29.896,66.104,29,65,29z M55,25c1.104,0,2,0.896,2,2s-0.896,2-2,2s-2-0.896-2-2S53.895,25,55,25z"/></g><g><g><path fill="#0081A1" d="M59.571,78.5c-3.309,0-6-2.691-6-6c0-3.308,2.691-6,6-6s6,2.692,6,6 C65.571,75.809,62.88,78.5,59.571,78.5z M59.571,69.5c-1.654,0-3,1.346-3,3c0,1.654,1.346,3,3,3s3-1.346,3-3 C62.571,70.846,61.226,69.5,59.571,69.5z"/></g></g><g><polygon fill="#00B7E5" points="72.142 53.743 70.328 51.929 67.606 54.65 64.885 51.929 63.071 53.743 65.792 56.465 63.071 59.186 64.885 61 67.606 58.279 70.328 61 72.142 59.186 69.421 56.465"/></g><g><polygon fill="#3BC8EB" points="48.071 47.815 46.257 46 43.535 48.721 40.743 45.929 38.929 47.743 41.721 50.536 39 53.257 40.814 55.071 43.535 52.35 46.185 55 48 53.186 45.35 50.536"/></g><g><path fill="#0C333D" d="M59.167,52l-8.096,0.947l2.231,2.348C50.264,57.099,42.571,62.864,42.571,75 c0,0.828,0.671,1.5,1.5,1.5c0.829,0,1.5-0.672,1.5-1.5c0-11.708,8.142-16.568,9.861-17.463l2.376,2.501L59.167,52z"/></g><g><path fill="#E1F5FA" d="M65,29h-4c0-3.313-2.687-6-6-6s-6,2.687-6,6h-4c-1.104,0-2,0.896-2,2v4h24v-4 C67,29.896,66.104,29,65,29z M55,29c-1.104,0-2-0.896-2-2s0.896-2,2-2s2,0.896,2,2S56.104,29,55,29z"/></g></g></g><g id="Green" display="none"><g display="inline"><g><path fill="#14635B" d="M81,34c0-1.104-0.896-2-2-2H31c-1.104,0-2,0.896-2,2v51c0,1.104,0.896,2,2,2h48 c1.104,0,2-0.896,2-2V34z"/></g><g><rect width="44" height="47" x="33" y="36" fill="#FFF"/></g><g><path fill="#AAF0E9" d="M65,29h-4c0-3.313-2.687-6-6-6s-6,2.687-6,6h-4c-1.104,0-2,0.896-2,2v8c0,1.104,0.896,2,2,2h20 c1.104,0,2-0.896,2-2v-8C67,29.896,66.104,29,65,29z M55,25c1.104,0,2,0.896,2,2s-0.896,2-2,2s-2-0.896-2-2S53.896,25,55,25z"/></g><g><g><path fill="#009687" d="M59.571,78.5c-3.309,0-6-2.691-6-6c0-3.308,2.691-6,6-6s6,2.692,6,6 C65.571,75.809,62.88,78.5,59.571,78.5z M59.571,69.5c-1.654,0-3,1.346-3,3c0,1.654,1.346,3,3,3s3-1.346,3-3 C62.571,70.846,61.226,69.5,59.571,69.5z"/></g></g><g><polygon fill="#00D6C1" points="72.142 53.743 70.328 51.929 67.606 54.65 64.885 51.929 63.071 53.743 65.793 56.465 63.071 59.186 64.885 61 67.606 58.279 70.328 61 72.142 59.186 69.421 56.465"/></g><g><polygon fill="#3BE0CF" points="48.071 47.815 46.257 46 43.535 48.721 40.743 45.929 38.929 47.743 41.721 50.536 39 53.257 40.815 55.071 43.535 52.35 46.186 55 48 53.186 45.35 50.536"/></g><g><path fill="#0A3631" d="M59.167,52l-8.096,0.947l2.231,2.348C50.264,57.099,42.571,62.864,42.571,75 c0,0.828,0.671,1.5,1.5,1.5c0.829,0,1.5-0.672,1.5-1.5c0-11.708,8.142-16.568,9.861-17.463l2.376,2.501L59.167,52z"/></g><g><path fill="#D7FCF9" d="M65,29h-4c0-3.313-2.687-6-6-6s-6,2.687-6,6h-4c-1.104,0-2,0.896-2,2v4h24v-4 C67,29.896,66.104,29,65,29z M55,29c-1.104,0-2-0.896-2-2s0.896-2,2-2s2,0.896,2,2S56.104,29,55,29z"/></g></g></g><g id="R-Green" display="none"><g display="inline"><circle cx="55" cy="55" r="55" fill="#87E0C8"/></g><g display="inline"><g><path fill="#14635B" d="M81,34c0-1.104-0.896-2-2-2H31c-1.104,0-2,0.896-2,2v51c0,1.104,0.896,2,2,2h48 c1.104,0,2-0.896,2-2V34z"/></g><g><rect width="44" height="47" x="33" y="36" fill="#FFF"/></g><g><path fill="#AAF0E9" d="M65,29h-4c0-3.313-2.687-6-6-6s-6,2.687-6,6h-4c-1.104,0-2,0.896-2,2v8c0,1.104,0.896,2,2,2h20 c1.104,0,2-0.896,2-2v-8C67,29.896,66.104,29,65,29z M55,25c1.104,0,2,0.896,2,2s-0.896,2-2,2s-2-0.896-2-2S53.896,25,55,25z"/></g><g><g><path fill="#009687" d="M59.571,78.5c-3.309,0-6-2.691-6-6c0-3.308,2.691-6,6-6s6,2.692,6,6 C65.571,75.809,62.88,78.5,59.571,78.5z M59.571,69.5c-1.654,0-3,1.346-3,3c0,1.654,1.346,3,3,3s3-1.346,3-3 C62.571,70.846,61.226,69.5,59.571,69.5z"/></g></g><g><polygon fill="#00D6C1" points="72.142 53.743 70.328 51.929 67.606 54.65 64.885 51.929 63.071 53.743 65.793 56.465 63.071 59.186 64.885 61 67.606 58.279 70.328 61 72.142 59.186 69.421 56.465"/></g><g><polygon fill="#3BE0CF" points="48.071 47.815 46.257 46 43.535 48.721 40.743 45.929 38.929 47.743 41.721 50.536 39 53.257 40.815 55.071 43.535 52.35 46.186 55 48 53.186 45.35 50.536"/></g><g><path fill="#0A3631" d="M59.167,52l-8.096,0.947l2.231,2.348C50.264,57.099,42.571,62.864,42.571,75 c0,0.828,0.671,1.5,1.5,1.5c0.829,0,1.5-0.672,1.5-1.5c0-11.708,8.142-16.568,9.861-17.463l2.376,2.501L59.167,52z"/></g><g><path fill="#D7FCF9" d="M65,29h-4c0-3.313-2.687-6-6-6s-6,2.687-6,6h-4c-1.104,0-2,0.896-2,2v4h24v-4 C67,29.896,66.104,29,65,29z M55,29c-1.104,0-2-0.896-2-2s0.896-2,2-2s2,0.896,2,2S56.104,29,55,29z"/></g></g></g><g id="Red" display="none"><g display="inline"><g><path fill="#7D261E" d="M81,34c0-1.104-0.896-2-2-2H31c-1.104,0-2,0.896-2,2v51c0,1.104,0.896,2,2,2h48 c1.104,0,2-0.896,2-2V34z"/></g><g><rect width="44" height="47" x="33" y="36" fill="#FFF"/></g><g><path fill="#FFD7D4" d="M65,29h-4c0-3.313-2.687-6-6-6s-6,2.687-6,6h-4c-1.104,0-2,0.896-2,2v8c0,1.104,0.896,2,2,2h20 c1.104,0,2-0.896,2-2v-8C67,29.896,66.104,29,65,29z M55,25c1.104,0,2,0.896,2,2s-0.896,2-2,2s-2-0.896-2-2S53.896,25,55,25z"/></g><g><g><path fill="#C23023" d="M59.571,78.5c-3.309,0-6-2.691-6-6c0-3.308,2.691-6,6-6s6,2.692,6,6 C65.571,75.809,62.88,78.5,59.571,78.5z M59.571,69.5c-1.654,0-3,1.346-3,3c0,1.654,1.346,3,3,3s3-1.346,3-3 C62.571,70.846,61.226,69.5,59.571,69.5z"/></g></g><g><polygon fill="#FF6C5E" points="72.142 53.743 70.328 51.929 67.606 54.65 64.885 51.929 63.071 53.743 65.793 56.465 63.071 59.186 64.885 61 67.606 58.279 70.328 61 72.142 59.186 69.421 56.465"/></g><g><polygon fill="#FF8E83" points="48.071 47.815 46.257 46 43.535 48.721 40.743 45.929 38.929 47.743 41.721 50.536 39 53.257 40.815 55.071 43.535 52.35 46.186 55 48 53.186 45.35 50.536"/></g><g><path fill="#4A1410" d="M59.167,52l-8.096,0.947l2.231,2.348C50.264,57.099,42.571,62.864,42.571,75 c0,0.828,0.671,1.5,1.5,1.5c0.829,0,1.5-0.672,1.5-1.5c0-11.708,8.142-16.568,9.861-17.463l2.376,2.501L59.167,52z"/></g><g><path fill="#FFEFED" d="M65,29h-4c0-3.313-2.687-6-6-6s-6,2.687-6,6h-4c-1.104,0-2,0.896-2,2v4h24v-4 C67,29.896,66.104,29,65,29z M55,29c-1.104,0-2-0.896-2-2s0.896-2,2-2s2,0.896,2,2S56.104,29,55,29z"/></g></g></g><g id="R-Red" display="none"><g display="inline"><circle cx="55" cy="55" r="55" fill="#FABBAF"/></g><g display="inline"><g><path fill="#7D261E" d="M81,34c0-1.104-0.896-2-2-2H31c-1.104,0-2,0.896-2,2v51c0,1.104,0.896,2,2,2h48 c1.104,0,2-0.896,2-2V34z"/></g><g><rect width="44" height="47" x="33" y="36" fill="#FFF"/></g><g><path fill="#FFD7D4" d="M65,29h-4c0-3.313-2.687-6-6-6s-6,2.687-6,6h-4c-1.104,0-2,0.896-2,2v8c0,1.104,0.896,2,2,2h20 c1.104,0,2-0.896,2-2v-8C67,29.896,66.104,29,65,29z M55,25c1.104,0,2,0.896,2,2s-0.896,2-2,2s-2-0.896-2-2S53.896,25,55,25z"/></g><g><g><path fill="#C23023" d="M59.571,78.5c-3.309,0-6-2.691-6-6c0-3.308,2.691-6,6-6c3.309,0,6,2.692,6,6 C65.571,75.809,62.88,78.5,59.571,78.5z M59.571,69.5c-1.654,0-3,1.346-3,3c0,1.654,1.346,3,3,3s3-1.346,3-3 C62.571,70.846,61.226,69.5,59.571,69.5z"/></g></g><g><polygon fill="#FF6C5E" points="72.142 53.743 70.328 51.929 67.606 54.65 64.885 51.929 63.071 53.743 65.793 56.465 63.071 59.186 64.885 61 67.606 58.279 70.328 61 72.142 59.186 69.421 56.465"/></g><g><polygon fill="#FF8E83" points="48.071 47.815 46.257 46 43.535 48.721 40.743 45.929 38.929 47.743 41.721 50.536 39 53.257 40.814 55.071 43.535 52.35 46.186 55 48 53.186 45.35 50.536"/></g><g><path fill="#4A1410" d="M59.167,52l-8.096,0.947l2.231,2.348C50.264,57.099,42.571,62.864,42.571,75 c0,0.828,0.671,1.5,1.5,1.5c0.829,0,1.5-0.672,1.5-1.5c0-11.708,8.142-16.568,9.861-17.463l2.377,2.501L59.167,52z"/></g><g><path fill="#FFEFED" d="M65,29h-4c0-3.313-2.687-6-6-6s-6,2.687-6,6h-4c-1.104,0-2,0.896-2,2v4h24v-4 C67,29.896,66.104,29,65,29z M55,29c-1.104,0-2-0.896-2-2s0.896-2,2-2s2,0.896,2,2S56.104,29,55,29z"/></g></g></g><g id="Yellow" display="none"><g display="inline"><g><path fill="#66510D" d="M81,34c0-1.104-0.896-2-2-2H31c-1.104,0-2,0.896-2,2v51c0,1.104,0.896,2,2,2h48 c1.104,0,2-0.896,2-2V34z"/></g><g><rect width="44" height="47" x="33" y="36" fill="#FFF"/></g><g><path fill="#FFE9A1" d="M65,29h-4c0-3.313-2.687-6-6-6s-6,2.687-6,6h-4c-1.104,0-2,0.896-2,2v8c0,1.104,0.896,2,2,2h20 c1.104,0,2-0.896,2-2v-8C67,29.896,66.104,29,65,29z M55,25c1.104,0,2,0.896,2,2s-0.896,2-2,2s-2-0.896-2-2S53.896,25,55,25z"/></g><g><g><path fill="#E07000" d="M59.571,78.5c-3.309,0-6-2.691-6-6c0-3.308,2.691-6,6-6s6,2.692,6,6 C65.571,75.809,62.88,78.5,59.571,78.5z M59.571,69.5c-1.654,0-3,1.346-3,3c0,1.654,1.346,3,3,3s3-1.346,3-3 C62.571,70.846,61.226,69.5,59.571,69.5z"/></g></g><g><polygon fill="#FA0" points="72.142 53.743 70.328 51.929 67.606 54.65 64.885 51.929 63.071 53.743 65.793 56.465 63.071 59.186 64.885 61 67.606 58.279 70.328 61 72.142 59.186 69.421 56.465"/></g><g><polygon fill="#FFBE3B" points="48.071 47.815 46.257 46 43.535 48.721 40.743 45.929 38.929 47.743 41.721 50.536 39 53.257 40.814 55.071 43.535 52.35 46.186 55 48 53.186 45.35 50.536"/></g><g><path fill="#3D320C" d="M59.167,52l-8.096,0.947l2.231,2.348C50.264,57.099,42.571,62.864,42.571,75 c0,0.828,0.671,1.5,1.5,1.5c0.829,0,1.5-0.672,1.5-1.5c0-11.708,8.142-16.568,9.861-17.463l2.376,2.501L59.167,52z"/></g><g><path fill="#FFF5D9" d="M65,29h-4c0-3.313-2.687-6-6-6s-6,2.687-6,6h-4c-1.104,0-2,0.896-2,2v4h24v-4 C67,29.896,66.104,29,65,29z M55,29c-1.104,0-2-0.896-2-2s0.896-2,2-2s2,0.896,2,2S56.104,29,55,29z"/></g></g></g><g id="R-Yellow" display="none"><g display="inline"><circle cx="55" cy="55" r="55" fill="#FFD75E"/></g><g display="inline"><g><path fill="#66510D" d="M81,34c0-1.104-0.896-2-2-2H31c-1.104,0-2,0.896-2,2v51c0,1.104,0.896,2,2,2h48 c1.104,0,2-0.896,2-2V34z"/></g><g><rect width="44" height="47" x="33" y="36" fill="#FFF"/></g><g><path fill="#FFE9A1" d="M65,29h-4c0-3.313-2.687-6-6-6s-6,2.687-6,6h-4c-1.104,0-2,0.896-2,2v8c0,1.104,0.896,2,2,2h20 c1.104,0,2-0.896,2-2v-8C67,29.896,66.104,29,65,29z M55,25c1.104,0,2,0.896,2,2s-0.896,2-2,2s-2-0.896-2-2S53.895,25,55,25z"/></g><g><g><path fill="#E07000" d="M59.571,78.5c-3.309,0-6-2.691-6-6c0-3.308,2.691-6,6-6s6,2.692,6,6 C65.571,75.809,62.88,78.5,59.571,78.5z M59.571,69.5c-1.654,0-3,1.346-3,3c0,1.654,1.346,3,3,3s3-1.346,3-3 C62.571,70.846,61.226,69.5,59.571,69.5z"/></g></g><g><polygon fill="#FA0" points="72.142 53.743 70.328 51.929 67.606 54.65 64.885 51.929 63.071 53.743 65.792 56.465 63.071 59.186 64.885 61 67.606 58.279 70.328 61 72.142 59.186 69.421 56.465"/></g><g><polygon fill="#FFBE3B" points="48.071 47.815 46.257 46 43.535 48.721 40.743 45.929 38.929 47.743 41.721 50.536 39 53.257 40.814 55.071 43.535 52.35 46.185 55 48 53.186 45.35 50.536"/></g><g><path fill="#3D320C" d="M59.167,52l-8.096,0.947l2.231,2.348C50.264,57.099,42.571,62.864,42.571,75 c0,0.828,0.671,1.5,1.5,1.5c0.829,0,1.5-0.672,1.5-1.5c0-11.708,8.142-16.568,9.861-17.463l2.376,2.501L59.167,52z"/></g><g><path fill="#FFF5D9" d="M65,29h-4c0-3.313-2.687-6-6-6s-6,2.687-6,6h-4c-1.104,0-2,0.896-2,2v4h24v-4 C67,29.896,66.104,29,65,29z M55,29c-1.104,0-2-0.896-2-2s0.896-2,2-2s2,0.896,2,2S56.104,29,55,29z"/></g></g></g></svg>