<svg xmlns="http://www.w3.org/2000/svg" xmlns:xlink="http://www.w3.org/1999/xlink" width="110" height="110" x="0" y="0" enable-background="new 0 0 110 110" version="1.0" viewBox="0 0 110 110" xml:space="preserve"><g id="Artboard" display="none"><rect width="1376" height="359" x="-963" y="-178" fill="gray" display="inline"/></g><g id="R-Multicolor" display="none"><circle cx="55" cy="55" r="55" fill="#32BEA6" display="inline"/><g display="inline"><path fill="#EDBC7C" d="M83.879,79.879C83.316,79.316,82.553,79,81.757,79H28.243c-0.795,0-1.559,0.316-2.122,0.879L23,83 v4h64v-4L83.879,79.879z"/><path fill="#F8E1C2" d="M23,83l3.121-3.121C26.684,79.316,27.447,79,28.243,79h53.515c0.796,0,1.559,0.316,2.121,0.879 L87,83H23z"/><circle cx="31" cy="31" r="8" fill="#FACB1B"/><path fill="#107665" d="M76,35c-3.59,0-6,2.81-6,5.94v4.08c0,1.09-0.89,1.98-1.98,1.98h-0.04C66.89,47,66,46.11,66,45.02 V31c0-4.42-3.58-8-8-8s-8,3.58-8,8v22.02c0,1.09-0.89,1.98-1.98,1.98h-0.04C46.89,55,46,54.11,46,53.02v-4.08 c0-3.248-2.54-5.94-6-5.94c-3.427,0-6,2.658-6,5.94v10.21C34,71.17,50,66.83,50,79v4h16V71c0-12.17,16-7.83,16-19.85V40.94 C82,37.66,79.28,35,76,35z"/><path fill="#0D9681" d="M50,31v22.02c0,1.09-0.89,1.98-1.98,1.98h-0.04C46.89,55,46,54.11,46,53.02v-4.08 c0-3.248-2.54-5.94-6-5.94c-3.427,0-6,2.658-6,5.94v10.21C34,71.17,50,66.83,50,79v4h8V23C53.58,23,50,26.58,50,31z"/></g></g><g id="Multicolor"><g><path fill="#EDBC7C" d="M83.879,79.879C83.316,79.316,82.553,79,81.757,79H28.243c-0.795,0-1.559,0.316-2.122,0.879L23,83 v4h64v-4L83.879,79.879z"/><path fill="#F8E1C2" d="M23,83l3.121-3.121C26.684,79.316,27.447,79,28.243,79h53.515c0.796,0,1.559,0.316,2.121,0.879 L87,83H23z"/><circle cx="31" cy="31" r="8" fill="#FACB1B"/><path fill="#107665" d="M76,35c-3.59,0-6,2.81-6,5.94v4.08c0,1.09-0.89,1.98-1.98,1.98h-0.04C66.89,47,66,46.11,66,45.02 V31c0-4.42-3.58-8-8-8s-8,3.58-8,8v22.02c0,1.09-0.89,1.98-1.98,1.98h-0.04C46.89,55,46,54.11,46,53.02v-4.08 c0-3.248-2.54-5.94-6-5.94c-3.427,0-6,2.658-6,5.94v10.21C34,71.17,50,66.83,50,79v4h16V71c0-12.17,16-7.83,16-19.85V40.94 C82,37.66,79.28,35,76,35z"/><path fill="#0D9681" d="M50,31v22.02c0,1.09-0.89,1.98-1.98,1.98h-0.04C46.89,55,46,54.11,46,53.02v-4.08 c0-3.248-2.54-5.94-6-5.94c-3.427,0-6,2.658-6,5.94v10.21C34,71.17,50,66.83,50,79v4h8V23C53.58,23,50,26.58,50,31z"/></g></g><g id="Blue" display="none"><g display="inline"><g><path fill="#53BAD4" d="M83.879,79.879C83.316,79.316,82.553,79,81.757,79H28.243c-0.795,0-1.559,0.316-2.122,0.879L23,83 v4h64v-4L83.879,79.879z"/></g><g><path fill="#BBE7F2" d="M23,83l3.121-3.121C26.684,79.316,27.447,79,28.243,79h53.515c0.795,0,1.559,0.316,2.122,0.879 L87,83H23z"/></g><g><circle cx="31" cy="31" r="8" fill="#FFF"/></g><g><path fill="#0081A1" d="M76,35c-3.59,0-6,2.81-6,5.94v4.08c0,1.09-0.89,1.98-1.98,1.98h-0.04C66.89,47,66,46.11,66,45.02 V31c0-4.42-3.58-8-8-8s-8,3.58-8,8v22.02c0,1.09-0.89,1.98-1.98,1.98h-0.04C46.89,55,46,54.11,46,53.02v-4.08 c0-3.247-2.54-5.94-6-5.94c-3.427,0-6,2.658-6,5.94v10.21C34,71.17,50,66.83,50,79v4h16V71c0-12.17,16-7.83,16-19.85V40.94 C82,37.66,79.28,35,76,35z"/></g><g><path fill="#009FC7" d="M50,31v22.02c0,1.09-0.89,1.98-1.98,1.98h-0.04C46.89,55,46,54.11,46,53.02v-4.08 c0-3.247-2.54-5.94-6-5.94c-3.427,0-6,2.658-6,5.94v10.21C34,71.17,50,66.83,50,79v4h8V23C53.58,23,50,26.58,50,31z"/></g></g></g><g id="R-Blue" display="none"><g display="inline"><circle cx="55" cy="55" r="55" fill="#81D2EB"/></g><g display="inline"><g><path fill="#53BAD4" d="M83.879,79.879C83.316,79.316,82.553,79,81.757,79H28.243c-0.795,0-1.559,0.316-2.122,0.879L23,83 v4h64v-4L83.879,79.879z"/></g><g><path fill="#BBE7F2" d="M23,83l3.121-3.121C26.684,79.316,27.447,79,28.243,79h53.515c0.795,0,1.559,0.316,2.122,0.879 L87,83H23z"/></g><g><circle cx="31" cy="31" r="8" fill="#FFF"/></g><g><path fill="#0081A1" d="M76,35c-3.59,0-6,2.81-6,5.94v4.08c0,1.09-0.89,1.98-1.98,1.98h-0.04C66.89,47,66,46.11,66,45.02 V31c0-4.42-3.58-8-8-8s-8,3.58-8,8v22.02c0,1.09-0.89,1.98-1.98,1.98h-0.04C46.89,55,46,54.11,46,53.02v-4.08 c0-3.247-2.54-5.94-6-5.94c-3.427,0-6,2.658-6,5.94v10.21C34,71.17,50,66.83,50,79v4h16V71c0-12.17,16-7.83,16-19.85V40.94 C82,37.66,79.28,35,76,35z"/></g><g><path fill="#009FC7" d="M50,31v22.02c0,1.09-0.89,1.98-1.98,1.98h-0.04C46.89,55,46,54.11,46,53.02v-4.08 c0-3.247-2.54-5.94-6-5.94c-3.427,0-6,2.658-6,5.94v10.21C34,71.17,50,66.83,50,79v4h8V23C53.58,23,50,26.58,50,31z"/></g></g></g><g id="Green" display="none"><g display="inline"><g><path fill="#5DCFC3" d="M83.879,79.879C83.316,79.316,82.553,79,81.757,79H28.243c-0.795,0-1.559,0.316-2.122,0.879L23,83 v4h64v-4L83.879,79.879z"/></g><g><path fill="#AAF0E9" d="M23,83l3.121-3.121C26.684,79.316,27.447,79,28.243,79h53.515c0.795,0,1.559,0.316,2.122,0.879 L87,83H23z"/></g><g><circle cx="31" cy="31" r="8" fill="#FFF"/></g><g><path fill="#009687" d="M76,35c-3.59,0-6,2.81-6,5.94v4.08c0,1.09-0.89,1.98-1.98,1.98h-0.04C66.89,47,66,46.11,66,45.02 V31c0-4.42-3.58-8-8-8s-8,3.58-8,8v22.02c0,1.09-0.89,1.98-1.98,1.98h-0.04C46.89,55,46,54.11,46,53.02v-4.08 c0-3.247-2.54-5.94-6-5.94c-3.427,0-6,2.658-6,5.94v10.21C34,71.17,50,66.83,50,79v4h16V71c0-12.17,16-7.83,16-19.85V40.94 C82,37.66,79.28,35,76,35z"/></g><g><path fill="#00B8A5" d="M50,31v22.02c0,1.09-0.89,1.98-1.98,1.98h-0.04C46.89,55,46,54.11,46,53.02v-4.08 c0-3.247-2.54-5.94-6-5.94c-3.427,0-6,2.658-6,5.94v10.21C34,71.17,50,66.83,50,79v4h8V23C53.58,23,50,26.58,50,31z"/></g></g></g><g id="R-Green" display="none"><g display="inline"><circle cx="55" cy="55" r="55" fill="#87E0C8"/></g><g display="inline"><g><path fill="#5DCFC3" d="M83.879,79.879C83.316,79.316,82.553,79,81.757,79H28.243c-0.795,0-1.559,0.316-2.122,0.879L23,83 v4h64v-4L83.879,79.879z"/></g><g><path fill="#AAF0E9" d="M23,83l3.121-3.121C26.684,79.316,27.447,79,28.243,79h53.515c0.795,0,1.559,0.316,2.122,0.879 L87,83H23z"/></g><g><circle cx="31" cy="31" r="8" fill="#FFF"/></g><g><path fill="#009687" d="M76,35c-3.59,0-6,2.81-6,5.94v4.08c0,1.09-0.89,1.98-1.98,1.98h-0.04C66.89,47,66,46.11,66,45.02 V31c0-4.42-3.58-8-8-8s-8,3.58-8,8v22.02c0,1.09-0.89,1.98-1.98,1.98h-0.04C46.89,55,46,54.11,46,53.02v-4.08 c0-3.247-2.54-5.94-6-5.94c-3.427,0-6,2.658-6,5.94v10.21C34,71.17,50,66.83,50,79v4h16V71c0-12.17,16-7.83,16-19.85V40.94 C82,37.66,79.28,35,76,35z"/></g><g><path fill="#00B8A5" d="M50,31v22.02c0,1.09-0.89,1.98-1.98,1.98h-0.04C46.89,55,46,54.11,46,53.02v-4.08 c0-3.247-2.54-5.94-6-5.94c-3.427,0-6,2.658-6,5.94v10.21C34,71.17,50,66.83,50,79v4h8V23C53.58,23,50,26.58,50,31z"/></g></g></g><g id="Red" display="none"><g display="inline"><g><path fill="#E8A099" d="M83.879,79.879C83.316,79.316,82.553,79,81.757,79H28.243c-0.795,0-1.559,0.316-2.122,0.879L23,83 v4h64v-4L83.879,79.879z"/></g><g><path fill="#FFD7D4" d="M23,83l3.121-3.121C26.684,79.316,27.447,79,28.243,79h53.515c0.795,0,1.559,0.316,2.122,0.879 L87,83H23z"/></g><g><circle cx="31" cy="31" r="8" fill="#FFF"/></g><g><path fill="#C23023" d="M76,35c-3.59,0-6,2.81-6,5.94v4.08c0,1.09-0.89,1.98-1.98,1.98h-0.04C66.89,47,66,46.11,66,45.02 V31c0-4.42-3.58-8-8-8s-8,3.58-8,8v22.02c0,1.09-0.89,1.98-1.98,1.98h-0.04C46.89,55,46,54.11,46,53.02v-4.08 c0-3.247-2.54-5.94-6-5.94c-3.427,0-6,2.658-6,5.94v10.21C34,71.17,50,66.83,50,79v4h16V71c0-12.17,16-7.83,16-19.85V40.94 C82,37.66,79.28,35,76,35z"/></g><g><path fill="#E54B44" d="M50,31v22.02c0,1.09-0.89,1.98-1.98,1.98h-0.04C46.89,55,46,54.11,46,53.02v-4.08 c0-3.247-2.54-5.94-6-5.94c-3.427,0-6,2.658-6,5.94v10.21C34,71.17,50,66.83,50,79v4h8V23C53.58,23,50,26.58,50,31z"/></g></g></g><g id="R-Red" display="none"><g display="inline"><circle cx="55" cy="55" r="55" fill="#FABBAF"/></g><g display="inline"><g><path fill="#E8A099" d="M83.879,79.879C83.316,79.316,82.553,79,81.757,79H28.243c-0.795,0-1.559,0.316-2.122,0.879L23,83 v4h64v-4L83.879,79.879z"/></g><g><path fill="#FFD7D4" d="M23,83l3.121-3.121C26.684,79.316,27.447,79,28.243,79h53.515c0.795,0,1.559,0.316,2.122,0.879 L87,83H23z"/></g><g><circle cx="31" cy="31" r="8" fill="#FFF"/></g><g><path fill="#C23023" d="M76,35c-3.59,0-6,2.81-6,5.94v4.08c0,1.09-0.89,1.98-1.98,1.98h-0.04C66.89,47,66,46.11,66,45.02 V31c0-4.42-3.58-8-8-8s-8,3.58-8,8v22.02c0,1.09-0.89,1.98-1.98,1.98h-0.04C46.89,55,46,54.11,46,53.02v-4.08 c0-3.247-2.54-5.94-6-5.94c-3.427,0-6,2.658-6,5.94v10.21C34,71.17,50,66.83,50,79v4h16V71c0-12.17,16-7.83,16-19.85V40.94 C82,37.66,79.28,35,76,35z"/></g><g><path fill="#E54B44" d="M50,31v22.02c0,1.09-0.89,1.98-1.98,1.98h-0.04C46.89,55,46,54.11,46,53.02v-4.08 c0-3.247-2.54-5.94-6-5.94c-3.427,0-6,2.658-6,5.94v10.21C34,71.17,50,66.83,50,79v4h8V23C53.58,23,50,26.58,50,31z"/></g></g></g><g id="Yellow" display="none"><g display="inline"><g><path fill="#F5C43D" d="M83.879,79.879C83.316,79.316,82.553,79,81.757,79H28.243c-0.795,0-1.559,0.316-2.122,0.879L23,83 v4h64v-4L83.879,79.879z"/></g><g><path fill="#FFE9A1" d="M23,83l3.121-3.121C26.684,79.316,27.447,79,28.243,79h53.515c0.795,0,1.559,0.316,2.122,0.879 L87,83H23z"/></g><g><circle cx="31" cy="31" r="8" fill="#FFF"/></g><g><path fill="#E07000" d="M76,35c-3.59,0-6,2.81-6,5.94v4.08c0,1.09-0.89,1.98-1.98,1.98h-0.04C66.89,47,66,46.11,66,45.02 V31c0-4.42-3.58-8-8-8s-8,3.58-8,8v22.02c0,1.09-0.89,1.98-1.98,1.98h-0.04C46.89,55,46,54.11,46,53.02v-4.08 c0-3.247-2.54-5.94-6-5.94c-3.427,0-6,2.658-6,5.94v10.21C34,71.17,50,66.83,50,79v4h16V71c0-12.17,16-7.83,16-19.85V40.94 C82,37.66,79.28,35,76,35z"/></g><g><path fill="#FA9200" d="M50,31v22.02c0,1.09-0.89,1.98-1.98,1.98h-0.04C46.89,55,46,54.11,46,53.02v-4.08 c0-3.247-2.54-5.94-6-5.94c-3.427,0-6,2.658-6,5.94v10.21C34,71.17,50,66.83,50,79v4h8V23C53.58,23,50,26.58,50,31z"/></g></g></g><g id="R-Yellow" display="none"><g display="inline"><circle cx="55" cy="55" r="55" fill="#FFD75E"/></g><g display="inline"><g><path fill="#F5C43D" d="M83.879,79.879C83.316,79.316,82.553,79,81.757,79H28.243c-0.795,0-1.559,0.316-2.122,0.879L23,83 v4h64v-4L83.879,79.879z"/></g><g><path fill="#FFE9A1" d="M23,83l3.121-3.121C26.684,79.316,27.447,79,28.243,79h53.515c0.795,0,1.559,0.316,2.122,0.879 L87,83H23z"/></g><g><circle cx="31" cy="31" r="8" fill="#FFF"/></g><g><path fill="#E07000" d="M76,35c-3.59,0-6,2.81-6,5.94v4.08c0,1.09-0.89,1.98-1.98,1.98h-0.04C66.89,47,66,46.11,66,45.02 V31c0-4.42-3.58-8-8-8s-8,3.58-8,8v22.02c0,1.09-0.89,1.98-1.98,1.98h-0.04C46.89,55,46,54.11,46,53.02v-4.08 c0-3.247-2.54-5.94-6-5.94c-3.427,0-6,2.658-6,5.94v10.21C34,71.17,50,66.83,50,79v4h16V71c0-12.17,16-7.83,16-19.85V40.94 C82,37.66,79.28,35,76,35z"/></g><g><path fill="#FA9200" d="M50,31v22.02c0,1.09-0.89,1.98-1.98,1.98h-0.04C46.89,55,46,54.11,46,53.02v-4.08 c0-3.247-2.54-5.94-6-5.94c-3.427,0-6,2.658-6,5.94v10.21C34,71.17,50,66.83,50,79v4h8V23C53.58,23,50,26.58,50,31z"/></g></g></g></svg>