<svg xmlns="http://www.w3.org/2000/svg" xmlns:xlink="http://www.w3.org/1999/xlink" width="110" height="110" x="0" y="0" enable-background="new 0 0 110 110" version="1.0" viewBox="0 0 110 110" xml:space="preserve"><g id="Artboard" display="none"><rect width="1341" height="343" x="-424.5" y="-178.5" fill="gray" stroke="#000" stroke-miterlimit="10" display="inline"/></g><g id="R-Multicolor" display="none"><circle cx="55" cy="55" r="55" fill="#E04F5F" display="inline"/><g display="inline"><path fill="#F0F1F1" d="M87,85c0,1.105-0.895,2-2,2H41c-1.105,0-2-0.895-2-2V41c0-1.105,0.895-2,2-2h44 c1.105,0,2,0.895,2,2V85z"/><rect width="40" height="32" x="43" y="43" fill="#40C9E7"/><path fill="#FFF" d="M71,69c0,1.105-0.895,2-2,2H25c-1.105,0-2-0.895-2-2V25c0-1.105,0.895-2,2-2h44 c1.105,0,2,0.895,2,2V69z"/><rect width="40" height="32" x="27" y="27" fill="#40C9E7"/><g><polygon fill="#6FDAF1" points="43.979 45.021 62 27 26.962 27 26.962 53.4 35.626 43.003 35.623 43 38.957 39 38.959 39.003 38.962 39"/></g><polygon fill="#84462D" points="59 31 38 59 67 59 67 42.2"/><polygon fill="#F0F1F1" points="58.98 38.979 61.907 43.077 64.833 39.174 58.98 30.979 53.126 38.784 56.053 43.077"/><polygon fill="#D4A263" points="39 39 27 53.4 27 59 55.667 59"/><path fill="#FFF" d="M49.005,33.037c0,1.105-0.896,2.001-2.001,2.001H34.996c-1.105,0-2.001-0.896-2.001-2.001 c0-1.241,1.166-2.543,3.336-1.769c1.1-1.36,2.79-2.23,4.67-2.23s3.57,0.87,4.67,2.23C47.85,30.49,49.005,31.807,49.005,33.037z"/><polygon fill="#EDBC7C" points="44.017 45.021 30.038 59 27 59 27 53.4 35.664 43.003 38.995 47 42.328 43"/><polygon fill="#FFF" points="38.995 47.038 42.328 43.038 38.995 39.038 35.661 43.038"/></g></g><g id="Multicolor"><g><path fill="#F0F1F1" d="M87,85c0,1.105-0.895,2-2,2H41c-1.105,0-2-0.895-2-2V41c0-1.105,0.895-2,2-2h44 c1.105,0,2,0.895,2,2V85z"/><rect width="40" height="32" x="43" y="43" fill="#40C9E7"/><path fill="#FFF" d="M71,69c0,1.105-0.895,2-2,2H25c-1.105,0-2-0.895-2-2V25c0-1.105,0.895-2,2-2h44 c1.105,0,2,0.895,2,2V69z"/><rect width="40" height="32" x="27" y="27" fill="#40C9E7"/><g><polygon fill="#6FDAF1" points="43.979 45.021 62 27 26.962 27 26.962 53.4 35.626 43.003 35.623 43 38.957 39 38.959 39.003 38.962 39"/></g><polygon fill="#84462D" points="59 31 38 59 67 59 67 42.2"/><polygon fill="#F0F1F1" points="58.98 38.979 61.907 43.077 64.833 39.174 58.98 30.979 53.126 38.784 56.053 43.077"/><polygon fill="#D4A263" points="39 39 27 53.4 27 59 55.667 59"/><path fill="#FFF" d="M49.005,33.037c0,1.105-0.896,2.001-2.001,2.001H34.996c-1.105,0-2.001-0.896-2.001-2.001 c0-1.241,1.166-2.543,3.336-1.769c1.1-1.36,2.79-2.23,4.67-2.23s3.57,0.87,4.67,2.23C47.85,30.49,49.005,31.807,49.005,33.037z"/><polygon fill="#EDBC7C" points="44.017 45.021 30.038 59 27 59 27 53.4 35.664 43.003 38.995 47 42.328 43"/><polygon fill="#FFF" points="38.995 47.038 42.328 43.038 38.995 39.038 35.661 43.038"/></g></g><g id="Blue" display="none"><g display="inline"><g><path fill="#E1F5FA" d="M87,85c0,1.104-0.896,2-2,2H41c-1.105,0-2-0.896-2-2V41c0-1.104,0.895-2,2-2h44 c1.104,0,2,0.896,2,2V85z"/></g><g><rect width="40" height="32" x="43" y="43" fill="#009FC7"/></g><g><path fill="#FFF" d="M71,69c0,1.104-0.896,2-2,2H25c-1.105,0-2-0.896-2-2V25c0-1.104,0.895-2,2-2h44 c1.104,0,2,0.896,2,2V69z"/></g><g><rect width="40" height="32" x="27" y="27" fill="#00B7E5"/></g><g><polygon fill="#0F6175" points="59 31 38 59 67 59 67 42.2"/></g><g><polygon fill="#FFF" points="58.98 38.979 61.907 43.077 64.833 39.175 58.98 30.979 53.126 38.784 56.053 43.077"/></g><g><polygon fill="#33899E" points="39 39 27 53.4 27 59 55.666 59"/></g><g><path fill="#FFF" d="M49.005,33.037c0,1.105-0.896,2.002-2.001,2.002H34.996c-1.105,0-2.001-0.896-2.001-2.002 c0-1.241,1.166-2.543,3.336-1.768c1.1-1.36,2.79-2.23,4.67-2.23c1.88,0,3.57,0.87,4.67,2.23 C47.85,30.49,49.005,31.807,49.005,33.037z"/></g><g><polygon fill="#FFF" points="38.995 47.038 42.328 43.038 38.995 39.038 35.661 43.038"/></g></g></g><g id="R-Blue" display="none"><g display="inline"><circle cx="55" cy="55" r="55" fill="#81D2EB"/></g><g display="inline"><g><path fill="#E1F5FA" d="M87,85c0,1.104-0.896,2-2,2H41c-1.104,0-2-0.896-2-2V41c0-1.104,0.896-2,2-2h44 c1.104,0,2,0.896,2,2V85z"/></g><g><rect width="40" height="32" x="43" y="43" fill="#009FC7"/></g><g><path fill="#FFF" d="M71,69c0,1.104-0.896,2-2,2H25c-1.104,0-2-0.896-2-2V25c0-1.104,0.896-2,2-2h44 c1.104,0,2,0.896,2,2V69z"/></g><g><rect width="40" height="32" x="27" y="27" fill="#00B7E5"/></g><g><polygon fill="#0F6175" points="59 31 38 59 67 59 67 42.2"/></g><g><polygon fill="#FFF" points="58.98 38.979 61.907 43.077 64.834 39.175 58.98 30.979 53.126 38.784 56.053 43.077"/></g><g><polygon fill="#33899E" points="39 39 27 53.4 27 59 55.667 59"/></g><g><path fill="#FFF" d="M49.005,33.037c0,1.105-0.896,2.002-2.002,2.002H34.996c-1.106,0-2.002-0.896-2.002-2.002 c0-1.241,1.166-2.543,3.336-1.768c1.1-1.36,2.79-2.23,4.67-2.23s3.57,0.87,4.67,2.23C47.85,30.49,49.005,31.807,49.005,33.037z"/></g><g><polygon fill="#FFF" points="38.995 47.038 42.328 43.038 38.995 39.038 35.661 43.038"/></g></g></g><g id="Green" display="none"><g display="inline"><g><path fill="#D7FCF9" d="M87,85c0,1.104-0.896,2-2,2H41c-1.104,0-2-0.896-2-2V41c0-1.104,0.896-2,2-2h44 c1.104,0,2,0.896,2,2V85z"/></g><g><rect width="40" height="32" x="43" y="43" fill="#00B8A5"/></g><g><path fill="#FFF" d="M71,69c0,1.104-0.896,2-2,2H25c-1.104,0-2-0.896-2-2V25c0-1.104,0.896-2,2-2h44 c1.104,0,2,0.896,2,2V69z"/></g><g><rect width="40" height="32" x="27" y="27" fill="#00D6C1"/></g><g><polygon fill="#14635B" points="59 31 38 59 67 59 67 42.2"/></g><g><polygon fill="#FFF" points="58.98 38.979 61.907 43.077 64.834 39.175 58.98 30.979 53.126 38.784 56.053 43.077"/></g><g><polygon fill="#3E948B" points="39 39 27 53.4 27 59 55.667 59"/></g><g><path fill="#FFF" d="M49.005,33.037c0,1.105-0.896,2.002-2.001,2.002H34.996c-1.106,0-2.002-0.896-2.002-2.002 c0-1.241,1.166-2.543,3.336-1.768c1.1-1.36,2.79-2.23,4.67-2.23c1.88,0,3.57,0.87,4.67,2.23 C47.85,30.49,49.005,31.807,49.005,33.037z"/></g><g><polygon fill="#FFF" points="38.995 47.038 42.328 43.038 38.995 39.038 35.661 43.038"/></g></g></g><g id="R-Green" display="none"><g display="inline"><circle cx="55" cy="55" r="55" fill="#87E0C8"/></g><g display="inline"><g><path fill="#D7FCF9" d="M87,85c0,1.104-0.896,2-2,2H41c-1.104,0-2-0.896-2-2V41c0-1.104,0.896-2,2-2h44 c1.104,0,2,0.896,2,2V85z"/></g><g><rect width="40" height="32" x="43" y="43" fill="#00B8A5"/></g><g><path fill="#FFF" d="M71,69c0,1.104-0.896,2-2,2H25c-1.104,0-2-0.896-2-2V25c0-1.104,0.896-2,2-2h44 c1.104,0,2,0.896,2,2V69z"/></g><g><rect width="40" height="32" x="27" y="27" fill="#00D6C1"/></g><g><polygon fill="#14635B" points="59 31 38 59 67 59 67 42.2"/></g><g><polygon fill="#FFF" points="58.98 38.979 61.907 43.077 64.834 39.175 58.98 30.979 53.126 38.784 56.053 43.077"/></g><g><polygon fill="#3E948B" points="39 39 27 53.4 27 59 55.667 59"/></g><g><path fill="#FFF" d="M49.005,33.037c0,1.105-0.896,2.002-2.002,2.002H34.996c-1.106,0-2.002-0.896-2.002-2.002 c0-1.241,1.166-2.543,3.336-1.768c1.1-1.36,2.79-2.23,4.67-2.23c1.88,0,3.57,0.87,4.67,2.23 C47.85,30.49,49.005,31.807,49.005,33.037z"/></g><g><polygon fill="#FFF" points="38.995 47.038 42.328 43.038 38.995 39.038 35.661 43.038"/></g></g></g><g id="Red" display="none"><g display="inline"><g><path fill="#FFEFED" d="M87,85c0,1.104-0.896,2-2,2H41c-1.104,0-2-0.896-2-2V41c0-1.104,0.896-2,2-2h44 c1.104,0,2,0.896,2,2V85z"/></g><g><rect width="40" height="32" x="43" y="43" fill="#E54B44"/></g><g><path fill="#FFF" d="M71,69c0,1.104-0.896,2-2,2H25c-1.104,0-2-0.896-2-2V25c0-1.104,0.896-2,2-2h44 c1.104,0,2,0.896,2,2V69z"/></g><g><rect width="40" height="32" x="27" y="27" fill="#FF6C5E"/></g><g><polygon fill="#7D261E" points="59 31 38 59 67 59 67 42.2"/></g><g><polygon fill="#FFF" points="58.98 38.979 61.907 43.077 64.834 39.175 58.98 30.979 53.126 38.784 56.053 43.077"/></g><g><polygon fill="#B84E44" points="39 39 27 53.4 27 59 55.667 59"/></g><g><path fill="#FFF" d="M49.005,33.037c0,1.105-0.896,2.002-2.001,2.002H34.996c-1.106,0-2.002-0.896-2.002-2.002 c0-1.241,1.166-2.543,3.336-1.768c1.1-1.36,2.79-2.23,4.67-2.23c1.88,0,3.57,0.87,4.67,2.23 C47.85,30.49,49.005,31.807,49.005,33.037z"/></g><g><polygon fill="#FFF" points="38.995 47.038 42.328 43.038 38.995 39.038 35.661 43.038"/></g></g></g><g id="R-Red" display="none"><g display="inline"><circle cx="55" cy="55" r="55" fill="#FABBAF"/></g><g display="inline"><g><path fill="#FFEFED" d="M87,85c0,1.104-0.896,2-2,2H41c-1.104,0-2-0.896-2-2V41c0-1.104,0.896-2,2-2h44 c1.104,0,2,0.896,2,2V85z"/></g><g><rect width="40" height="32" x="43" y="43" fill="#E54B44"/></g><g><path fill="#FFF" d="M71,69c0,1.104-0.896,2-2,2H25c-1.104,0-2-0.896-2-2V25c0-1.104,0.896-2,2-2h44 c1.104,0,2,0.896,2,2V69z"/></g><g><rect width="40" height="32" x="27" y="27" fill="#FF6C5E"/></g><g><polygon fill="#7D261E" points="59 31 38 59 67 59 67 42.2"/></g><g><polygon fill="#FFF" points="58.98 38.979 61.907 43.077 64.834 39.175 58.98 30.979 53.126 38.784 56.053 43.077"/></g><g><polygon fill="#B84E44" points="39 39 27 53.4 27 59 55.667 59"/></g><g><path fill="#FFF" d="M49.005,33.037c0,1.105-0.896,2.002-2.001,2.002H34.996c-1.106,0-2.002-0.896-2.002-2.002 c0-1.241,1.166-2.543,3.336-1.768c1.1-1.36,2.79-2.23,4.67-2.23c1.88,0,3.57,0.87,4.67,2.23 C47.85,30.49,49.005,31.807,49.005,33.037z"/></g><g><polygon fill="#FFF" points="38.995 47.038 42.328 43.038 38.995 39.038 35.661 43.038"/></g></g></g><g id="Yellow" display="none"><g display="inline"><g><path fill="#FFF5D9" d="M87,85c0,1.104-0.896,2-2,2H41c-1.104,0-2-0.896-2-2V41c0-1.104,0.896-2,2-2h44 c1.104,0,2,0.896,2,2V85z"/></g><g><rect width="40" height="32" x="43" y="43" fill="#FA9200"/></g><g><path fill="#FFF" d="M71,69c0,1.104-0.896,2-2,2H25c-1.104,0-2-0.896-2-2V25c0-1.104,0.896-2,2-2h44 c1.104,0,2,0.896,2,2V69z"/></g><g><rect width="40" height="32" x="27" y="27" fill="#FA0"/></g><g><polygon fill="#66510D" points="59 31 38 59 67 59 67 42.2"/></g><g><polygon fill="#FFF" points="58.98 38.979 61.907 43.077 64.834 39.175 58.98 30.979 53.126 38.784 56.053 43.077"/></g><g><polygon fill="#947615" points="39 39 27 53.4 27 59 55.667 59"/></g><g><path fill="#FFF" d="M49.005,33.037c0,1.105-0.896,2.002-2.001,2.002H34.996c-1.106,0-2.002-0.896-2.002-2.002 c0-1.241,1.166-2.543,3.336-1.768c1.1-1.36,2.79-2.23,4.67-2.23c1.88,0,3.57,0.87,4.67,2.23 C47.85,30.49,49.005,31.807,49.005,33.037z"/></g><g><polygon fill="#FFF" points="38.995 47.038 42.328 43.038 38.995 39.038 35.661 43.038"/></g></g></g><g id="R-Yellow" display="none"><g display="inline"><circle cx="55" cy="55" r="55" fill="#FFD75E"/></g><g display="inline"><g><path fill="#FFF5D9" d="M87,85c0,1.104-0.896,2-2,2H41c-1.104,0-2-0.896-2-2V41c0-1.104,0.896-2,2-2h44 c1.104,0,2,0.896,2,2V85z"/></g><g><rect width="40" height="32" x="43" y="43" fill="#FA9200"/></g><g><path fill="#FFF" d="M71,69c0,1.104-0.896,2-2,2H25c-1.104,0-2-0.896-2-2V25c0-1.104,0.896-2,2-2h44 c1.104,0,2,0.896,2,2V69z"/></g><g><rect width="40" height="32" x="27" y="27" fill="#FA0"/></g><g><polygon fill="#66510D" points="59 31 38 59 67 59 67 42.2"/></g><g><polygon fill="#FFF" points="58.98 38.979 61.907 43.077 64.834 39.175 58.98 30.979 53.126 38.784 56.053 43.077"/></g><g><polygon fill="#947615" points="39 39 27 53.4 27 59 55.667 59"/></g><g><path fill="#FFF" d="M49.005,33.037c0,1.105-0.896,2.002-2.001,2.002H34.996c-1.106,0-2.002-0.896-2.002-2.002 c0-1.241,1.166-2.543,3.336-1.768c1.1-1.36,2.79-2.23,4.67-2.23c1.88,0,3.57,0.87,4.67,2.23 C47.85,30.49,49.005,31.807,49.005,33.037z"/></g><g><polygon fill="#FFF" points="38.995 47.038 42.328 43.038 38.995 39.038 35.661 43.038"/></g></g></g></svg>