<svg xmlns="http://www.w3.org/2000/svg" xmlns:xlink="http://www.w3.org/1999/xlink" width="110" height="110" x="0" y="0" enable-background="new 0 0 110 110" version="1.0" viewBox="0 0 110 110" xml:space="preserve"><g id="Artboard" display="none"><rect width="1412" height="743" x="-479" y="-199" fill="#8C8C8C" display="inline"/></g><g id="R-Multicolor" display="none"><circle cx="55" cy="55" r="55" fill="#E04F5F" display="inline"/><g display="inline"><path fill="#FACB1B" d="M75,23L49.792,48.208C47.668,47.44,45.388,47,43,47c-11.046,0-20,8.954-20,20s8.954,20,20,20 s20-8.954,20-20c0-2.388-0.44-4.668-1.208-6.792L63,59v-8h8v-8h8v-8h8V23H75z M47.595,76.204c-0.2,0.955-0.869,1.744-1.777,2.1 c-3.631,1.422-7.918,0.666-10.853-2.269c-2.935-2.934-3.691-7.223-2.268-10.855c0.356-0.909,1.146-1.577,2.102-1.776 c0.956-0.199,1.946,0.098,2.636,0.788l9.375,9.375C47.5,74.257,47.795,75.249,47.595,76.204z"/><path fill="#FBE158" d="M87,23H75L49.792,48.208C47.668,47.44,45.388,47,43,47c-11.046,0-20,8.954-20,20 c0,5.701,2.397,10.832,6.224,14.475l5.602-5.602c-2.809-2.929-3.526-7.124-2.128-10.693c0.356-0.909,1.146-1.577,2.102-1.776 c0.956-0.199,1.946,0.098,2.636,0.788l4.536,4.536L87,23.698V23z"/><path fill="#F3B607" d="M55,49c-0.552-0.552-0.552-1.448,0-2l22-22h4L57,49C56.448,49.552,55.552,49.552,55,49z"/></g></g><g id="Multicolor"><g><path fill="#FACB1B" d="M75,23L49.792,48.208C47.668,47.44,45.388,47,43,47c-11.046,0-20,8.954-20,20s8.954,20,20,20 s20-8.954,20-20c0-2.388-0.44-4.668-1.208-6.792L63,59v-8h8v-8h8v-8h8V23H75z M47.595,76.204c-0.2,0.955-0.869,1.744-1.777,2.1 c-3.631,1.422-7.918,0.666-10.853-2.269c-2.935-2.934-3.691-7.223-2.268-10.855c0.356-0.909,1.146-1.577,2.102-1.776 c0.956-0.199,1.946,0.098,2.636,0.788l9.375,9.375C47.5,74.257,47.795,75.249,47.595,76.204z"/><path fill="#FBE158" d="M87,23H75L49.792,48.208C47.668,47.44,45.388,47,43,47c-11.046,0-20,8.954-20,20 c0,5.701,2.397,10.832,6.224,14.475l5.602-5.602c-2.809-2.929-3.526-7.124-2.128-10.693c0.356-0.909,1.146-1.577,2.102-1.776 c0.956-0.199,1.946,0.098,2.636,0.788l4.536,4.536L87,23.698V23z"/><path fill="#F3B607" d="M55,49c-0.552-0.552-0.552-1.448,0-2l22-22h4L57,49C56.448,49.552,55.552,49.552,55,49z"/></g></g><g id="Blue" display="none"><g display="inline"><g><path fill="#E1F5FA" d="M75.003,23L49.794,48.207C47.671,47.44,45.391,47,43.003,47c-11.046,0-20,8.954-20,20 c0,11.046,8.954,20,20,20s20-8.954,20-20c0-2.388-0.44-4.668-1.208-6.792L63.003,59v-8h8v-8h8v-8h8V23H75.003z M47.598,76.204 c-0.2,0.955-0.869,1.744-1.777,2.1c-3.632,1.422-7.919,0.666-10.853-2.269c-2.935-2.934-3.691-7.223-2.268-10.855 c0.356-0.909,1.146-1.577,2.102-1.776c0.956-0.199,1.946,0.098,2.636,0.788l9.375,9.374 C47.502,74.257,47.798,75.248,47.598,76.204z"/></g><g><path fill="#FFF" d="M87.003,23h-12L49.794,48.207C47.671,47.44,45.391,47,43.003,47c-11.046,0-20,8.954-20,20 c0,5.701,2.397,10.832,6.224,14.475l5.602-5.602c-2.809-2.928-3.526-7.124-2.128-10.692c0.356-0.909,1.146-1.577,2.102-1.776 c0.956-0.199,1.946,0.098,2.636,0.788l4.536,4.535l45.029-45.029V23z"/></g><g><path fill="#81D2EB" d="M55.003,49c-0.552-0.552-0.552-1.448,0-2l22-22h4l-24,24C56.451,49.552,55.555,49.552,55.003,49z"/></g></g></g><g id="R-Blue" display="none"><g display="inline"><circle cx="55" cy="55" r="55" fill="#81D2EB"/></g><g display="inline"><g><path fill="#E1F5FA" d="M75,23L49.792,48.208C47.668,47.44,45.388,47,43,47c-11.046,0-20,8.954-20,20s8.954,20,20,20 s20-8.954,20-20c0-2.388-0.44-4.668-1.208-6.792L63,59v-8h8v-8h8v-8h8V23H75z M47.595,76.204c-0.2,0.955-0.869,1.744-1.777,2.1 c-3.632,1.422-7.919,0.666-10.853-2.269c-2.935-2.934-3.691-7.223-2.268-10.855c0.356-0.909,1.146-1.577,2.102-1.776 c0.956-0.199,1.946,0.098,2.636,0.788l9.375,9.375C47.5,74.257,47.795,75.248,47.595,76.204z"/></g><g><path fill="#FFF" d="M87,23H75L49.792,48.208C47.668,47.44,45.388,47,43,47c-11.046,0-20,8.954-20,20 c0,5.701,2.397,10.831,6.224,14.475l5.602-5.602c-2.809-2.928-3.526-7.124-2.128-10.692c0.356-0.909,1.146-1.577,2.102-1.776 c0.956-0.199,1.946,0.098,2.636,0.788l4.536,4.535L87,23.698V23z"/></g><g><path fill="#81D2EB" d="M55,49c-0.552-0.552-0.552-1.448,0-2l22-22h4L57,49C56.448,49.552,55.552,49.552,55,49z"/></g></g></g><g id="Green" display="none"><g display="inline"><g><path fill="#D7FCF9" d="M75.003,23L49.794,48.208C47.671,47.44,45.391,47,43.003,47c-11.046,0-20,8.954-20,20 s8.954,20,20,20s20-8.954,20-20c0-2.388-0.44-4.668-1.208-6.792L63.003,59v-8h8v-8h8v-8h8V23H75.003z M47.598,76.204 c-0.2,0.955-0.869,1.744-1.777,2.1c-3.632,1.422-7.919,0.666-10.853-2.269c-2.935-2.934-3.691-7.223-2.268-10.855 c0.356-0.909,1.146-1.577,2.102-1.776c0.956-0.199,1.946,0.098,2.636,0.788l9.375,9.375 C47.502,74.257,47.798,75.248,47.598,76.204z"/></g><g><path fill="#FFF" d="M87.003,23h-12L49.794,48.208C47.671,47.44,45.391,47,43.003,47c-11.046,0-20,8.954-20,20 c0,5.701,2.397,10.831,6.224,14.475l5.602-5.602c-2.809-2.928-3.526-7.124-2.128-10.692c0.356-0.909,1.146-1.577,2.102-1.776 c0.956-0.199,1.946,0.098,2.636,0.788l4.536,4.535l45.029-45.029V23z"/></g><g><path fill="#87E0C8" d="M55.003,49c-0.552-0.552-0.552-1.448,0-2l22-22h4l-24,24C56.451,49.552,55.555,49.552,55.003,49z"/></g></g></g><g id="R-Green" display="none"><g display="inline"><circle cx="55" cy="55" r="55" fill="#87E0C8"/></g><g display="inline"><g><path fill="#D7FCF9" d="M75,23L49.792,48.208C47.668,47.44,45.388,47,43,47c-11.046,0-20,8.954-20,20s8.954,20,20,20 s20-8.954,20-20c0-2.388-0.44-4.668-1.208-6.792L63,59v-8h8v-8h8v-8h8V23H75z M47.595,76.204c-0.2,0.955-0.869,1.744-1.777,2.1 c-3.632,1.422-7.919,0.666-10.853-2.269c-2.935-2.934-3.691-7.223-2.268-10.855c0.356-0.909,1.146-1.577,2.102-1.776 c0.956-0.199,1.946,0.098,2.636,0.788l9.375,9.375C47.5,74.257,47.795,75.248,47.595,76.204z"/></g><g><path fill="#FFF" d="M87,23H75L49.792,48.208C47.668,47.44,45.388,47,43,47c-11.046,0-20,8.954-20,20 c0,5.701,2.397,10.831,6.224,14.475l5.602-5.602c-2.809-2.928-3.526-7.124-2.128-10.692c0.356-0.909,1.146-1.577,2.102-1.776 c0.956-0.199,1.946,0.098,2.636,0.788l4.536,4.535L87,23.698V23z"/></g><g><path fill="#87E0C8" d="M55,49c-0.552-0.552-0.552-1.448,0-2l22-22h4L57,49C56.448,49.552,55.552,49.552,55,49z"/></g></g></g><g id="Red" display="none"><g display="inline"><g><path fill="#FFEFED" d="M75,23L49.792,48.207C47.668,47.44,45.388,47,43,47c-11.046,0-20,8.954-20,20 c0,11.046,8.954,20,20,20s20-8.954,20-20c0-2.388-0.44-4.668-1.208-6.792L63,59v-8h8v-8h8v-8h8V23H75z M47.595,76.204 c-0.2,0.955-0.869,1.744-1.777,2.1c-3.632,1.422-7.919,0.666-10.853-2.269c-2.935-2.934-3.691-7.223-2.268-10.855 c0.356-0.909,1.146-1.577,2.102-1.776c0.956-0.199,1.946,0.098,2.636,0.788l9.375,9.374C47.5,74.257,47.795,75.248,47.595,76.204 z"/></g><g><path fill="#FFF" d="M87,23H75L49.792,48.207C47.668,47.44,45.388,47,43,47c-11.046,0-20,8.954-20,20 c0,5.701,2.397,10.832,6.224,14.475l5.602-5.602c-2.809-2.928-3.526-7.124-2.128-10.692c0.356-0.909,1.146-1.577,2.102-1.776 c0.956-0.199,1.946,0.098,2.636,0.788l4.536,4.535L87,23.698V23z"/></g><g><path fill="#FABBAF" d="M55,49c-0.552-0.552-0.552-1.448,0-2l22-22h4L57,49C56.448,49.552,55.552,49.552,55,49z"/></g></g></g><g id="R-Red" display="none"><g display="inline"><circle cx="55" cy="55" r="55" fill="#FABBAF"/></g><g display="inline"><g><path fill="#FFEFED" d="M75,23L49.792,48.208C47.668,47.44,45.388,47,43,47c-11.046,0-20,8.954-20,20s8.954,20,20,20 s20-8.954,20-20c0-2.388-0.44-4.668-1.208-6.792L63,59v-8h8v-8h8v-8h8V23H75z M47.595,76.204c-0.2,0.955-0.869,1.744-1.777,2.1 c-3.632,1.422-7.919,0.666-10.853-2.269c-2.935-2.934-3.691-7.223-2.268-10.855c0.356-0.909,1.146-1.577,2.102-1.776 c0.956-0.199,1.946,0.098,2.636,0.788l9.375,9.375C47.5,74.257,47.795,75.248,47.595,76.204z"/></g><g><path fill="#FFF" d="M87,23H75L49.792,48.208C47.668,47.44,45.388,47,43,47c-11.046,0-20,8.954-20,20 c0,5.701,2.397,10.831,6.224,14.475l5.602-5.602c-2.809-2.928-3.526-7.124-2.128-10.692c0.356-0.909,1.146-1.577,2.102-1.776 c0.956-0.199,1.946,0.098,2.636,0.788l4.536,4.535L87,23.698V23z"/></g><g><path fill="#FABBAF" d="M55,49c-0.552-0.552-0.552-1.448,0-2l22-22h4L57,49C56.448,49.552,55.552,49.552,55,49z"/></g></g></g><g id="Yellow" display="none"><g display="inline"><g><path fill="#FFF5D9" d="M75.003,23L49.794,48.207C47.671,47.44,45.391,47,43.003,47c-11.046,0-20,8.954-20,20 s8.954,20,20,20s20-8.954,20-20c0-2.388-0.44-4.668-1.208-6.792L63.003,59v-8h8v-8h8v-8h8V23H75.003z M47.598,76.204 c-0.2,0.955-0.869,1.744-1.777,2.1c-3.632,1.422-7.919,0.666-10.853-2.269c-2.935-2.934-3.691-7.223-2.268-10.855 c0.356-0.909,1.146-1.577,2.102-1.776c0.956-0.199,1.946,0.098,2.636,0.788l9.375,9.374 C47.502,74.257,47.798,75.248,47.598,76.204z"/></g><g><path fill="#FFF" d="M87.003,23h-12L49.794,48.207C47.671,47.44,45.391,47,43.003,47c-11.046,0-20,8.954-20,20 c0,5.701,2.397,10.832,6.224,14.475l5.602-5.602c-2.809-2.928-3.526-7.124-2.128-10.692c0.356-0.909,1.146-1.577,2.102-1.776 c0.956-0.199,1.946,0.098,2.636,0.788l4.536,4.535l45.029-45.029V23z"/></g><g><path fill="#FFD75E" d="M55.003,49c-0.552-0.552-0.552-1.448,0-2l22-22h4l-24,24C56.451,49.552,55.555,49.552,55.003,49z"/></g></g></g><g id="R-Yellow" display="none"><g display="inline"><circle cx="55" cy="55" r="55" fill="#FFD75E"/></g><g display="inline"><g><path fill="#FFF5D9" d="M75,23L49.792,48.208C47.668,47.44,45.388,47,43,47c-11.046,0-20,8.954-20,20s8.954,20,20,20 s20-8.954,20-20c0-2.388-0.44-4.668-1.208-6.792L63,59v-8h8v-8h8v-8h8V23H75z M47.595,76.204c-0.2,0.955-0.869,1.744-1.777,2.1 c-3.632,1.422-7.918,0.666-10.853-2.269c-2.935-2.934-3.691-7.223-2.268-10.855c0.356-0.909,1.146-1.577,2.102-1.776 c0.956-0.199,1.946,0.098,2.636,0.788l9.375,9.375C47.5,74.257,47.795,75.248,47.595,76.204z"/></g><g><path fill="#FFF" d="M87,23H75L49.792,48.208C47.668,47.44,45.388,47,43,47c-11.046,0-20,8.954-20,20 c0,5.701,2.396,10.831,6.224,14.475l5.602-5.602c-2.809-2.928-3.526-7.124-2.128-10.692c0.356-0.909,1.146-1.577,2.102-1.776 c0.956-0.199,1.946,0.098,2.636,0.788l4.536,4.535L87,23.698V23z"/></g><g><path fill="#FFD75E" d="M55,49c-0.552-0.552-0.552-1.448,0-2l22-22h4L57,49C56.448,49.552,55.552,49.552,55,49z"/></g></g></g></svg>