<svg xmlns="http://www.w3.org/2000/svg" xmlns:xlink="http://www.w3.org/1999/xlink" width="110" height="110" x="0" y="0" enable-background="new 0 0 110 110" version="1.0" viewBox="0 0 110 110" xml:space="preserve"><g id="Artboard" display="none"><rect width="1412" height="743" x="-59" y="-591" fill="#8C8C8C" display="inline"/></g><g id="R-Multicolor" display="none"><circle cx="55" cy="55" r="55" fill="#E04F5F" display="inline"/><g display="inline"><rect width="64" height="48" x="23" y="31" fill="#F0F1F1"/><path fill="#E2E4E5" d="M60.979,49.685C59.461,47.977,57.285,47,55,47s-4.461,0.977-5.979,2.685L23,78.958h64 L60.979,49.685z"/><path fill="#FFF" d="M49.021,60.273c1.518,1.708,3.694,2.685,5.979,2.685s4.461-0.977,5.979-2.685L87,31H23 L49.021,60.273z"/><g><path fill="#DF2C2C" d="M54.966,65.397c0,0,11.965-6.902,11.965-14.531c0-7.629-11.965-7.439-11.965-1.615 c0-5.824-11.966-6.014-11.966,2.202S54.966,65.397,54.966,65.397z"/></g></g></g><g id="Multicolor"><g><rect width="64" height="48" x="23" y="31" fill="#F0F1F1"/><path fill="#E2E4E5" d="M60.979,49.685C59.461,47.977,57.285,47,55,47s-4.461,0.977-5.979,2.685L23,78.958h64 L60.979,49.685z"/><path fill="#FFF" d="M49.021,60.273c1.518,1.708,3.694,2.685,5.979,2.685s4.461-0.977,5.979-2.685L87,31H23 L49.021,60.273z"/><g><path fill="#DF2C2C" d="M54.966,65.397c0,0,11.965-6.902,11.965-14.531c0-7.629-11.965-7.439-11.965-1.615 c0-5.824-11.966-6.014-11.966,2.202S54.966,65.397,54.966,65.397z"/></g></g></g><g id="Blue" display="none"><g display="inline"><g><rect width="64" height="48" x="23" y="31" fill="#E1F5FA"/></g><g><path fill="#BBE7F2" d="M60.979,49.685C59.461,47.978,57.285,47,55,47s-4.461,0.978-5.979,2.685L23,78.959h64 L60.979,49.685z"/></g><g><path fill="#FFF" d="M49.021,60.273c1.519,1.708,3.694,2.685,5.979,2.685s4.461-0.977,5.979-2.685L87,31H23 L49.021,60.273z"/></g><g><g><path fill="#00B7E5" d="M54.966,65.397c0,0,11.965-6.902,11.965-14.531s-11.965-7.438-11.965-1.615 c0-5.824-11.966-6.014-11.966,2.202C43,59.669,54.966,65.397,54.966,65.397z"/></g></g></g></g><g id="R-Blue" display="none"><g display="inline"><circle cx="55" cy="55" r="55" fill="#81D2EB"/></g><g display="inline"><g><rect width="64" height="48" x="23" y="31" fill="#E1F5FA"/></g><g><path fill="#BBE7F2" d="M60.979,49.685C59.461,47.978,57.285,47,55,47s-4.461,0.978-5.979,2.685L23,78.959h64 L60.979,49.685z"/></g><g><path fill="#FFF" d="M49.021,60.273c1.519,1.708,3.694,2.685,5.979,2.685s4.461-0.977,5.979-2.685L87,31H23 L49.021,60.273z"/></g><g><g><path fill="#00B7E5" d="M54.966,65.397c0,0,11.965-6.902,11.965-14.531s-11.965-7.438-11.965-1.615 c0-5.824-11.966-6.014-11.966,2.202C43,59.669,54.966,65.397,54.966,65.397z"/></g></g></g></g><g id="Green" display="none"><g display="inline"><g><rect width="64" height="48" x="23" y="31" fill="#D7FCF9"/></g><g><path fill="#AAF0E9" d="M60.979,49.685C59.461,47.978,57.285,47,55,47c-2.285,0-4.461,0.978-5.979,2.685L23,78.959h64 L60.979,49.685z"/></g><g><path fill="#FFF" d="M49.02,60.273c1.519,1.708,3.694,2.685,5.979,2.685c2.285,0,4.461-0.977,5.979-2.685L87,31H23 L49.02,60.273z"/></g><g><g><path fill="#00D6C1" d="M54.966,65.397c0,0,11.965-6.902,11.965-14.531s-11.965-7.438-11.965-1.615 c0-5.824-11.966-6.014-11.966,2.202C43,59.669,54.966,65.397,54.966,65.397z"/></g></g></g></g><g id="R-Green" display="none"><g display="inline"><circle cx="55" cy="55" r="55" fill="#87E0C8"/></g><g display="inline"><g><rect width="64" height="48" x="23" y="31" fill="#D7FCF9"/></g><g><path fill="#AAF0E9" d="M60.979,49.685C59.461,47.978,57.285,47,55,47c-2.285,0-4.461,0.978-5.979,2.685L23,78.959h64 L60.979,49.685z"/></g><g><path fill="#FFF" d="M49.02,60.273c1.519,1.708,3.694,2.685,5.979,2.685c2.285,0,4.461-0.977,5.979-2.685L87,31H23 L49.02,60.273z"/></g><g><g><path fill="#00D6C1" d="M54.965,65.397c0,0,11.965-6.902,11.965-14.531s-11.965-7.438-11.965-1.615 c0-5.824-11.966-6.014-11.966,2.202C43,59.669,54.965,65.397,54.965,65.397z"/></g></g></g></g><g id="Red" display="none"><g display="inline"><g><rect width="64" height="48" x="22.896" y="31" fill="#FFEFED"/></g><g><path fill="#FFD7D4" d="M60.875,49.685C59.357,47.978,57.181,47,54.896,47s-4.461,0.978-5.979,2.685L22.896,78.959h64 L60.875,49.685z"/></g><g><path fill="#FFF" d="M48.917,60.273c1.519,1.708,3.694,2.685,5.979,2.685s4.461-0.977,5.979-2.685L86.896,31h-64 L48.917,60.273z"/></g><g><g><path fill="#FF6C5E" d="M54.862,65.397c0,0,11.965-6.902,11.965-14.531s-11.965-7.438-11.965-1.615 c0-5.824-11.966-6.014-11.966,2.202C42.896,59.669,54.862,65.397,54.862,65.397z"/></g></g></g></g><g id="R-Red" display="none"><g display="inline"><circle cx="55" cy="55" r="55" fill="#FABBAF"/></g><g display="inline"><g><rect width="64" height="48" x="23" y="31" fill="#FFEFED"/></g><g><path fill="#FFD7D4" d="M60.979,49.685C59.461,47.978,57.285,47,55,47s-4.461,0.978-5.979,2.685L23,78.959h64 L60.979,49.685z"/></g><g><path fill="#FFF" d="M49.021,60.273c1.519,1.708,3.694,2.685,5.979,2.685s4.461-0.977,5.979-2.685L87,31H23 L49.021,60.273z"/></g><g><g><path fill="#FF6C5E" d="M54.966,65.397c0,0,11.965-6.902,11.965-14.531s-11.965-7.438-11.965-1.615 c0-5.824-11.966-6.014-11.966,2.202C43,59.669,54.966,65.397,54.966,65.397z"/></g></g></g></g><g id="Yellow" display="none"><g display="inline"><g><rect width="64" height="48" x="22.896" y="31" fill="#FFF5D9"/></g><g><path fill="#FFE9A1" d="M60.875,49.685C59.357,47.978,57.181,47,54.896,47c-2.285,0-4.461,0.978-5.979,2.685 L22.896,78.959h64L60.875,49.685z"/></g><g><path fill="#FFF" d="M48.917,60.273c1.519,1.708,3.694,2.685,5.979,2.685c2.285,0,4.461-0.977,5.979-2.685L86.896,31 h-64L48.917,60.273z"/></g><g><g><path fill="#FA0" d="M54.862,65.397c0,0,11.965-6.902,11.965-14.531s-11.965-7.438-11.965-1.615 c0-5.824-11.966-6.014-11.966,2.202C42.896,59.669,54.862,65.397,54.862,65.397z"/></g></g></g></g><g id="R-Yellow" display="none"><g display="inline"><circle cx="55" cy="55" r="55" fill="#FFD75E"/></g><g display="inline"><g><rect width="64" height="48" x="23" y="31" fill="#FFF5D9"/></g><g><path fill="#FFE9A1" d="M60.979,49.685C59.461,47.978,57.285,47,55,47s-4.461,0.978-5.979,2.685L23,78.959h64 L60.979,49.685z"/></g><g><path fill="#FFF" d="M49.021,60.273c1.519,1.708,3.694,2.685,5.979,2.685s4.461-0.977,5.979-2.685L87,31H23 L49.021,60.273z"/></g><g><g><path fill="#FA0" d="M54.966,65.397c0,0,11.965-6.902,11.965-14.531s-11.965-7.438-11.965-1.615 c0-5.824-11.966-6.014-11.966,2.202C43,59.669,54.966,65.397,54.966,65.397z"/></g></g></g></g></svg>