<svg xmlns="http://www.w3.org/2000/svg" xmlns:xlink="http://www.w3.org/1999/xlink" width="110" height="110" x="0" y="0" enable-background="new 0 0 110 110" version="1.0" viewBox="0 0 110 110" xml:space="preserve"><g id="Artboard" display="none"><rect width="1361" height="341" x="-568.5" y="-181.5" fill="gray" stroke="#000" stroke-miterlimit="10" display="inline"/></g><g id="R-Multicolor" display="none"><circle cx="55" cy="55" r="55" fill="#32BEA6" display="inline"/><g display="inline"><g><path fill="#3E3E3F" d="M35,61c0,1.105,0.895,2,2,2h30v-4H37C35.895,59,35,59.895,35,61z"/></g><g><path fill="#E2E4E5" d="M85,79h-2l-7.328-10.517c3.262-2.146,5.713-5.289,7.056-9.216 c2.61-7.631,0.524-16.718-5.189-22.611C72.831,31.8,66.26,29.69,59,30.56V27H47v24h12V39.648 c4.96-0.903,9.101,0.203,12.077,3.273c3.364,3.471,4.653,8.995,3.135,13.435c-0.545,1.594-1.615,3.45-3.687,4.741l-0.339-0.487 C69.44,59.598,68.258,59,67,59s-2.44,0.598-3.187,1.61L51,79H29c-1.104,0-2,0.896-2,2v4c0,1.104,0.896,2,2,2h56 c1.104,0,2-0.896,2-2v-4C87,79.896,86.104,79,85,79z"/></g><g><rect width="6" height="3" x="50" y="24" fill="#3E3E3F"/></g><g><rect width="8" height="4" x="49" y="51" fill="#3E3E3F"/></g><path fill="#F0F1F1" d="M75.672,68.483c3.262-2.146,5.713-5.289,7.056-9.216c2.61-7.631,0.524-16.718-5.189-22.611 C72.831,31.8,66.26,29.69,59,30.56v9.088c4.96-0.903,9.102,0.203,12.077,3.272c3.364,3.471,4.653,8.995,3.135,13.435 c-0.545,1.595-1.615,3.45-3.687,4.741l-0.339-0.486C69.44,59.598,68.258,59,67,59s-2.44,0.598-3.187,1.61L51,79h32L75.672,68.483z"/><g><path fill="#FFF" d="M70.187,60.61C69.44,59.598,68.258,59,67,59s-2.44,0.598-3.187,1.61L51,79h8.892l13.619-13.619 L70.187,60.61z"/></g><g><rect width="4" height="4" x="49" y="51" fill="#5B5C5F"/></g><g><rect width="3" height="3" x="50" y="24" fill="#5B5C5F"/></g><g><rect width="6" height="24" x="47" y="27" fill="#FFF"/></g><g><circle cx="67" cy="65" r="2" fill="#5B5C5F"/></g></g></g><g id="Multicolor"><g><g><path fill="#3E3E3F" d="M35,61c0,1.105,0.895,2,2,2h30v-4H37C35.895,59,35,59.895,35,61z"/></g><g><path fill="#E2E4E5" d="M85,79h-2l-7.328-10.517c3.262-2.146,5.713-5.289,7.056-9.216 c2.61-7.631,0.524-16.718-5.189-22.611C72.831,31.8,66.26,29.69,59,30.56V27H47v24h12V39.648 c4.96-0.903,9.101,0.203,12.077,3.273c3.364,3.471,4.653,8.995,3.135,13.435c-0.545,1.594-1.615,3.45-3.687,4.741l-0.339-0.487 C69.44,59.598,68.258,59,67,59s-2.44,0.598-3.187,1.61L51,79H29c-1.104,0-2,0.896-2,2v4c0,1.104,0.896,2,2,2h56 c1.104,0,2-0.896,2-2v-4C87,79.896,86.104,79,85,79z"/></g><g><rect width="6" height="3" x="50" y="24" fill="#3E3E3F"/></g><g><rect width="8" height="4" x="49" y="51" fill="#3E3E3F"/></g><path fill="#F0F1F1" d="M75.672,68.483c3.262-2.146,5.713-5.289,7.056-9.216c2.61-7.631,0.524-16.718-5.189-22.611 C72.831,31.8,66.26,29.69,59,30.56v9.088c4.96-0.903,9.102,0.203,12.077,3.272c3.364,3.471,4.653,8.995,3.135,13.435 c-0.545,1.595-1.615,3.45-3.687,4.741l-0.339-0.486C69.44,59.598,68.258,59,67,59s-2.44,0.598-3.187,1.61L51,79h32L75.672,68.483z"/><g><path fill="#FFF" d="M70.187,60.61C69.44,59.598,68.258,59,67,59s-2.44,0.598-3.187,1.61L51,79h8.892l13.619-13.619 L70.187,60.61z"/></g><g><rect width="4" height="4" x="49" y="51" fill="#5B5C5F"/></g><g><rect width="3" height="3" x="50" y="24" fill="#5B5C5F"/></g><g><rect width="6" height="24" x="47" y="27" fill="#FFF"/></g><g><circle cx="67" cy="65" r="2" fill="#5B5C5F"/></g></g></g><g id="Blue" display="none"><g display="inline"><g><path fill="#0081A1" d="M35,61c0,1.104,0.896,2,2,2h30v-4H37C35.896,59,35,59.896,35,61z"/></g><g><path fill="#BBE7F2" d="M85.001,79h-2l-7.328-10.517c3.262-2.146,5.713-5.289,7.055-9.216 c2.61-7.631,0.525-16.718-5.188-22.611C72.831,31.8,66.261,29.69,59,30.56V27H47v24h12V39.648 c4.96-0.903,9.101,0.203,12.077,3.273c3.364,3.471,4.653,8.995,3.135,13.435c-0.545,1.595-1.615,3.45-3.687,4.741l-0.339-0.486 C69.441,59.598,68.258,59,67.001,59c-1.258,0-2.44,0.598-3.187,1.61L51,79H29c-1.104,0-2,0.896-2,2v4c0,1.104,0.896,2,2,2h56 c1.104,0,2-0.896,2-2v-4C87.001,79.896,86.105,79,85.001,79z"/></g><g><rect width="6" height="3" x="50" y="24" fill="#0C333D"/></g><g><rect width="8" height="4" x="49" y="51" fill="#0C333D"/></g><path fill="#E1F5FA" d="M75.673,68.483c3.262-2.146,5.713-5.289,7.055-9.216c2.61-7.631,0.525-16.718-5.188-22.611 C72.832,31.8,66.26,29.69,59,30.56v9.088c4.96-0.903,9.102,0.203,12.077,3.273c3.364,3.471,4.653,8.995,3.135,13.435 c-0.546,1.595-1.615,3.45-3.687,4.741l-0.339-0.486C69.441,59.598,68.258,59,67.001,59c-1.258,0-2.44,0.598-3.187,1.61L51,79h32 L75.673,68.483z"/><g><path fill="#FFF" d="M70.187,60.61C69.441,59.598,68.258,59,67.001,59c-1.258,0-2.44,0.598-3.187,1.61L51,79h8.892 l13.619-13.619L70.187,60.61z"/></g><g><rect width="4" height="4" x="49" y="51" fill="#0F6175"/></g><g><rect width="3" height="3" x="50" y="24" fill="#0F6175"/></g><g><rect width="6" height="24" x="47" y="27" fill="#FFF"/></g><g><circle cx="67" cy="65" r="2" fill="#0F6175"/></g></g></g><g id="R-Blue" display="none"><circle cx="55" cy="55" r="55" fill="#81D2EB" display="inline"/><g display="inline"><g><path fill="#0081A1" d="M35,61c0,1.104,0.895,2,2,2h30v-4H37C35.895,59,35,59.896,35,61z"/></g><g><path fill="#BBE7F2" d="M85,79h-2l-7.328-10.517c3.262-2.146,5.713-5.289,7.055-9.216 c2.61-7.631,0.525-16.718-5.188-22.611C72.831,31.8,66.26,29.69,59,30.56V27H47v24h12V39.648 c4.96-0.903,9.101,0.203,12.077,3.272c3.364,3.471,4.653,8.995,3.135,13.435c-0.545,1.595-1.615,3.45-3.687,4.741l-0.339-0.486 C69.44,59.598,68.258,59,67,59c-1.258,0-2.44,0.598-3.187,1.61L51,79H29c-1.105,0-2,0.896-2,2v4c0,1.104,0.895,2,2,2h56 c1.104,0,2-0.896,2-2v-4C87,79.896,86.104,79,85,79z"/></g><g><rect width="6" height="3" x="50" y="24" fill="#0C333D"/></g><g><rect width="8" height="4" x="49" y="51" fill="#0C333D"/></g><path fill="#E1F5FA" d="M75.672,68.483c3.262-2.146,5.713-5.289,7.055-9.216c2.61-7.631,0.525-16.718-5.188-22.611 C72.831,31.8,66.26,29.69,59,30.56v9.088c4.96-0.903,9.102,0.203,12.077,3.272c3.364,3.471,4.653,8.995,3.135,13.435 c-0.546,1.595-1.615,3.45-3.687,4.741l-0.339-0.486C69.44,59.598,68.258,59,67,59c-1.258,0-2.44,0.598-3.187,1.61L51,79h32 L75.672,68.483z"/><g><path fill="#FFF" d="M70.186,60.61C69.44,59.598,68.258,59,67,59c-1.258,0-2.44,0.598-3.187,1.61L51,79h8.892 l13.619-13.619L70.186,60.61z"/></g><g><rect width="4" height="4" x="49" y="51" fill="#0F6175"/></g><g><rect width="3" height="3" x="50" y="24" fill="#0F6175"/></g><g><rect width="6" height="24" x="47" y="27" fill="#FFF"/></g><g><circle cx="67" cy="65" r="2" fill="#0F6175"/></g></g></g><g id="Green" display="none"><g display="inline"><g><path fill="#009687" d="M35,61c0,1.104,0.896,2,2,2h30v-4H37C35.895,59,35,59.896,35,61z"/></g><g><path fill="#AAF0E9" d="M85,79h-2l-7.328-10.517c3.262-2.146,5.713-5.289,7.055-9.216 c2.61-7.631,0.525-16.718-5.188-22.611C72.831,31.8,66.26,29.69,59,30.56V27H47v24h12V39.648 c4.96-0.903,9.101,0.203,12.077,3.272c3.364,3.471,4.653,8.995,3.135,13.435c-0.545,1.595-1.615,3.45-3.687,4.741l-0.339-0.486 C69.44,59.598,68.258,59,67,59c-1.258,0-2.44,0.598-3.187,1.61L51,79H29c-1.104,0-2,0.896-2,2v4c0,1.104,0.896,2,2,2h56 c1.104,0,2-0.896,2-2v-4C87,79.896,86.104,79,85,79z"/></g><g><rect width="6" height="3" x="50" y="24" fill="#0A3631"/></g><g><rect width="8" height="4" x="49" y="51" fill="#0A3631"/></g><path fill="#D7FCF9" d="M75.672,68.483c3.262-2.146,5.713-5.289,7.055-9.216c2.61-7.631,0.525-16.718-5.188-22.611 C72.831,31.8,66.26,29.69,59,30.56v9.088c4.96-0.903,9.102,0.203,12.077,3.272c3.364,3.471,4.653,8.995,3.135,13.435 c-0.546,1.595-1.615,3.45-3.687,4.741l-0.339-0.486C69.44,59.598,68.258,59,67,59c-1.258,0-2.44,0.598-3.187,1.61L51,79h32 L75.672,68.483z"/><g><path fill="#FFF" d="M70.187,60.61C69.44,59.598,68.258,59,67,59c-1.258,0-2.44,0.598-3.187,1.61L51,79h8.892 l13.619-13.619L70.187,60.61z"/></g><g><rect width="4" height="4" x="49" y="51" fill="#14635B"/></g><g><rect width="3" height="3" x="50" y="24" fill="#14635B"/></g><g><rect width="6" height="24" x="47" y="27" fill="#FFF"/></g><g><circle cx="67" cy="65" r="2" fill="#14635B"/></g></g></g><g id="R-Green" display="none"><circle cx="55" cy="55" r="55" fill="#77E0C4" display="inline"/><g display="inline"><g><path fill="#009687" d="M35,61c0,1.104,0.896,2,2,2h30v-4H37C35.895,59,35,59.896,35,61z"/></g><g><path fill="#AAF0E9" d="M85,79h-2l-7.328-10.517c3.262-2.146,5.713-5.289,7.055-9.216 c2.61-7.631,0.525-16.718-5.188-22.611C72.831,31.8,66.26,29.69,59,30.56V27H47v24h12V39.648 c4.96-0.903,9.101,0.203,12.077,3.272c3.364,3.471,4.653,8.995,3.135,13.435c-0.545,1.595-1.615,3.45-3.687,4.741l-0.339-0.486 C69.44,59.598,68.258,59,67,59c-1.258,0-2.44,0.598-3.187,1.61L51,79H29c-1.104,0-2,0.896-2,2v4c0,1.104,0.896,2,2,2h56 c1.104,0,2-0.896,2-2v-4C87,79.896,86.104,79,85,79z"/></g><g><rect width="6" height="3" x="50" y="24" fill="#0A3631"/></g><g><rect width="8" height="4" x="49" y="51" fill="#0A3631"/></g><path fill="#D7FCF9" d="M75.672,68.483c3.262-2.146,5.713-5.289,7.055-9.216c2.61-7.631,0.525-16.718-5.188-22.611 C72.831,31.8,66.26,29.69,59,30.56v9.088c4.96-0.903,9.102,0.203,12.077,3.272c3.364,3.471,4.653,8.995,3.135,13.435 c-0.546,1.595-1.615,3.45-3.687,4.741l-0.339-0.486C69.44,59.598,68.258,59,67,59c-1.258,0-2.44,0.598-3.187,1.61L51,79h32 L75.672,68.483z"/><g><path fill="#FFF" d="M70.187,60.61C69.44,59.598,68.258,59,67,59c-1.258,0-2.44,0.598-3.187,1.61L51,79h8.892 l13.619-13.619L70.187,60.61z"/></g><g><rect width="4" height="4" x="49" y="51" fill="#14635B"/></g><g><rect width="3" height="3" x="50" y="24" fill="#14635B"/></g><g><rect width="6" height="24" x="47" y="27" fill="#FFF"/></g><g><circle cx="67" cy="65" r="2" fill="#14635B"/></g></g></g><g id="Red" display="none"><g display="inline"><g><path fill="#C23023" d="M35,61c0,1.104,0.895,2,2,2h30v-4H37C35.895,59,35,59.896,35,61z"/></g><g><path fill="#FFD7D4" d="M85,79h-2l-7.328-10.517c3.262-2.146,5.713-5.289,7.055-9.216 c2.61-7.631,0.525-16.718-5.188-22.611C72.831,31.8,66.26,29.69,59,30.56V27H47v24h12V39.648 c4.96-0.903,9.101,0.203,12.077,3.272c3.364,3.471,4.653,8.995,3.135,13.435c-0.545,1.595-1.615,3.45-3.687,4.741l-0.339-0.486 C69.44,59.598,68.258,59,67,59c-1.258,0-2.44,0.598-3.187,1.61L51,79H29c-1.105,0-2,0.896-2,2v4c0,1.104,0.895,2,2,2h56 c1.104,0,2-0.896,2-2v-4C87,79.896,86.104,79,85,79z"/></g><g><rect width="6" height="3" x="50" y="24" fill="#4A1410"/></g><g><rect width="8" height="4" x="49" y="51" fill="#4A1410"/></g><path fill="#FFEFED" d="M75.672,68.483c3.262-2.146,5.713-5.289,7.055-9.216c2.61-7.631,0.525-16.718-5.188-22.611 C72.831,31.8,66.26,29.69,59,30.56v9.088c4.96-0.903,9.102,0.203,12.077,3.272c3.364,3.471,4.653,8.995,3.135,13.435 c-0.546,1.595-1.615,3.45-3.687,4.741l-0.339-0.486C69.44,59.598,68.258,59,67,59c-1.258,0-2.44,0.598-3.187,1.61L51,79h32 L75.672,68.483z"/><g><path fill="#FFF" d="M70.186,60.61C69.44,59.598,68.258,59,67,59c-1.258,0-2.44,0.598-3.187,1.61L51,79h8.892 l13.619-13.619L70.186,60.61z"/></g><g><rect width="4" height="4" x="49" y="51" fill="#7D261E"/></g><g><rect width="3" height="3" x="50" y="24" fill="#7D261E"/></g><g><rect width="6" height="24" x="47" y="27" fill="#FFF"/></g><g><circle cx="67" cy="65" r="2" fill="#7D261E"/></g></g></g><g id="R-Red" display="none"><circle cx="55" cy="55" r="55" fill="#FABBAF" display="inline"/><g display="inline"><g><path fill="#C23023" d="M35,61c0,1.104,0.896,2,2,2h30v-4H37C35.896,59,35,59.896,35,61z"/></g><g><path fill="#FFD7D4" d="M85,79h-2l-7.328-10.517c3.262-2.146,5.713-5.289,7.055-9.216 c2.61-7.631,0.525-16.718-5.188-22.611C72.831,31.8,66.26,29.69,59,30.56V27H47v24h12V39.648 c4.96-0.903,9.101,0.203,12.077,3.273c3.364,3.471,4.653,8.995,3.135,13.435c-0.545,1.595-1.615,3.45-3.687,4.741l-0.339-0.486 C69.44,59.598,68.258,59,67,59s-2.44,0.598-3.187,1.61L51,79H29c-1.104,0-2,0.896-2,2v4c0,1.104,0.896,2,2,2h56 c1.104,0,2-0.896,2-2v-4C87,79.896,86.104,79,85,79z"/></g><g><rect width="6" height="3" x="50" y="24" fill="#4A1410"/></g><g><rect width="8" height="4" x="49" y="51" fill="#4A1410"/></g><path fill="#FFEFED" d="M75.672,68.483c3.262-2.146,5.713-5.289,7.055-9.216c2.61-7.631,0.525-16.718-5.188-22.611 C72.831,31.8,66.26,29.69,59,30.56v9.088c4.96-0.903,9.102,0.203,12.077,3.273c3.364,3.471,4.653,8.995,3.135,13.435 c-0.546,1.595-1.615,3.45-3.687,4.741l-0.339-0.486C69.44,59.598,68.258,59,67,59s-2.44,0.598-3.187,1.61L51,79h32L75.672,68.483z"/><g><path fill="#FFF" d="M70.186,60.61C69.44,59.598,68.258,59,67,59s-2.44,0.598-3.187,1.61L51,79h8.892l13.619-13.619 L70.186,60.61z"/></g><g><rect width="4" height="4" x="49" y="51" fill="#7D261E"/></g><g><rect width="3" height="3" x="50" y="24" fill="#7D261E"/></g><g><rect width="6" height="24" x="47" y="27" fill="#FFF"/></g><g><circle cx="67" cy="65" r="2" fill="#7D261E"/></g></g></g><g id="Yellow" display="none"><g display="inline"><g><path fill="#E07000" d="M35,61c0,1.104,0.896,2,2,2h30v-4H37C35.896,59,35,59.896,35,61z"/></g><g><path fill="#FFE9A1" d="M85.001,79h-2l-7.328-10.517c3.262-2.146,5.713-5.289,7.055-9.216 c2.61-7.631,0.525-16.718-5.188-22.611C72.831,31.8,66.261,29.69,59,30.56V27H47v24h12V39.648 c4.96-0.903,9.101,0.203,12.077,3.272c3.364,3.471,4.653,8.995,3.135,13.435c-0.545,1.595-1.615,3.45-3.687,4.741l-0.339-0.486 C69.441,59.598,68.258,59,67.001,59c-1.258,0-2.44,0.598-3.187,1.61L51,79H29c-1.104,0-2,0.896-2,2v4c0,1.104,0.896,2,2,2h56 c1.104,0,2-0.896,2-2v-4C87.001,79.896,86.105,79,85.001,79z"/></g><g><rect width="6" height="3" x="50" y="24" fill="#3D320C"/></g><g><rect width="8" height="4" x="49" y="51" fill="#3D320C"/></g><path fill="#FFF5D9" d="M75.673,68.483c3.262-2.146,5.713-5.289,7.055-9.216c2.61-7.631,0.525-16.718-5.188-22.611 C72.832,31.8,66.26,29.69,59,30.56v9.088c4.96-0.903,9.102,0.203,12.077,3.272c3.364,3.471,4.653,8.995,3.135,13.435 c-0.546,1.595-1.615,3.45-3.687,4.741l-0.339-0.486C69.441,59.598,68.258,59,67.001,59c-1.258,0-2.44,0.598-3.187,1.61L51,79h32 L75.673,68.483z"/><g><path fill="#FFF" d="M70.187,60.61C69.441,59.598,68.258,59,67.001,59c-1.258,0-2.44,0.598-3.187,1.61L51,79h8.892 l13.619-13.619L70.187,60.61z"/></g><g><rect width="4" height="4" x="49" y="51" fill="#66510D"/></g><g><rect width="3" height="3" x="50" y="24" fill="#66510D"/></g><g><rect width="6" height="24" x="47" y="27" fill="#FFF"/></g><g><circle cx="67" cy="65" r="2" fill="#66510D"/></g></g></g><g id="R-Yellow" display="none"><circle cx="55" cy="55" r="55" fill="#FFD75E" display="inline"/><g display="inline"><g><path fill="#E07000" d="M35,61c0,1.104,0.896,2,2,2h30v-4H37C35.896,59,35,59.896,35,61z"/></g><g><path fill="#FFE9A1" d="M85,79h-2l-7.328-10.517c3.262-2.146,5.713-5.289,7.055-9.216 c2.61-7.631,0.525-16.718-5.188-22.611C72.831,31.8,66.26,29.69,59,30.56V27H47v24h12V39.648 c4.96-0.903,9.101,0.203,12.077,3.273c3.364,3.471,4.653,8.995,3.135,13.435c-0.545,1.595-1.615,3.45-3.687,4.741l-0.339-0.486 C69.44,59.598,68.258,59,67,59s-2.44,0.598-3.187,1.61L51,79H29c-1.104,0-2,0.896-2,2v4c0,1.104,0.896,2,2,2h56 c1.104,0,2-0.896,2-2v-4C87,79.896,86.104,79,85,79z"/></g><g><rect width="6" height="3" x="50" y="24" fill="#3D320C"/></g><g><rect width="8" height="4" x="49" y="51" fill="#3D320C"/></g><path fill="#FFF5D9" d="M75.672,68.483c3.262-2.146,5.713-5.289,7.055-9.216c2.61-7.631,0.525-16.718-5.188-22.611 C72.831,31.8,66.26,29.69,59,30.56v9.088c4.96-0.903,9.102,0.203,12.077,3.273c3.364,3.471,4.653,8.995,3.135,13.435 c-0.546,1.595-1.615,3.45-3.687,4.741l-0.339-0.486C69.44,59.598,68.258,59,67,59s-2.44,0.598-3.187,1.61L51,79h32L75.672,68.483z"/><g><path fill="#FFF" d="M70.187,60.61C69.44,59.598,68.258,59,67,59s-2.44,0.598-3.187,1.61L51,79h8.892l13.619-13.619 L70.187,60.61z"/></g><g><rect width="4" height="4" x="49" y="51" fill="#66510D"/></g><g><rect width="3" height="3" x="50" y="24" fill="#66510D"/></g><g><rect width="6" height="24" x="47" y="27" fill="#FFF"/></g><g><circle cx="67" cy="65" r="2" fill="#66510D"/></g></g></g></svg>