<svg xmlns="http://www.w3.org/2000/svg" xmlns:xlink="http://www.w3.org/1999/xlink" width="110" height="110" x="0" y="0" enable-background="new 0 0 110 110" version="1.0" viewBox="0 0 110 110" xml:space="preserve"><g id="Artboard" display="none"><rect width="1363" height="720" x="-702.5" y="-59.5" fill="gray" stroke="#000" stroke-miterlimit="10" display="inline"/></g><g id="R-Multicolor" display="none"><circle cx="55" cy="55" r="55" fill="#32BEA6" display="inline"/><g display="inline"><path fill="#F0F1F1" d="M87,29c0-2.209-1.791-4-4-4H27c-2.209,0-4,1.791-4,4v52c0,2.209,1.791,4,4,4h56 c2.209,0,4-1.791,4-4V29z"/><path fill="#FFF" d="M83,25H27c-2.209,0-4,1.791-4,4v52c0,1.219,0.557,2.297,1.417,3.031l58.99-58.99 C83.271,25.027,83.139,25,83,25z"/><rect width="12" height="4" x="49" y="73" fill="#17B198"/><rect width="12" height="4" x="49" y="65" fill="#17B198"/><rect width="12" height="4" x="49" y="57" fill="#F3B607"/><rect width="12" height="4" x="33" y="73" fill="#17B198"/><rect width="12" height="4" x="33" y="65" fill="#17B198"/><rect width="12" height="4" x="33" y="57" fill="#F3B607"/><rect width="12" height="4" x="33" y="49" fill="#F37A10"/><rect width="12" height="4" x="65" y="73" fill="#17B198"/><rect width="12" height="4" x="65" y="65" fill="#17B198"/><rect width="12" height="4" x="65" y="57" fill="#F3B607"/><rect width="12" height="4" x="49" y="49" fill="#F37A10"/><rect width="12" height="4" x="49" y="41" fill="#FA5655"/><rect width="12" height="4" x="49" y="33" fill="#DF2C2C"/></g></g><g id="Multicolor"><g><path fill="#F0F1F1" d="M87,29c0-2.209-1.791-4-4-4H27c-2.209,0-4,1.791-4,4v52c0,2.209,1.791,4,4,4h56 c2.209,0,4-1.791,4-4V29z"/><path fill="#FFF" d="M83,25H27c-2.209,0-4,1.791-4,4v52c0,1.219,0.557,2.297,1.417,3.031l58.99-58.99 C83.271,25.027,83.139,25,83,25z"/><rect width="12" height="4" x="49" y="73" fill="#17B198"/><rect width="12" height="4" x="49" y="65" fill="#17B198"/><rect width="12" height="4" x="49" y="57" fill="#F3B607"/><rect width="12" height="4" x="33" y="73" fill="#17B198"/><rect width="12" height="4" x="33" y="65" fill="#17B198"/><rect width="12" height="4" x="33" y="57" fill="#F3B607"/><rect width="12" height="4" x="33" y="49" fill="#F37A10"/><rect width="12" height="4" x="65" y="73" fill="#17B198"/><rect width="12" height="4" x="65" y="65" fill="#17B198"/><rect width="12" height="4" x="65" y="57" fill="#F3B607"/><rect width="12" height="4" x="49" y="49" fill="#F37A10"/><rect width="12" height="4" x="49" y="41" fill="#FA5655"/><rect width="12" height="4" x="49" y="33" fill="#DF2C2C"/></g></g><g id="Blue" display="none"><g display="inline"><g><path fill="#E1F5FA" d="M87,29c0-2.209-1.791-4-4-4H27c-2.209,0-4,1.791-4,4v52c0,2.21,1.791,4,4,4h56c2.209,0,4-1.79,4-4 V29z"/></g><g><path fill="#FFF" d="M83,25H27c-2.209,0-4,1.791-4,4v52c0,1.219,0.557,2.297,1.417,3.031l58.99-58.99 C83.271,25.027,83.139,25,83,25z"/></g><g><rect width="12" height="4" x="49" y="73" fill="#0C333D"/></g><g><rect width="12" height="4" x="49" y="65" fill="#0F6175"/></g><g><rect width="12" height="4" x="49" y="57" fill="#0081A1"/></g><g><rect width="12" height="4" x="33" y="73" fill="#0C333D"/></g><g><rect width="12" height="4" x="33" y="65" fill="#0F6175"/></g><g><rect width="12" height="4" x="33" y="57" fill="#0081A1"/></g><g><rect width="12" height="4" x="33" y="49" fill="#009FC7"/></g><g><rect width="12" height="4" x="65" y="73" fill="#0C333D"/></g><g><rect width="12" height="4" x="65" y="65" fill="#0F6175"/></g><g><rect width="12" height="4" x="65" y="57" fill="#0081A1"/></g><g><rect width="12" height="4" x="49" y="49" fill="#009FC7"/></g><g><rect width="12" height="4" x="49" y="41" fill="#00B7E5"/></g><g><rect width="12" height="4" x="49" y="33" fill="#00B7E5"/></g></g></g><g id="R-Blue" display="none"><g display="inline"><circle cx="55" cy="55" r="55" fill="#81D2EB"/></g><g display="inline"><g><path fill="#E1F5FA" d="M87,29c0-2.209-1.791-4-4-4H27c-2.209,0-4,1.791-4,4v52c0,2.21,1.791,4,4,4h56c2.209,0,4-1.79,4-4 V29z"/></g><g><path fill="#FFF" d="M83,25H27c-2.209,0-4,1.791-4,4v52c0,1.219,0.557,2.297,1.417,3.031l58.99-58.99 C83.271,25.027,83.139,25,83,25z"/></g><g><rect width="12" height="4" x="49" y="73" fill="#0C333D"/></g><g><rect width="12" height="4" x="49" y="65" fill="#0F6175"/></g><g><rect width="12" height="4" x="49" y="57" fill="#0081A1"/></g><g><rect width="12" height="4" x="33" y="73" fill="#0C333D"/></g><g><rect width="12" height="4" x="33" y="65" fill="#0F6175"/></g><g><rect width="12" height="4" x="33" y="57" fill="#0081A1"/></g><g><rect width="12" height="4" x="33" y="49" fill="#009FC7"/></g><g><rect width="12" height="4" x="65" y="73" fill="#0C333D"/></g><g><rect width="12" height="4" x="65" y="65" fill="#0F6175"/></g><g><rect width="12" height="4" x="65" y="57" fill="#0081A1"/></g><g><rect width="12" height="4" x="49" y="49" fill="#009FC7"/></g><g><rect width="12" height="4" x="49" y="41" fill="#00B7E5"/></g><g><rect width="12" height="4" x="49" y="33" fill="#00B7E5"/></g></g></g><g id="Green" display="none"><g display="inline"><g><path fill="#D7FCF9" d="M87,29c0-2.209-1.791-4-4-4H27c-2.209,0-4,1.791-4,4v52c0,2.21,1.791,4,4,4h56c2.209,0,4-1.79,4-4 V29z"/></g><g><path fill="#FFF" d="M83,25H27c-2.209,0-4,1.791-4,4v52c0,1.219,0.557,2.297,1.417,3.031l58.99-58.99 C83.271,25.027,83.139,25,83,25z"/></g><g><rect width="12" height="4" x="49" y="73" fill="#0A3631"/></g><g><rect width="12" height="4" x="49" y="65" fill="#14635B"/></g><g><rect width="12" height="4" x="49" y="57" fill="#009687"/></g><g><rect width="12" height="4" x="33" y="73" fill="#0A3631"/></g><g><rect width="12" height="4" x="33" y="65" fill="#14635B"/></g><g><rect width="12" height="4" x="33" y="57" fill="#009687"/></g><g><rect width="12" height="4" x="33" y="49" fill="#00B8A5"/></g><g><rect width="12" height="4" x="65" y="73" fill="#0A3631"/></g><g><rect width="12" height="4" x="65" y="65" fill="#14635B"/></g><g><rect width="12" height="4" x="65" y="57" fill="#009687"/></g><g><rect width="12" height="4" x="49" y="49" fill="#00B8A5"/></g><g><rect width="12" height="4" x="49" y="41" fill="#00D6C1"/></g><g><rect width="12" height="4" x="49" y="33" fill="#00D6C1"/></g></g></g><g id="R-Green" display="none"><g display="inline"><circle cx="55" cy="55" r="55" fill="#87E0C8"/></g><g display="inline"><g><path fill="#D7FCF9" d="M87,29c0-2.209-1.791-4-4-4H27c-2.209,0-4,1.791-4,4v52c0,2.21,1.791,4,4,4h56c2.209,0,4-1.79,4-4 V29z"/></g><g><path fill="#FFF" d="M83,25H27c-2.209,0-4,1.791-4,4v52c0,1.219,0.557,2.297,1.417,3.031l58.99-58.99 C83.271,25.027,83.139,25,83,25z"/></g><g><rect width="12" height="4" x="49" y="73" fill="#0A3631"/></g><g><rect width="12" height="4" x="49" y="65" fill="#14635B"/></g><g><rect width="12" height="4" x="49" y="57" fill="#009687"/></g><g><rect width="12" height="4" x="33" y="73" fill="#0A3631"/></g><g><rect width="12" height="4" x="33" y="65" fill="#14635B"/></g><g><rect width="12" height="4" x="33" y="57" fill="#009687"/></g><g><rect width="12" height="4" x="33" y="49" fill="#00B8A5"/></g><g><rect width="12" height="4" x="65" y="73" fill="#0A3631"/></g><g><rect width="12" height="4" x="65" y="65" fill="#14635B"/></g><g><rect width="12" height="4" x="65" y="57" fill="#009687"/></g><g><rect width="12" height="4" x="49" y="49" fill="#00B8A5"/></g><g><rect width="12" height="4" x="49" y="41" fill="#00D6C1"/></g><g><rect width="12" height="4" x="49" y="33" fill="#00D6C1"/></g></g></g><g id="Red" display="none"><g display="inline"><g><path fill="#FFEFED" d="M87,29c0-2.209-1.791-4-4-4H27c-2.209,0-4,1.791-4,4v52c0,2.21,1.791,4,4,4h56c2.209,0,4-1.79,4-4 V29z"/></g><g><path fill="#FFF" d="M83,25H27c-2.209,0-4,1.791-4,4v52c0,1.219,0.557,2.297,1.417,3.031l58.99-58.99 C83.271,25.027,83.139,25,83,25z"/></g><g><rect width="12" height="4" x="49" y="73" fill="#4A1410"/></g><g><rect width="12" height="4" x="49" y="65" fill="#7D261E"/></g><g><rect width="12" height="4" x="49" y="57" fill="#C23023"/></g><g><rect width="12" height="4" x="33" y="73" fill="#4A1410"/></g><g><rect width="12" height="4" x="33" y="65" fill="#7D261E"/></g><g><rect width="12" height="4" x="33" y="57" fill="#C23023"/></g><g><rect width="12" height="4" x="33" y="49" fill="#E54B44"/></g><g><rect width="12" height="4" x="65" y="73" fill="#4A1410"/></g><g><rect width="12" height="4" x="65" y="65" fill="#7D261E"/></g><g><rect width="12" height="4" x="65" y="57" fill="#C23023"/></g><g><rect width="12" height="4" x="49" y="49" fill="#E54B44"/></g><g><rect width="12" height="4" x="49" y="41" fill="#FF6C5E"/></g><g><rect width="12" height="4" x="49" y="33" fill="#FF6C5E"/></g></g></g><g id="R-Red" display="none"><g display="inline"><circle cx="55" cy="55" r="55" fill="#FABBAF"/></g><g display="inline"><g><path fill="#FFEFED" d="M87,29c0-2.209-1.791-4-4-4H27c-2.209,0-4,1.791-4,4v52c0,2.21,1.791,4,4,4h56c2.209,0,4-1.79,4-4 V29z"/></g><g><path fill="#FFF" d="M83,25H27c-2.209,0-4,1.791-4,4v52c0,1.219,0.557,2.297,1.417,3.031l58.99-58.99 C83.271,25.027,83.139,25,83,25z"/></g><g><rect width="12" height="4" x="49" y="73" fill="#4A1410"/></g><g><rect width="12" height="4" x="49" y="65" fill="#7D261E"/></g><g><rect width="12" height="4" x="49" y="57" fill="#C23023"/></g><g><rect width="12" height="4" x="33" y="73" fill="#4A1410"/></g><g><rect width="12" height="4" x="33" y="65" fill="#7D261E"/></g><g><rect width="12" height="4" x="33" y="57" fill="#C23023"/></g><g><rect width="12" height="4" x="33" y="49" fill="#E54B44"/></g><g><rect width="12" height="4" x="65" y="73" fill="#4A1410"/></g><g><rect width="12" height="4" x="65" y="65" fill="#7D261E"/></g><g><rect width="12" height="4" x="65" y="57" fill="#C23023"/></g><g><rect width="12" height="4" x="49" y="49" fill="#E54B44"/></g><g><rect width="12" height="4" x="49" y="41" fill="#FF6C5E"/></g><g><rect width="12" height="4" x="49" y="33" fill="#FF6C5E"/></g></g></g><g id="Yellow" display="none"><g display="inline"><g><path fill="#FFF5D9" d="M87,29c0-2.209-1.791-4-4-4H27c-2.209,0-4,1.791-4,4v52c0,2.209,1.791,4,4,4h56 c2.209,0,4-1.791,4-4V29z"/></g><g><path fill="#FFF" d="M83,25H27c-2.209,0-4,1.791-4,4v52c0,1.219,0.557,2.297,1.417,3.031l58.99-58.99 C83.271,25.027,83.139,25,83,25z"/></g><g><rect width="12" height="4" x="49" y="73" fill="#3D320C"/></g><g><rect width="12" height="4" x="49" y="65" fill="#66510D"/></g><g><rect width="12" height="4" x="49" y="57" fill="#E07000"/></g><g><rect width="12" height="4" x="33" y="73" fill="#3D320C"/></g><g><rect width="12" height="4" x="33" y="65" fill="#66510D"/></g><g><rect width="12" height="4" x="33" y="57" fill="#E07000"/></g><g><rect width="12" height="4" x="33" y="49" fill="#FA9200"/></g><g><rect width="12" height="4" x="65" y="73" fill="#3D320C"/></g><g><rect width="12" height="4" x="65" y="65" fill="#66510D"/></g><g><rect width="12" height="4" x="65" y="57" fill="#E07000"/></g><g><rect width="12" height="4" x="49" y="49" fill="#FA9200"/></g><g><rect width="12" height="4" x="49" y="41" fill="#FA0"/></g><g><rect width="12" height="4" x="49" y="33" fill="#FA0"/></g></g></g><g id="R-Yellow" display="none"><g display="inline"><circle cx="55" cy="55" r="55" fill="#FFD75E"/></g><g display="inline"><g><path fill="#FFF5D9" d="M87,29c0-2.209-1.791-4-4-4H27c-2.209,0-4,1.791-4,4v52c0,2.21,1.791,4,4,4h56c2.209,0,4-1.79,4-4 V29z"/></g><g><path fill="#FFF" d="M83,25H27c-2.209,0-4,1.791-4,4v52c0,1.219,0.557,2.297,1.417,3.031l58.99-58.99 C83.271,25.027,83.139,25,83,25z"/></g><g><rect width="12" height="4" x="49" y="73" fill="#3D320C"/></g><g><rect width="12" height="4" x="49" y="65" fill="#66510D"/></g><g><rect width="12" height="4" x="49" y="57" fill="#E07000"/></g><g><rect width="12" height="4" x="33" y="73" fill="#3D320C"/></g><g><rect width="12" height="4" x="33" y="65" fill="#66510D"/></g><g><rect width="12" height="4" x="33" y="57" fill="#E07000"/></g><g><rect width="12" height="4" x="33" y="49" fill="#FA9200"/></g><g><rect width="12" height="4" x="65" y="73" fill="#3D320C"/></g><g><rect width="12" height="4" x="65" y="65" fill="#66510D"/></g><g><rect width="12" height="4" x="65" y="57" fill="#E07000"/></g><g><rect width="12" height="4" x="49" y="49" fill="#FA9200"/></g><g><rect width="12" height="4" x="49" y="41" fill="#FA0"/></g><g><rect width="12" height="4" x="49" y="33" fill="#FA0"/></g></g></g></svg>