<svg xmlns="http://www.w3.org/2000/svg" xmlns:xlink="http://www.w3.org/1999/xlink" width="110" height="110" x="0" y="0" enable-background="new 0 0 110 110" version="1.0" viewBox="0 0 110 110" xml:space="preserve"><g id="Artboard" display="none"><rect width="1360" height="442" x="-964" y="-294" fill="gray" display="inline"/></g><g id="R-Multicolor" display="none"><circle cx="55" cy="55" r="55" fill="#E04F5F" display="inline"/><g display="inline"><polygon fill="#FCF6C2" points="59 34 27 46 27 71 51 83 83 71 83 46"/><polygon fill="#F3B607" points="83 71 51 83 51 58 83 46"/><polygon fill="#FACB1B" points="27 71 51 83 51 58 27 46"/><path fill="#F3B607" d="M59,48v4c0,1.1-2.69,2-6,2s-6-0.9-6-2v-4c0,1.1,2.69,2,6,2S59,49.1,59,48z"/><path fill="#FCF6C2" d="M53,46c-3.31,0-6,0.9-6,2s2.69,2,6,2s6-0.9,6-2S56.31,46,53,46z"/><path fill="#F3B607" d="M47,42v4c0,1.1-2.69,2-6,2s-6-0.9-6-2v-4c0,1.1,2.69,2,6,2S47,43.1,47,42z"/><path fill="#FCF6C2" d="M41,40c-3.31,0-6,0.9-6,2s2.69,2,6,2s6-0.9,6-2S44.31,40,41,40z"/><path fill="#F3B607" d="M63,36v4c0,1.1-2.69,2-6,2s-6-0.9-6-2v-4c0,1.1,2.69,2,6,2S63,37.1,63,36z"/><path fill="#FCF6C2" d="M57,34c-3.31,0-6,0.9-6,2s2.69,2,6,2s6-0.9,6-2S60.31,34,57,34z"/><path fill="#F3B607" d="M75,42v4c0,1.1-2.69,2-6,2s-6-0.9-6-2v-4c0,1.1,2.69,2,6,2S75,43.1,75,42z"/><path fill="#FCF6C2" d="M69,40c-3.31,0-6,0.9-6,2s2.69,2,6,2s6-0.9,6-2S72.31,40,69,40z"/></g></g><g id="Multicolor_1_"><g><polygon fill="#FCF6C2" points="59 34 27 46 27 71 51 83 83 71 83 46"/><polygon fill="#F3B607" points="83 71 51 83 51 58 83 46"/><polygon fill="#FACB1B" points="27 71 51 83 51 58 27 46"/><path fill="#F3B607" d="M59,48v4c0,1.1-2.69,2-6,2s-6-0.9-6-2v-4c0,1.1,2.69,2,6,2S59,49.1,59,48z"/><path fill="#FCF6C2" d="M53,46c-3.31,0-6,0.9-6,2s2.69,2,6,2s6-0.9,6-2S56.31,46,53,46z"/><path fill="#F3B607" d="M47,42v4c0,1.1-2.69,2-6,2s-6-0.9-6-2v-4c0,1.1,2.69,2,6,2S47,43.1,47,42z"/><path fill="#FCF6C2" d="M41,40c-3.31,0-6,0.9-6,2s2.69,2,6,2s6-0.9,6-2S44.31,40,41,40z"/><path fill="#F3B607" d="M63,36v4c0,1.1-2.69,2-6,2s-6-0.9-6-2v-4c0,1.1,2.69,2,6,2S63,37.1,63,36z"/><path fill="#FCF6C2" d="M57,34c-3.31,0-6,0.9-6,2s2.69,2,6,2s6-0.9,6-2S60.31,34,57,34z"/><path fill="#F3B607" d="M75,42v4c0,1.1-2.69,2-6,2s-6-0.9-6-2v-4c0,1.1,2.69,2,6,2S75,43.1,75,42z"/><path fill="#FCF6C2" d="M69,40c-3.31,0-6,0.9-6,2s2.69,2,6,2s6-0.9,6-2S72.31,40,69,40z"/></g></g><g id="Blue" display="none"><g display="inline"><g><polygon fill="#00B7E5" points="59 34 27 46 27 71 51 83 83 71 83 46"/></g><g><polygon fill="#0081A1" points="83 71 51 83 51 58 83 46"/></g><g><polygon fill="#009FC7" points="27 71 51 83 51 58 27 46"/></g><g><path fill="#0081A1" d="M59,48v4c0,1.1-2.69,2-6,2s-6-0.9-6-2v-4c0,1.1,2.69,2,6,2S59,49.1,59,48z"/></g><g><path fill="#BBE7F2" d="M53,46c-3.31,0-6,0.9-6,2s2.69,2,6,2s6-0.9,6-2S56.31,46,53,46z"/></g><g><path fill="#0081A1" d="M47,42v4c0,1.1-2.69,2-6,2s-6-0.9-6-2v-4c0,1.1,2.69,2,6,2S47,43.1,47,42z"/></g><g><path fill="#BBE7F2" d="M41,40c-3.31,0-6,0.9-6,2s2.69,2,6,2s6-0.9,6-2S44.31,40,41,40z"/></g><g><path fill="#0081A1" d="M63,36v4c0,1.1-2.69,2-6,2s-6-0.9-6-2v-4c0,1.1,2.69,2,6,2S63,37.1,63,36z"/></g><g><path fill="#BBE7F2" d="M57,34c-3.31,0-6,0.9-6,2s2.69,2,6,2s6-0.9,6-2S60.31,34,57,34z"/></g><g><path fill="#0081A1" d="M75,42v4c0,1.1-2.69,2-6,2s-6-0.9-6-2v-4c0,1.1,2.69,2,6,2S75,43.1,75,42z"/></g><g><path fill="#BBE7F2" d="M69,40c-3.31,0-6,0.9-6,2s2.69,2,6,2s6-0.9,6-2S72.31,40,69,40z"/></g></g></g><g id="R-Blue" display="none"><g display="inline"><circle cx="55" cy="55" r="55" fill="#81D2EB"/></g><g display="inline"><g><polygon fill="#00B7E5" points="59 34 27 46 27 71 51 83 83 71 83 46"/></g><g><polygon fill="#0081A1" points="83 71 51 83 51 58 83 46"/></g><g><polygon fill="#009FC7" points="27 71 51 83 51 58 27 46"/></g><g><path fill="#0081A1" d="M59,48v4c0,1.1-2.69,2-6,2s-6-0.9-6-2v-4c0,1.1,2.69,2,6,2S59,49.1,59,48z"/></g><g><path fill="#BBE7F2" d="M53,46c-3.31,0-6,0.9-6,2s2.69,2,6,2s6-0.9,6-2S56.31,46,53,46z"/></g><g><path fill="#0081A1" d="M47,42v4c0,1.1-2.69,2-6,2s-6-0.9-6-2v-4c0,1.1,2.69,2,6,2S47,43.1,47,42z"/></g><g><path fill="#BBE7F2" d="M41,40c-3.31,0-6,0.9-6,2s2.69,2,6,2s6-0.9,6-2S44.31,40,41,40z"/></g><g><path fill="#0081A1" d="M63,36v4c0,1.1-2.69,2-6,2s-6-0.9-6-2v-4c0,1.1,2.69,2,6,2S63,37.1,63,36z"/></g><g><path fill="#BBE7F2" d="M57,34c-3.31,0-6,0.9-6,2s2.69,2,6,2s6-0.9,6-2S60.31,34,57,34z"/></g><g><path fill="#0081A1" d="M75,42v4c0,1.1-2.69,2-6,2c-3.31,0-6-0.9-6-2v-4c0,1.1,2.69,2,6,2C72.31,44,75,43.1,75,42z"/></g><g><path fill="#BBE7F2" d="M69,40c-3.31,0-6,0.9-6,2s2.69,2,6,2c3.31,0,6-0.9,6-2S72.31,40,69,40z"/></g></g></g><g id="Green" display="none"><g display="inline"><g><polygon fill="#00D6C1" points="59 34 27 46 27 71 51 83 83 71 83 46"/></g><g><polygon fill="#009687" points="83 71 51 83 51 58 83 46"/></g><g><polygon fill="#00B8A5" points="27 71 51 83 51 58 27 46"/></g><g><path fill="#009687" d="M59,48v4c0,1.1-2.69,2-6,2s-6-0.9-6-2v-4c0,1.1,2.69,2,6,2S59,49.1,59,48z"/></g><g><path fill="#AAF0E9" d="M53,46c-3.31,0-6,0.9-6,2s2.69,2,6,2s6-0.9,6-2S56.31,46,53,46z"/></g><g><path fill="#009687" d="M47,42v4c0,1.1-2.69,2-6,2s-6-0.9-6-2v-4c0,1.1,2.69,2,6,2S47,43.1,47,42z"/></g><g><path fill="#AAF0E9" d="M41,40c-3.31,0-6,0.9-6,2s2.69,2,6,2s6-0.9,6-2S44.31,40,41,40z"/></g><g><path fill="#009687" d="M63,36v4c0,1.1-2.69,2-6,2s-6-0.9-6-2v-4c0,1.1,2.69,2,6,2S63,37.1,63,36z"/></g><g><path fill="#AAF0E9" d="M57,34c-3.31,0-6,0.9-6,2s2.69,2,6,2s6-0.9,6-2S60.31,34,57,34z"/></g><g><path fill="#009687" d="M75,42v4c0,1.1-2.69,2-6,2c-3.31,0-6-0.9-6-2v-4c0,1.1,2.69,2,6,2C72.31,44,75,43.1,75,42z"/></g><g><path fill="#AAF0E9" d="M69,40c-3.31,0-6,0.9-6,2s2.69,2,6,2c3.31,0,6-0.9,6-2S72.31,40,69,40z"/></g></g></g><g id="R-Green" display="none"><g display="inline"><circle cx="55" cy="55" r="55" fill="#87E0C8"/></g><g display="inline"><g><polygon fill="#00D6C1" points="59 34 27 46 27 71 51 83 83 71 83 46"/></g><g><polygon fill="#009687" points="83 71 51 83 51 58 83 46"/></g><g><polygon fill="#00B8A5" points="27 71 51 83 51 58 27 46"/></g><g><path fill="#009687" d="M59,48v4c0,1.1-2.69,2-6,2s-6-0.9-6-2v-4c0,1.1,2.69,2,6,2S59,49.1,59,48z"/></g><g><path fill="#AAF0E9" d="M53,46c-3.31,0-6,0.9-6,2s2.69,2,6,2s6-0.9,6-2S56.31,46,53,46z"/></g><g><path fill="#009687" d="M47,42v4c0,1.1-2.69,2-6,2s-6-0.9-6-2v-4c0,1.1,2.69,2,6,2S47,43.1,47,42z"/></g><g><path fill="#AAF0E9" d="M41,40c-3.31,0-6,0.9-6,2s2.69,2,6,2s6-0.9,6-2S44.31,40,41,40z"/></g><g><path fill="#009687" d="M63,36v4c0,1.1-2.69,2-6,2s-6-0.9-6-2v-4c0,1.1,2.69,2,6,2S63,37.1,63,36z"/></g><g><path fill="#AAF0E9" d="M57,34c-3.31,0-6,0.9-6,2s2.69,2,6,2s6-0.9,6-2S60.31,34,57,34z"/></g><g><path fill="#009687" d="M75,42v4c0,1.1-2.69,2-6,2s-6-0.9-6-2v-4c0,1.1,2.69,2,6,2S75,43.1,75,42z"/></g><g><path fill="#AAF0E9" d="M69,40c-3.31,0-6,0.9-6,2s2.69,2,6,2s6-0.9,6-2S72.31,40,69,40z"/></g></g></g><g id="Red" display="none"><g display="inline"><g><polygon fill="#FF6C5E" points="59 34 27 46 27 71 51 83 83 71 83 46"/></g><g><polygon fill="#C23023" points="83 71 51 83 51 58 83 46"/></g><g><polygon fill="#E54B44" points="27 71 51 83 51 58 27 46"/></g><g><path fill="#C23023" d="M59,48v4c0,1.1-2.69,2-6,2s-6-0.9-6-2v-4c0,1.1,2.69,2,6,2S59,49.1,59,48z"/></g><g><path fill="#FFD7D4" d="M53,46c-3.31,0-6,0.9-6,2s2.69,2,6,2s6-0.9,6-2S56.31,46,53,46z"/></g><g><path fill="#C23023" d="M47,42v4c0,1.1-2.69,2-6,2s-6-0.9-6-2v-4c0,1.1,2.69,2,6,2S47,43.1,47,42z"/></g><g><path fill="#FFD7D4" d="M41,40c-3.31,0-6,0.9-6,2s2.69,2,6,2s6-0.9,6-2S44.31,40,41,40z"/></g><g><path fill="#C23023" d="M63,36v4c0,1.1-2.69,2-6,2s-6-0.9-6-2v-4c0,1.1,2.69,2,6,2S63,37.1,63,36z"/></g><g><path fill="#FFD7D4" d="M57,34c-3.31,0-6,0.9-6,2s2.69,2,6,2s6-0.9,6-2S60.31,34,57,34z"/></g><g><path fill="#C23023" d="M75,42v4c0,1.1-2.69,2-6,2s-6-0.9-6-2v-4c0,1.1,2.69,2,6,2S75,43.1,75,42z"/></g><g><path fill="#FFD7D4" d="M69,40c-3.31,0-6,0.9-6,2s2.69,2,6,2s6-0.9,6-2S72.31,40,69,40z"/></g></g></g><g id="R-Red" display="none"><g display="inline"><circle cx="55" cy="55" r="55" fill="#FABBAF"/></g><g display="inline"><g><polygon fill="#FF6C5E" points="59 34 27 46 27 71 51 83 83 71 83 46"/></g><g><polygon fill="#C23023" points="83 71 51 83 51 58 83 46"/></g><g><polygon fill="#E54B44" points="27 71 51 83 51 58 27 46"/></g><g><path fill="#C23023" d="M59,48v4c0,1.1-2.69,2-6,2s-6-0.9-6-2v-4c0,1.1,2.69,2,6,2S59,49.1,59,48z"/></g><g><path fill="#FFD7D4" d="M53,46c-3.31,0-6,0.9-6,2s2.69,2,6,2s6-0.9,6-2S56.31,46,53,46z"/></g><g><path fill="#C23023" d="M47,42v4c0,1.1-2.69,2-6,2s-6-0.9-6-2v-4c0,1.1,2.69,2,6,2S47,43.1,47,42z"/></g><g><path fill="#FFD7D4" d="M41,40c-3.31,0-6,0.9-6,2s2.69,2,6,2s6-0.9,6-2S44.31,40,41,40z"/></g><g><path fill="#C23023" d="M63,36v4c0,1.1-2.69,2-6,2s-6-0.9-6-2v-4c0,1.1,2.69,2,6,2S63,37.1,63,36z"/></g><g><path fill="#FFD7D4" d="M57,34c-3.31,0-6,0.9-6,2s2.69,2,6,2s6-0.9,6-2S60.31,34,57,34z"/></g><g><path fill="#C23023" d="M75,42v4c0,1.1-2.69,2-6,2c-3.31,0-6-0.9-6-2v-4c0,1.1,2.69,2,6,2C72.31,44,75,43.1,75,42z"/></g><g><path fill="#FFD7D4" d="M69,40c-3.31,0-6,0.9-6,2s2.69,2,6,2c3.31,0,6-0.9,6-2S72.31,40,69,40z"/></g></g></g><g id="Yellow" display="none"><g display="inline"><g><polygon fill="#FA0" points="59 34 27 46 27 71 51 83 83 71 83 46"/></g><g><polygon fill="#E07000" points="83 71 51 83 51 58 83 46"/></g><g><polygon fill="#FA9200" points="27 71 51 83 51 58 27 46"/></g><g><path fill="#E07000" d="M59,48v4c0,1.1-2.69,2-6,2s-6-0.9-6-2v-4c0,1.1,2.69,2,6,2S59,49.1,59,48z"/></g><g><path fill="#FFE9A1" d="M53,46c-3.31,0-6,0.9-6,2s2.69,2,6,2s6-0.9,6-2S56.31,46,53,46z"/></g><g><path fill="#E07000" d="M47,42v4c0,1.1-2.69,2-6,2s-6-0.9-6-2v-4c0,1.1,2.69,2,6,2S47,43.1,47,42z"/></g><g><path fill="#FFE9A1" d="M41,40c-3.31,0-6,0.9-6,2s2.69,2,6,2s6-0.9,6-2S44.31,40,41,40z"/></g><g><path fill="#E07000" d="M63,36v4c0,1.1-2.69,2-6,2s-6-0.9-6-2v-4c0,1.1,2.69,2,6,2S63,37.1,63,36z"/></g><g><path fill="#FFE9A1" d="M57,34c-3.31,0-6,0.9-6,2s2.69,2,6,2s6-0.9,6-2S60.31,34,57,34z"/></g><g><path fill="#E07000" d="M75,42v4c0,1.1-2.69,2-6,2c-3.31,0-6-0.9-6-2v-4c0,1.1,2.69,2,6,2C72.31,44,75,43.1,75,42z"/></g><g><path fill="#FFE9A1" d="M69,40c-3.31,0-6,0.9-6,2s2.69,2,6,2c3.31,0,6-0.9,6-2S72.31,40,69,40z"/></g></g></g><g id="R-Yellow" display="none"><g display="inline"><circle cx="55" cy="55" r="55" fill="#FFD75E"/></g><g display="inline"><g><polygon fill="#FA0" points="59 34 27 46 27 71 51 83 83 71 83 46"/></g><g><polygon fill="#E07000" points="83 71 51 83 51 58 83 46"/></g><g><polygon fill="#FA9200" points="27 71 51 83 51 58 27 46"/></g><g><path fill="#E07000" d="M59,48v4c0,1.1-2.69,2-6,2s-6-0.9-6-2v-4c0,1.1,2.69,2,6,2S59,49.1,59,48z"/></g><g><path fill="#FFE9A1" d="M53,46c-3.31,0-6,0.9-6,2s2.69,2,6,2s6-0.9,6-2S56.31,46,53,46z"/></g><g><path fill="#E07000" d="M47,42v4c0,1.1-2.69,2-6,2s-6-0.9-6-2v-4c0,1.1,2.69,2,6,2S47,43.1,47,42z"/></g><g><path fill="#FFE9A1" d="M41,40c-3.31,0-6,0.9-6,2s2.69,2,6,2s6-0.9,6-2S44.31,40,41,40z"/></g><g><path fill="#E07000" d="M63,36v4c0,1.1-2.69,2-6,2s-6-0.9-6-2v-4c0,1.1,2.69,2,6,2S63,37.1,63,36z"/></g><g><path fill="#FFE9A1" d="M57,34c-3.31,0-6,0.9-6,2s2.69,2,6,2s6-0.9,6-2S60.31,34,57,34z"/></g><g><path fill="#E07000" d="M75,42v4c0,1.1-2.69,2-6,2s-6-0.9-6-2v-4c0,1.1,2.69,2,6,2S75,43.1,75,42z"/></g><g><path fill="#FFE9A1" d="M69,40c-3.31,0-6,0.9-6,2s2.69,2,6,2s6-0.9,6-2S72.31,40,69,40z"/></g></g></g></svg>