<svg xmlns="http://www.w3.org/2000/svg" xmlns:xlink="http://www.w3.org/1999/xlink" width="110" height="110" x="0" y="0" enable-background="new 0 0 110 110" version="1.0" viewBox="0 0 110 110" xml:space="preserve"><g id="Artboard" display="none"><rect width="1351" height="718" x="-49.5" y="-48.5" fill="gray" stroke="#000" stroke-miterlimit="10" display="inline"/></g><g id="R-Multicolor" display="none"><circle cx="55" cy="55" r="55" fill="#25B7D3" display="inline"/><g display="inline"><path fill="#E2E4E5" d="M87,87H23v-0.04c0-2.187,1.773-3.96,3.96-3.96h56.08c2.187,0,3.96,1.773,3.96,3.96V87z"/><rect width="56" height="36" x="27" y="47" fill="#FFF"/><path fill="#DF2C2C" d="M32.143,47c0,2.209-2.047,4-4.571,4S23,49.209,23,47H32.143z"/><path fill="#CFD3D4" d="M41.286,47c0,2.209-2.047,4-4.571,4s-4.571-1.791-4.571-4H41.286z"/><path fill="#DF2C2C" d="M50.429,47c0,2.209-2.047,4-4.571,4s-4.571-1.791-4.571-4H50.429z"/><path fill="#CFD3D4" d="M59.571,47c0,2.209-2.047,4-4.571,4s-4.571-1.791-4.571-4H59.571z"/><path fill="#CFD3D4" d="M77.857,47c0,2.209-2.047,4-4.571,4c-2.525,0-4.571-1.791-4.571-4H77.857z"/><path fill="#DF2C2C" d="M68.714,47c0,2.209-2.047,4-4.571,4c-2.525,0-4.571-1.791-4.571-4H68.714z"/><path fill="#DF2C2C" d="M87,47c0,2.209-2.047,4-4.571,4c-2.525,0-4.571-1.791-4.571-4H87z"/><polygon fill="#FA5655" points="23 47 32.143 47 40.143 27 32.143 27"/><polygon fill="#FFF" points="32.143 47 41.286 47 47 27 40.143 27"/><polygon fill="#FA5655" points="41.286 47 50.429 47 53.857 27 47 27"/><polygon fill="#FFF" points="50.429 47 59.571 47 59.571 27 53.857 27"/><polygon fill="#FA5655" points="87 47 77.857 47 72.143 27 79 27"/><polygon fill="#FFF" points="77.857 47 68.714 47 65.286 27 72.143 27"/><polygon fill="#FA5655" points="68.714 47 59.571 47 59.571 27 65.286 27"/><rect width="28" height="16" x="31" y="55" fill="#6FDAF1"/><polygon fill="#40C9E7" points="59 71 31 71 59 55"/><rect width="14" height="13" x="65" y="55" fill="#40C9E7"/><rect width="14" height="12" x="65" y="71" fill="#40C9E7"/><path fill="#0D9681" d="M57.978,76c0.26-3.258-3.405-5.625-7.407-5.625c-2.324,0-4.396,0.764-5.759,1.959 c-0.619-1.182-1.646-1.959-2.812-1.959c-1.093,0-2.055,0.692-2.683,1.75c-0.775-1.918-2.607-3.268-4.746-3.268 c-2.5,0-4.58,1.845-5.042,4.288c-0.358-0.31-0.784-0.493-1.243-0.493c-1.355,0-2.406,1.54-2.262,3.348H57.978z"/><rect width="32" height="7" x="26" y="76" fill="#9C6144"/><rect width="32" height="2" x="26" y="76" fill="#AF7653"/></g></g><g id="Multicolor_1_"><g><path fill="#E2E4E5" d="M87,87H23v-0.04c0-2.187,1.773-3.96,3.96-3.96h56.08c2.187,0,3.96,1.773,3.96,3.96V87z"/><rect width="56" height="36" x="27" y="47" fill="#FFF"/><path fill="#DF2C2C" d="M32.143,47c0,2.209-2.047,4-4.571,4S23,49.209,23,47H32.143z"/><path fill="#CFD3D4" d="M41.286,47c0,2.209-2.047,4-4.571,4s-4.571-1.791-4.571-4H41.286z"/><path fill="#DF2C2C" d="M50.429,47c0,2.209-2.047,4-4.571,4s-4.571-1.791-4.571-4H50.429z"/><path fill="#CFD3D4" d="M59.571,47c0,2.209-2.047,4-4.571,4s-4.571-1.791-4.571-4H59.571z"/><path fill="#CFD3D4" d="M77.857,47c0,2.209-2.047,4-4.571,4c-2.525,0-4.571-1.791-4.571-4H77.857z"/><path fill="#DF2C2C" d="M68.714,47c0,2.209-2.047,4-4.571,4c-2.525,0-4.571-1.791-4.571-4H68.714z"/><path fill="#DF2C2C" d="M87,47c0,2.209-2.047,4-4.571,4c-2.525,0-4.571-1.791-4.571-4H87z"/><polygon fill="#FA5655" points="23 47 32.143 47 40.143 27 32.143 27"/><polygon fill="#FFF" points="32.143 47 41.286 47 47 27 40.143 27"/><polygon fill="#FA5655" points="41.286 47 50.429 47 53.857 27 47 27"/><polygon fill="#FFF" points="50.429 47 59.571 47 59.571 27 53.857 27"/><polygon fill="#FA5655" points="87 47 77.857 47 72.143 27 79 27"/><polygon fill="#FFF" points="77.857 47 68.714 47 65.286 27 72.143 27"/><polygon fill="#FA5655" points="68.714 47 59.571 47 59.571 27 65.286 27"/><rect width="28" height="16" x="31" y="55" fill="#6FDAF1"/><polygon fill="#40C9E7" points="59 71 31 71 59 55"/><rect width="14" height="13" x="65" y="55" fill="#40C9E7"/><rect width="14" height="12" x="65" y="71" fill="#40C9E7"/><path fill="#0D9681" d="M57.978,76c0.26-3.258-3.405-5.625-7.407-5.625c-2.324,0-4.396,0.764-5.759,1.959 c-0.619-1.182-1.646-1.959-2.812-1.959c-1.093,0-2.055,0.692-2.683,1.75c-0.775-1.918-2.607-3.268-4.746-3.268 c-2.5,0-4.58,1.845-5.042,4.288c-0.358-0.31-0.784-0.493-1.243-0.493c-1.355,0-2.406,1.54-2.262,3.348H57.978z"/><rect width="32" height="7" x="26" y="76" fill="#9C6144"/><rect width="32" height="2" x="26" y="76" fill="#AF7653"/></g></g><g id="Blue" display="none"><g display="inline"><g><path fill="#BBE7F2" d="M87,87H23v-0.04c0-2.187,1.773-3.96,3.96-3.96h56.08c2.187,0,3.96,1.773,3.96,3.96V87z"/></g><g><rect width="56" height="36" x="27" y="47" fill="#FFF"/></g><g><path fill="#0081A1" d="M32.143,47c0,2.21-2.046,4-4.571,4C25.047,51,23,49.21,23,47H32.143z"/></g><g><path fill="#BBE7F2" d="M41.286,47c0,2.21-2.047,4-4.571,4c-2.525,0-4.572-1.79-4.572-4H41.286z"/></g><g><path fill="#0081A1" d="M50.429,47c0,2.21-2.047,4-4.571,4c-2.525,0-4.572-1.79-4.572-4H50.429z"/></g><g><path fill="#BBE7F2" d="M59.571,47c0,2.21-2.047,4-4.571,4c-2.524,0-4.571-1.79-4.571-4H59.571z"/></g><g><path fill="#BBE7F2" d="M77.857,47c0,2.21-2.047,4-4.572,4c-2.525,0-4.571-1.79-4.571-4H77.857z"/></g><g><path fill="#0081A1" d="M68.714,47c0,2.21-2.047,4-4.572,4c-2.524,0-4.571-1.79-4.571-4H68.714z"/></g><g><path fill="#0081A1" d="M87,47c0,2.21-2.047,4-4.571,4c-2.525,0-4.571-1.79-4.571-4H87z"/></g><g><polygon fill="#009FC7" points="23 47 32.143 47 40.143 27 32.143 27"/></g><g><polygon fill="#FFF" points="32.143 47 41.286 47 47 27 40.143 27"/></g><g><polygon fill="#009FC7" points="41.286 47 50.429 47 53.857 27 47 27"/></g><g><polygon fill="#FFF" points="50.429 47 59.571 47 59.571 27 53.857 27"/></g><g><polygon fill="#009FC7" points="87 47 77.857 47 72.143 27 79 27"/></g><g><polygon fill="#FFF" points="77.857 47 68.714 47 65.286 27 72.143 27"/></g><g><polygon fill="#009FC7" points="68.714 47 59.571 47 59.571 27 65.286 27"/></g><g><rect width="28" height="16" x="31" y="55" fill="#00B7E5"/></g><g><polygon fill="#009FC7" points="59 71 31 71 59 55"/></g><g><rect width="14" height="13" x="65" y="55" fill="#009FC7"/></g><g><rect width="14" height="12" x="65" y="71" fill="#009FC7"/></g><g><path fill="#33899E" d="M57.977,76c0.261-3.258-3.404-5.625-7.406-5.625c-2.324,0-4.396,0.765-5.759,1.959 c-0.619-1.182-1.646-1.959-2.812-1.959c-1.093,0-2.055,0.692-2.683,1.75c-0.775-1.918-2.607-3.267-4.746-3.267 c-2.5,0-4.58,1.845-5.042,4.287c-0.358-0.309-0.784-0.493-1.243-0.493c-1.355,0-2.406,1.54-2.262,3.348H57.977z"/></g><g><rect width="32" height="7" x="26" y="76" fill="#0F6175"/></g><g><rect width="32" height="2" x="26" y="76" fill="#53BAD4"/></g></g></g><g id="R-Blue" display="none"><g display="inline"><circle cx="55" cy="55" r="55" fill="#81D2EB"/></g><g display="inline"><g><path fill="#BBE7F2" d="M87,87H23v-0.04c0-2.187,1.773-3.96,3.96-3.96h56.08c2.187,0,3.96,1.773,3.96,3.96V87z"/></g><g><rect width="56" height="36" x="27" y="47" fill="#FFF"/></g><g><path fill="#0081A1" d="M32.143,47c0,2.21-2.046,4-4.571,4C25.047,51,23,49.21,23,47H32.143z"/></g><g><path fill="#BBE7F2" d="M41.286,47c0,2.21-2.047,4-4.571,4c-2.525,0-4.572-1.79-4.572-4H41.286z"/></g><g><path fill="#0081A1" d="M50.429,47c0,2.21-2.047,4-4.571,4c-2.525,0-4.572-1.79-4.572-4H50.429z"/></g><g><path fill="#BBE7F2" d="M59.571,47c0,2.21-2.047,4-4.571,4c-2.524,0-4.571-1.79-4.571-4H59.571z"/></g><g><path fill="#BBE7F2" d="M77.857,47c0,2.21-2.047,4-4.572,4c-2.525,0-4.571-1.79-4.571-4H77.857z"/></g><g><path fill="#0081A1" d="M68.714,47c0,2.21-2.047,4-4.572,4c-2.524,0-4.571-1.79-4.571-4H68.714z"/></g><g><path fill="#0081A1" d="M87,47c0,2.21-2.047,4-4.571,4c-2.525,0-4.571-1.79-4.571-4H87z"/></g><g><polygon fill="#009FC7" points="23 47 32.143 47 40.143 27 32.143 27"/></g><g><polygon fill="#FFF" points="32.143 47 41.286 47 47 27 40.143 27"/></g><g><polygon fill="#009FC7" points="41.286 47 50.429 47 53.857 27 47 27"/></g><g><polygon fill="#FFF" points="50.429 47 59.571 47 59.571 27 53.857 27"/></g><g><polygon fill="#009FC7" points="87 47 77.857 47 72.143 27 79 27"/></g><g><polygon fill="#FFF" points="77.857 47 68.714 47 65.286 27 72.143 27"/></g><g><polygon fill="#009FC7" points="68.714 47 59.571 47 59.571 27 65.286 27"/></g><g><rect width="28" height="16" x="31" y="55" fill="#00B7E5"/></g><g><polygon fill="#009FC7" points="59 71 31 71 59 55"/></g><g><rect width="14" height="13" x="65" y="55" fill="#009FC7"/></g><g><rect width="14" height="12" x="65" y="71" fill="#009FC7"/></g><g><path fill="#33899E" d="M57.977,76c0.261-3.258-3.404-5.625-7.406-5.625c-2.324,0-4.396,0.765-5.759,1.959 c-0.619-1.182-1.646-1.959-2.812-1.959c-1.093,0-2.055,0.692-2.683,1.75c-0.775-1.918-2.607-3.267-4.746-3.267 c-2.5,0-4.58,1.845-5.042,4.287c-0.358-0.309-0.784-0.493-1.243-0.493c-1.355,0-2.406,1.54-2.262,3.348H57.977z"/></g><g><rect width="32" height="7" x="26" y="76" fill="#0F6175"/></g><g><rect width="32" height="2" x="26" y="76" fill="#53BAD4"/></g></g></g><g id="Green" display="none"><g display="inline"><g><path fill="#AAF0E9" d="M87,87H23v-0.04c0-2.187,1.773-3.96,3.96-3.96h56.08c2.187,0,3.96,1.773,3.96,3.96V87z"/></g><g><rect width="56" height="36" x="27" y="47" fill="#FFF"/></g><g><path fill="#009687" d="M32.143,47c0,2.21-2.046,4-4.571,4C25.047,51,23,49.21,23,47H32.143z"/></g><g><path fill="#AAF0E9" d="M41.286,47c0,2.21-2.047,4-4.571,4c-2.525,0-4.572-1.79-4.572-4H41.286z"/></g><g><path fill="#009687" d="M50.429,47c0,2.21-2.047,4-4.571,4c-2.525,0-4.572-1.79-4.572-4H50.429z"/></g><g><path fill="#AAF0E9" d="M59.571,47c0,2.21-2.047,4-4.571,4s-4.571-1.79-4.571-4H59.571z"/></g><g><path fill="#AAF0E9" d="M77.857,47c0,2.21-2.047,4-4.572,4s-4.571-1.79-4.571-4H77.857z"/></g><g><path fill="#009687" d="M68.714,47c0,2.21-2.047,4-4.572,4c-2.524,0-4.571-1.79-4.571-4H68.714z"/></g><g><path fill="#009687" d="M87,47c0,2.21-2.047,4-4.571,4c-2.525,0-4.571-1.79-4.571-4H87z"/></g><g><polygon fill="#00B8A5" points="23 47 32.143 47 40.143 27 32.143 27"/></g><g><polygon fill="#FFF" points="32.143 47 41.286 47 47 27 40.143 27"/></g><g><polygon fill="#00B8A5" points="41.286 47 50.429 47 53.857 27 47 27"/></g><g><polygon fill="#FFF" points="50.429 47 59.571 47 59.571 27 53.857 27"/></g><g><polygon fill="#00B8A5" points="87 47 77.857 47 72.143 27 79 27"/></g><g><polygon fill="#FFF" points="77.857 47 68.714 47 65.286 27 72.143 27"/></g><g><polygon fill="#00B8A5" points="68.714 47 59.571 47 59.571 27 65.286 27"/></g><g><rect width="28" height="16" x="31" y="55" fill="#00D6C1"/></g><g><polygon fill="#00B8A5" points="59 71 31 71 59 55"/></g><g><rect width="14" height="13" x="65" y="55" fill="#00B8A5"/></g><g><rect width="14" height="12" x="65" y="71" fill="#00B8A5"/></g><g><path fill="#3E948B" d="M57.978,76c0.261-3.258-3.404-5.625-7.406-5.625c-2.324,0-4.396,0.765-5.759,1.959 c-0.619-1.182-1.646-1.959-2.812-1.959c-1.093,0-2.055,0.692-2.683,1.75c-0.775-1.918-2.607-3.267-4.746-3.267 c-2.5,0-4.58,1.845-5.043,4.287c-0.358-0.309-0.784-0.493-1.243-0.493c-1.355,0-2.406,1.54-2.262,3.348H57.978z"/></g><g><rect width="32" height="7" x="26" y="76" fill="#14635B"/></g><g><rect width="32" height="2" x="26" y="76" fill="#5DCFC3"/></g></g></g><g id="R-Green" display="none"><g display="inline"><circle cx="55" cy="55" r="55" fill="#87E0C8"/></g><g display="inline"><g><path fill="#AAF0E9" d="M87,87H23v-0.04c0-2.187,1.773-3.96,3.96-3.96h56.08c2.187,0,3.96,1.773,3.96,3.96V87z"/></g><g><rect width="56" height="36" x="27" y="47" fill="#FFF"/></g><g><path fill="#009687" d="M32.143,47c0,2.21-2.046,4-4.571,4C25.047,51,23,49.21,23,47H32.143z"/></g><g><path fill="#AAF0E9" d="M41.286,47c0,2.21-2.047,4-4.571,4c-2.525,0-4.572-1.79-4.572-4H41.286z"/></g><g><path fill="#009687" d="M50.429,47c0,2.21-2.047,4-4.571,4c-2.525,0-4.572-1.79-4.572-4H50.429z"/></g><g><path fill="#AAF0E9" d="M59.571,47c0,2.21-2.047,4-4.571,4c-2.524,0-4.571-1.79-4.571-4H59.571z"/></g><g><path fill="#AAF0E9" d="M77.857,47c0,2.21-2.047,4-4.572,4c-2.525,0-4.571-1.79-4.571-4H77.857z"/></g><g><path fill="#009687" d="M68.714,47c0,2.21-2.047,4-4.572,4c-2.524,0-4.571-1.79-4.571-4H68.714z"/></g><g><path fill="#009687" d="M87,47c0,2.21-2.047,4-4.571,4c-2.525,0-4.571-1.79-4.571-4H87z"/></g><g><polygon fill="#00B8A5" points="23 47 32.143 47 40.143 27 32.143 27"/></g><g><polygon fill="#FFF" points="32.143 47 41.286 47 47 27 40.143 27"/></g><g><polygon fill="#00B8A5" points="41.286 47 50.429 47 53.857 27 47 27"/></g><g><polygon fill="#FFF" points="50.429 47 59.571 47 59.571 27 53.857 27"/></g><g><polygon fill="#00B8A5" points="87 47 77.857 47 72.143 27 79 27"/></g><g><polygon fill="#FFF" points="77.857 47 68.714 47 65.286 27 72.143 27"/></g><g><polygon fill="#00B8A5" points="68.714 47 59.571 47 59.571 27 65.286 27"/></g><g><rect width="28" height="16" x="31" y="55" fill="#00D6C1"/></g><g><polygon fill="#00B8A5" points="59 71 31 71 59 55"/></g><g><rect width="14" height="13" x="65" y="55" fill="#00B8A5"/></g><g><rect width="14" height="12" x="65" y="71" fill="#00B8A5"/></g><g><path fill="#3E948B" d="M57.977,76c0.261-3.258-3.404-5.625-7.406-5.625c-2.324,0-4.396,0.765-5.759,1.959 c-0.619-1.182-1.646-1.959-2.812-1.959c-1.093,0-2.055,0.692-2.683,1.75c-0.775-1.918-2.607-3.267-4.746-3.267 c-2.5,0-4.58,1.845-5.042,4.287c-0.358-0.309-0.784-0.493-1.243-0.493c-1.355,0-2.406,1.54-2.262,3.348H57.977z"/></g><g><rect width="32" height="7" x="26" y="76" fill="#14635B"/></g><g><rect width="32" height="2" x="26" y="76" fill="#5DCFC3"/></g></g></g><g id="Red" display="none"><g display="inline"><g><path fill="#FFD7D4" d="M87,87H23v-0.04c0-2.187,1.773-3.96,3.96-3.96h56.08c2.187,0,3.96,1.773,3.96,3.96V87z"/></g><g><rect width="56" height="36" x="27" y="47" fill="#FFF"/></g><g><path fill="#C23023" d="M32.143,47c0,2.21-2.046,4-4.571,4C25.047,51,23,49.21,23,47H32.143z"/></g><g><path fill="#FFD7D4" d="M41.286,47c0,2.21-2.047,4-4.571,4c-2.525,0-4.572-1.79-4.572-4H41.286z"/></g><g><path fill="#C23023" d="M50.429,47c0,2.21-2.047,4-4.571,4c-2.525,0-4.572-1.79-4.572-4H50.429z"/></g><g><path fill="#FFD7D4" d="M59.571,47c0,2.21-2.047,4-4.571,4c-2.524,0-4.571-1.79-4.571-4H59.571z"/></g><g><path fill="#FFD7D4" d="M77.857,47c0,2.21-2.047,4-4.572,4c-2.525,0-4.571-1.79-4.571-4H77.857z"/></g><g><path fill="#C23023" d="M68.714,47c0,2.21-2.047,4-4.572,4c-2.524,0-4.571-1.79-4.571-4H68.714z"/></g><g><path fill="#C23023" d="M87,47c0,2.21-2.047,4-4.571,4c-2.525,0-4.571-1.79-4.571-4H87z"/></g><g><polygon fill="#E54B44" points="23 47 32.143 47 40.143 27 32.143 27"/></g><g><polygon fill="#FFF" points="32.143 47 41.286 47 47 27 40.143 27"/></g><g><polygon fill="#E54B44" points="41.286 47 50.429 47 53.857 27 47 27"/></g><g><polygon fill="#FFF" points="50.429 47 59.571 47 59.571 27 53.857 27"/></g><g><polygon fill="#E54B44" points="87 47 77.857 47 72.143 27 79 27"/></g><g><polygon fill="#FFF" points="77.857 47 68.714 47 65.286 27 72.143 27"/></g><g><polygon fill="#E54B44" points="68.714 47 59.571 47 59.571 27 65.286 27"/></g><g><rect width="28" height="16" x="31" y="55" fill="#FF6C5E"/></g><g><polygon fill="#E54B44" points="59 71 31 71 59 55"/></g><g><rect width="14" height="13" x="65" y="55" fill="#E54B44"/></g><g><rect width="14" height="12" x="65" y="71" fill="#E54B44"/></g><g><path fill="#B84E44" d="M57.978,76c0.261-3.258-3.404-5.625-7.406-5.625c-2.324,0-4.396,0.765-5.759,1.959 c-0.619-1.182-1.646-1.959-2.812-1.959c-1.093,0-2.055,0.692-2.683,1.75c-0.775-1.918-2.607-3.267-4.746-3.267 c-2.5,0-4.58,1.845-5.042,4.287c-0.358-0.309-0.784-0.493-1.243-0.493c-1.355,0-2.406,1.54-2.262,3.348H57.978z"/></g><g><rect width="32" height="7" x="26" y="76" fill="#7D261E"/></g><g><rect width="32" height="2" x="26" y="76" fill="#E8A099"/></g></g></g><g id="R-Red" display="none"><g display="inline"><circle cx="55" cy="55" r="55" fill="#FABBAF"/></g><g display="inline"><g><path fill="#FFD7D4" d="M87,87H23v-0.04c0-2.187,1.773-3.96,3.96-3.96h56.08c2.187,0,3.96,1.773,3.96,3.96V87z"/></g><g><rect width="56" height="36" x="27" y="47" fill="#FFF"/></g><g><path fill="#C23023" d="M32.143,47c0,2.21-2.046,4-4.571,4C25.047,51,23,49.21,23,47H32.143z"/></g><g><path fill="#FFD7D4" d="M41.286,47c0,2.21-2.047,4-4.571,4c-2.525,0-4.572-1.79-4.572-4H41.286z"/></g><g><path fill="#C23023" d="M50.429,47c0,2.21-2.047,4-4.571,4c-2.525,0-4.572-1.79-4.572-4H50.429z"/></g><g><path fill="#FFD7D4" d="M59.571,47c0,2.21-2.047,4-4.571,4c-2.524,0-4.571-1.79-4.571-4H59.571z"/></g><g><path fill="#FFD7D4" d="M77.857,47c0,2.21-2.047,4-4.572,4c-2.525,0-4.571-1.79-4.571-4H77.857z"/></g><g><path fill="#C23023" d="M68.714,47c0,2.21-2.047,4-4.572,4c-2.524,0-4.571-1.79-4.571-4H68.714z"/></g><g><path fill="#C23023" d="M87,47c0,2.21-2.047,4-4.571,4c-2.525,0-4.571-1.79-4.571-4H87z"/></g><g><polygon fill="#E54B44" points="23 47 32.143 47 40.143 27 32.143 27"/></g><g><polygon fill="#FFF" points="32.143 47 41.286 47 47 27 40.143 27"/></g><g><polygon fill="#E54B44" points="41.286 47 50.429 47 53.857 27 47 27"/></g><g><polygon fill="#FFF" points="50.429 47 59.571 47 59.571 27 53.857 27"/></g><g><polygon fill="#E54B44" points="87 47 77.857 47 72.143 27 79 27"/></g><g><polygon fill="#FFF" points="77.857 47 68.714 47 65.286 27 72.143 27"/></g><g><polygon fill="#E54B44" points="68.714 47 59.571 47 59.571 27 65.286 27"/></g><g><rect width="28" height="16" x="31" y="55" fill="#FF6C5E"/></g><g><polygon fill="#E54B44" points="59 71 31 71 59 55"/></g><g><rect width="14" height="13" x="65" y="55" fill="#E54B44"/></g><g><rect width="14" height="12" x="65" y="71" fill="#E54B44"/></g><g><path fill="#B84E44" d="M57.977,76c0.261-3.258-3.404-5.625-7.406-5.625c-2.324,0-4.396,0.765-5.759,1.959 c-0.619-1.182-1.646-1.959-2.812-1.959c-1.093,0-2.055,0.692-2.683,1.75c-0.775-1.918-2.607-3.267-4.746-3.267 c-2.5,0-4.58,1.845-5.042,4.287c-0.358-0.309-0.784-0.493-1.243-0.493c-1.355,0-2.406,1.54-2.262,3.348H57.977z"/></g><g><rect width="32" height="7" x="26" y="76" fill="#7D261E"/></g><g><rect width="32" height="2" x="26" y="76" fill="#E8A099"/></g></g></g><g id="Yellow" display="none"><g display="inline"><g><path fill="#FFE9A1" d="M87,87H23v-0.04c0-2.187,1.773-3.96,3.96-3.96h56.08c2.187,0,3.96,1.773,3.96,3.96V87z"/></g><g><rect width="56" height="36" x="27" y="47" fill="#FFF"/></g><g><path fill="#E07000" d="M32.143,47c0,2.21-2.046,4-4.571,4C25.047,51,23,49.21,23,47H32.143z"/></g><g><path fill="#FFE9A1" d="M41.286,47c0,2.21-2.047,4-4.571,4c-2.525,0-4.572-1.79-4.572-4H41.286z"/></g><g><path fill="#E07000" d="M50.429,47c0,2.21-2.047,4-4.571,4c-2.525,0-4.572-1.79-4.572-4H50.429z"/></g><g><path fill="#FFE9A1" d="M59.571,47c0,2.21-2.047,4-4.571,4c-2.524,0-4.571-1.79-4.571-4H59.571z"/></g><g><path fill="#FFE9A1" d="M77.857,47c0,2.21-2.047,4-4.572,4c-2.525,0-4.571-1.79-4.571-4H77.857z"/></g><g><path fill="#E07000" d="M68.714,47c0,2.21-2.047,4-4.572,4c-2.524,0-4.571-1.79-4.571-4H68.714z"/></g><g><path fill="#E07000" d="M87,47c0,2.21-2.047,4-4.571,4c-2.525,0-4.571-1.79-4.571-4H87z"/></g><g><polygon fill="#FA9200" points="23 47 32.143 47 40.143 27 32.143 27"/></g><g><polygon fill="#FFF" points="32.143 47 41.286 47 47 27 40.143 27"/></g><g><polygon fill="#FA9200" points="41.286 47 50.429 47 53.857 27 47 27"/></g><g><polygon fill="#FFF" points="50.429 47 59.571 47 59.571 27 53.857 27"/></g><g><polygon fill="#FA9200" points="87 47 77.857 47 72.143 27 79 27"/></g><g><polygon fill="#FFF" points="77.857 47 68.714 47 65.286 27 72.143 27"/></g><g><polygon fill="#FA9200" points="68.714 47 59.571 47 59.571 27 65.286 27"/></g><g><rect width="28" height="16" x="31" y="55" fill="#FA0"/></g><g><polygon fill="#FA9200" points="59 71 31 71 59 55"/></g><g><rect width="14" height="13" x="65" y="55" fill="#FA9200"/></g><g><rect width="14" height="12" x="65" y="71" fill="#FA9200"/></g><g><path fill="#947615" d="M57.977,76c0.261-3.258-3.404-5.625-7.406-5.625c-2.324,0-4.396,0.765-5.759,1.959 c-0.619-1.182-1.646-1.959-2.812-1.959c-1.093,0-2.055,0.692-2.683,1.75c-0.775-1.918-2.607-3.267-4.746-3.267 c-2.5,0-4.58,1.845-5.042,4.287c-0.358-0.309-0.784-0.493-1.243-0.493c-1.355,0-2.406,1.54-2.262,3.348H57.977z"/></g><g><rect width="32" height="7" x="26" y="76" fill="#66510D"/></g><g><rect width="32" height="2" x="26" y="76" fill="#F5C43D"/></g></g></g><g id="R-Yellow" display="none"><g display="inline"><circle cx="55" cy="55" r="55" fill="#FFD75E"/></g><g display="inline"><g><path fill="#FFE9A1" d="M87,87H23v-0.04c0-2.187,1.773-3.96,3.96-3.96h56.08c2.187,0,3.96,1.773,3.96,3.96V87z"/></g><g><rect width="56" height="36" x="27" y="47" fill="#FFF"/></g><g><path fill="#E07000" d="M32.143,47c0,2.21-2.046,4-4.571,4C25.047,51,23,49.21,23,47H32.143z"/></g><g><path fill="#FFE9A1" d="M41.286,47c0,2.21-2.047,4-4.571,4c-2.525,0-4.572-1.79-4.572-4H41.286z"/></g><g><path fill="#E07000" d="M50.429,47c0,2.21-2.047,4-4.571,4c-2.525,0-4.572-1.79-4.572-4H50.429z"/></g><g><path fill="#FFE9A1" d="M59.571,47c0,2.21-2.047,4-4.571,4c-2.524,0-4.571-1.79-4.571-4H59.571z"/></g><g><path fill="#FFE9A1" d="M77.857,47c0,2.21-2.047,4-4.572,4s-4.571-1.79-4.571-4H77.857z"/></g><g><path fill="#E07000" d="M68.714,47c0,2.21-2.047,4-4.572,4c-2.524,0-4.571-1.79-4.571-4H68.714z"/></g><g><path fill="#E07000" d="M87,47c0,2.21-2.047,4-4.571,4c-2.525,0-4.571-1.79-4.571-4H87z"/></g><g><polygon fill="#FA9200" points="23 47 32.143 47 40.143 27 32.143 27"/></g><g><polygon fill="#FFF" points="32.143 47 41.286 47 47 27 40.143 27"/></g><g><polygon fill="#FA9200" points="41.286 47 50.429 47 53.857 27 47 27"/></g><g><polygon fill="#FFF" points="50.429 47 59.571 47 59.571 27 53.857 27"/></g><g><polygon fill="#FA9200" points="87 47 77.857 47 72.143 27 79 27"/></g><g><polygon fill="#FFF" points="77.857 47 68.714 47 65.286 27 72.143 27"/></g><g><polygon fill="#FA9200" points="68.714 47 59.571 47 59.571 27 65.286 27"/></g><g><rect width="28" height="16" x="31" y="55" fill="#FA0"/></g><g><polygon fill="#FA9200" points="59 71 31 71 59 55"/></g><g><rect width="14" height="13" x="65" y="55" fill="#FA9200"/></g><g><rect width="14" height="12" x="65" y="71" fill="#FA9200"/></g><g><path fill="#947615" d="M57.978,76c0.261-3.258-3.404-5.625-7.406-5.625c-2.324,0-4.396,0.765-5.759,1.959 c-0.619-1.182-1.646-1.959-2.812-1.959c-1.093,0-2.055,0.692-2.683,1.75c-0.775-1.918-2.607-3.267-4.746-3.267 c-2.5,0-4.58,1.845-5.042,4.287c-0.358-0.309-0.784-0.493-1.243-0.493c-1.355,0-2.406,1.54-2.262,3.348H57.978z"/></g><g><rect width="32" height="7" x="26" y="76" fill="#66510D"/></g><g><rect width="32" height="2" x="26" y="76" fill="#F5C43D"/></g></g></g></svg>