<svg xmlns="http://www.w3.org/2000/svg" xmlns:xlink="http://www.w3.org/1999/xlink" width="110" height="110" x="0" y="0" enable-background="new 0 0 110 110" version="1.0" viewBox="0 0 110 110" xml:space="preserve"><g id="Artboard" display="none"><rect width="1366" height="606" x="-573.5" y="-46.5" fill="gray" stroke="#000" stroke-miterlimit="10" display="inline"/></g><g id="R-Multicolor" display="none"><circle cx="55" cy="55" r="55" fill="#32BEA6" display="inline"/><g display="inline"><rect width="20" height="37" x="63" y="43" fill="#FFF"/><rect width="20" height="37" x="27" y="43" fill="#FFF"/><rect width="28" height="7" x="23" y="80" fill="#F0F1F1"/><rect width="16" height="4" x="29" y="39" fill="#F0F1F1"/><rect width="12" height="6" x="31" y="33" fill="#E2E4E5"/><polygon fill="#F0F1F1" points="31 33 37 23 43 33"/><rect width="28" height="7" x="59" y="80" fill="#F0F1F1"/><rect width="16" height="4" x="65" y="39" fill="#F0F1F1"/><rect width="12" height="6" x="67" y="33" fill="#E2E4E5"/><polygon fill="#F0F1F1" points="67 33 73 23 79 33"/><path fill="#F0F1F1" d="M47,54v8h16v-8H47z M59,60h-8v-4h8V60z"/><rect width="14" height="2" x="30" y="48" fill="#40C9E7"/><rect width="14" height="2" x="30" y="53" fill="#40C9E7"/><rect width="14" height="2" x="30" y="58" fill="#40C9E7"/><rect width="14" height="2" x="30" y="63" fill="#40C9E7"/><rect width="14" height="2" x="30" y="68" fill="#40C9E7"/><rect width="14" height="2" x="30" y="73" fill="#40C9E7"/><rect width="14" height="2" x="66" y="48" fill="#40C9E7"/><rect width="14" height="2" x="66" y="53" fill="#40C9E7"/><rect width="14" height="2" x="66" y="58" fill="#40C9E7"/><rect width="14" height="2" x="66" y="63" fill="#40C9E7"/><rect width="14" height="2" x="66" y="68" fill="#40C9E7"/><rect width="14" height="2" x="66" y="73" fill="#40C9E7"/><polygon fill="#FFF" points="37 23 31 33 37 33"/><polygon fill="#FFF" points="73 23 67 33 73 33"/></g></g><g id="Multicolor_1_"><g><rect width="20" height="37" x="63" y="43" fill="#FFF"/><rect width="20" height="37" x="27" y="43" fill="#FFF"/><rect width="28" height="7" x="23" y="80" fill="#F0F1F1"/><rect width="16" height="4" x="29" y="39" fill="#F0F1F1"/><rect width="12" height="6" x="31" y="33" fill="#E2E4E5"/><polygon fill="#F0F1F1" points="31 33 37 23 43 33"/><rect width="28" height="7" x="59" y="80" fill="#F0F1F1"/><rect width="16" height="4" x="65" y="39" fill="#F0F1F1"/><rect width="12" height="6" x="67" y="33" fill="#E2E4E5"/><polygon fill="#F0F1F1" points="67 33 73 23 79 33"/><path fill="#F0F1F1" d="M47,54v8h16v-8H47z M59,60h-8v-4h8V60z"/><rect width="14" height="2" x="30" y="48" fill="#40C9E7"/><rect width="14" height="2" x="30" y="53" fill="#40C9E7"/><rect width="14" height="2" x="30" y="58" fill="#40C9E7"/><rect width="14" height="2" x="30" y="63" fill="#40C9E7"/><rect width="14" height="2" x="30" y="68" fill="#40C9E7"/><rect width="14" height="2" x="30" y="73" fill="#40C9E7"/><rect width="14" height="2" x="66" y="48" fill="#40C9E7"/><rect width="14" height="2" x="66" y="53" fill="#40C9E7"/><rect width="14" height="2" x="66" y="58" fill="#40C9E7"/><rect width="14" height="2" x="66" y="63" fill="#40C9E7"/><rect width="14" height="2" x="66" y="68" fill="#40C9E7"/><rect width="14" height="2" x="66" y="73" fill="#40C9E7"/><polygon fill="#FFF" points="37 23 31 33 37 33"/><polygon fill="#FFF" points="73 23 67 33 73 33"/></g></g><g id="Blue" display="none"><g display="inline"><g><rect width="20" height="37" x="63" y="43" fill="#FFF"/></g><g><rect width="20" height="37" x="27" y="43" fill="#FFF"/></g><g><rect width="28" height="7" x="23" y="80" fill="#0F6175"/></g><g><rect width="16" height="4" x="29" y="39" fill="#E1F5FA"/></g><g><rect width="12" height="6" x="31" y="33" fill="#BBE7F2"/></g><g><polygon fill="#0081A1" points="31 33 37 23 43 33"/></g><g><rect width="28" height="7" x="59" y="80" fill="#0F6175"/></g><g><rect width="16" height="4" x="65" y="39" fill="#E1F5FA"/></g><g><rect width="12" height="6" x="67" y="33" fill="#BBE7F2"/></g><g><polygon fill="#0081A1" points="67 33 73 23 79 33"/></g><g><path fill="#BBE7F2" d="M47,54v8h16v-8H47z M59,60h-8v-4h8V60z"/></g><g><g><rect width="14" height="2" x="30" y="48" fill="#81D2EB"/></g><g><rect width="14" height="2" x="30" y="53" fill="#81D2EB"/></g><g><rect width="14" height="2" x="30" y="58" fill="#81D2EB"/></g><g><rect width="14" height="2" x="30" y="63" fill="#81D2EB"/></g><g><rect width="14" height="2" x="30" y="68" fill="#81D2EB"/></g><g><rect width="14" height="2" x="30" y="73" fill="#81D2EB"/></g><g><rect width="14" height="2" x="66" y="48" fill="#81D2EB"/></g><g><rect width="14" height="2" x="66" y="53" fill="#81D2EB"/></g><g><rect width="14" height="2" x="66" y="58" fill="#81D2EB"/></g><g><rect width="14" height="2" x="66" y="63" fill="#81D2EB"/></g><g><rect width="14" height="2" x="66" y="68" fill="#81D2EB"/></g><g><rect width="14" height="2" x="66" y="73" fill="#81D2EB"/></g></g><g><polygon fill="#009FC7" points="37 23 31 33 37 33"/></g><g><polygon fill="#009FC7" points="73 23 67 33 73 33"/></g></g></g><g id="R-Blue" display="none"><g display="inline"><circle cx="55" cy="55" r="55" fill="#81D2EB"/></g><g display="inline"><g><rect width="20" height="37" x="63" y="43" fill="#FFF"/></g><g><rect width="20" height="37" x="27" y="43" fill="#FFF"/></g><g><rect width="28" height="7" x="23" y="80" fill="#0F6175"/></g><g><rect width="16" height="4" x="29" y="39" fill="#E1F5FA"/></g><g><rect width="12" height="6" x="31" y="33" fill="#BBE7F2"/></g><g><polygon fill="#0081A1" points="31 33 37 23 43 33"/></g><g><rect width="28" height="7" x="59" y="80" fill="#0F6175"/></g><g><rect width="16" height="4" x="65" y="39" fill="#E1F5FA"/></g><g><rect width="12" height="6" x="67" y="33" fill="#BBE7F2"/></g><g><polygon fill="#0081A1" points="67 33 73 23 79 33"/></g><g><path fill="#BBE7F2" d="M47,54v8h16v-8H47z M59,60h-8v-4h8V60z"/></g><g><g><rect width="14" height="2" x="30" y="48" fill="#81D2EB"/></g><g><rect width="14" height="2" x="30" y="53" fill="#81D2EB"/></g><g><rect width="14" height="2" x="30" y="58" fill="#81D2EB"/></g><g><rect width="14" height="2" x="30" y="63" fill="#81D2EB"/></g><g><rect width="14" height="2" x="30" y="68" fill="#81D2EB"/></g><g><rect width="14" height="2" x="30" y="73" fill="#81D2EB"/></g><g><rect width="14" height="2" x="66" y="48" fill="#81D2EB"/></g><g><rect width="14" height="2" x="66" y="53" fill="#81D2EB"/></g><g><rect width="14" height="2" x="66" y="58" fill="#81D2EB"/></g><g><rect width="14" height="2" x="66" y="63" fill="#81D2EB"/></g><g><rect width="14" height="2" x="66" y="68" fill="#81D2EB"/></g><g><rect width="14" height="2" x="66" y="73" fill="#81D2EB"/></g></g><g><polygon fill="#009FC7" points="37 23 31 33 37 33"/></g><g><polygon fill="#009FC7" points="73 23 67 33 73 33"/></g></g></g><g id="Green" display="none"><g display="inline"><g><rect width="20" height="37" x="63" y="43" fill="#FFF"/></g><g><rect width="20" height="37" x="27" y="43" fill="#FFF"/></g><g><rect width="28" height="7" x="23" y="80" fill="#14635B"/></g><g><rect width="16" height="4" x="29" y="39" fill="#D7FCF9"/></g><g><rect width="12" height="6" x="31" y="33" fill="#AAF0E9"/></g><g><polygon fill="#009687" points="31 33 37 23 43 33"/></g><g><rect width="28" height="7" x="59" y="80" fill="#14635B"/></g><g><rect width="16" height="4" x="65" y="39" fill="#D7FCF9"/></g><g><rect width="12" height="6" x="67" y="33" fill="#AAF0E9"/></g><g><polygon fill="#009687" points="67 33 73 23 79 33"/></g><g><path fill="#AAF0E9" d="M47,54v8h16v-8H47z M59,60h-8v-4h8V60z"/></g><g><g><rect width="14" height="2" x="30" y="48" fill="#87E0C8"/></g><g><rect width="14" height="2" x="30" y="53" fill="#87E0C8"/></g><g><rect width="14" height="2" x="30" y="58" fill="#87E0C8"/></g><g><rect width="14" height="2" x="30" y="63" fill="#87E0C8"/></g><g><rect width="14" height="2" x="30" y="68" fill="#87E0C8"/></g><g><rect width="14" height="2" x="30" y="73" fill="#87E0C8"/></g><g><rect width="14" height="2" x="66" y="48" fill="#87E0C8"/></g><g><rect width="14" height="2" x="66" y="53" fill="#87E0C8"/></g><g><rect width="14" height="2" x="66" y="58" fill="#87E0C8"/></g><g><rect width="14" height="2" x="66" y="63" fill="#87E0C8"/></g><g><rect width="14" height="2" x="66" y="68" fill="#87E0C8"/></g><g><rect width="14" height="2" x="66" y="73" fill="#87E0C8"/></g></g><g><polygon fill="#00B8A5" points="37 23 31 33 37 33"/></g><g><polygon fill="#00B8A5" points="73 23 67 33 73 33"/></g></g></g><g id="R-Green" display="none"><g display="inline"><circle cx="55" cy="55" r="55" fill="#87E0C8"/></g><g display="inline"><g><rect width="20" height="37" x="63" y="43" fill="#FFF"/></g><g><rect width="20" height="37" x="27" y="43" fill="#FFF"/></g><g><rect width="28" height="7" x="23" y="80" fill="#14635B"/></g><g><rect width="16" height="4" x="29" y="39" fill="#D7FCF9"/></g><g><rect width="12" height="6" x="31" y="33" fill="#AAF0E9"/></g><g><polygon fill="#009687" points="31 33 37 23 43 33"/></g><g><rect width="28" height="7" x="59" y="80" fill="#14635B"/></g><g><rect width="16" height="4" x="65" y="39" fill="#D7FCF9"/></g><g><rect width="12" height="6" x="67" y="33" fill="#AAF0E9"/></g><g><polygon fill="#009687" points="67 33 73 23 79 33"/></g><g><path fill="#AAF0E9" d="M47,54v8h16v-8H47z M59,60h-8v-4h8V60z"/></g><g><g><rect width="14" height="2" x="30" y="48" fill="#87E0C8"/></g><g><rect width="14" height="2" x="30" y="53" fill="#87E0C8"/></g><g><rect width="14" height="2" x="30" y="58" fill="#87E0C8"/></g><g><rect width="14" height="2" x="30" y="63" fill="#87E0C8"/></g><g><rect width="14" height="2" x="30" y="68" fill="#87E0C8"/></g><g><rect width="14" height="2" x="30" y="73" fill="#87E0C8"/></g><g><rect width="14" height="2" x="66" y="48" fill="#87E0C8"/></g><g><rect width="14" height="2" x="66" y="53" fill="#87E0C8"/></g><g><rect width="14" height="2" x="66" y="58" fill="#87E0C8"/></g><g><rect width="14" height="2" x="66" y="63" fill="#87E0C8"/></g><g><rect width="14" height="2" x="66" y="68" fill="#87E0C8"/></g><g><rect width="14" height="2" x="66" y="73" fill="#87E0C8"/></g></g><g><polygon fill="#00B8A5" points="37 23 31 33 37 33"/></g><g><polygon fill="#00B8A5" points="73 23 67 33 73 33"/></g></g></g><g id="Red" display="none"><g display="inline"><g><rect width="20" height="37" x="63" y="43" fill="#FFF"/></g><g><rect width="20" height="37" x="27" y="43" fill="#FFF"/></g><g><rect width="28" height="7" x="23" y="80" fill="#7D261E"/></g><g><rect width="16" height="4" x="29" y="39" fill="#FFEFED"/></g><g><rect width="12" height="6" x="31" y="33" fill="#FFD7D4"/></g><g><polygon fill="#C23023" points="31 33 37 23 43 33"/></g><g><rect width="28" height="7" x="59" y="80" fill="#7D261E"/></g><g><rect width="16" height="4" x="65" y="39" fill="#FFEFED"/></g><g><rect width="12" height="6" x="67" y="33" fill="#FFD7D4"/></g><g><polygon fill="#C23023" points="67 33 73 23 79 33"/></g><g><path fill="#FFD7D4" d="M47,54v8h16v-8H47z M59,60h-8v-4h8V60z"/></g><g><g><rect width="14" height="2" x="30" y="48" fill="#FABBAF"/></g><g><rect width="14" height="2" x="30" y="53" fill="#FABBAF"/></g><g><rect width="14" height="2" x="30" y="58" fill="#FABBAF"/></g><g><rect width="14" height="2" x="30" y="63" fill="#FABBAF"/></g><g><rect width="14" height="2" x="30" y="68" fill="#FABBAF"/></g><g><rect width="14" height="2" x="30" y="73" fill="#FABBAF"/></g><g><rect width="14" height="2" x="66" y="48" fill="#FABBAF"/></g><g><rect width="14" height="2" x="66" y="53" fill="#FABBAF"/></g><g><rect width="14" height="2" x="66" y="58" fill="#FABBAF"/></g><g><rect width="14" height="2" x="66" y="63" fill="#FABBAF"/></g><g><rect width="14" height="2" x="66" y="68" fill="#FABBAF"/></g><g><rect width="14" height="2" x="66" y="73" fill="#FABBAF"/></g></g><g><polygon fill="#E54B44" points="37 23 31 33 37 33"/></g><g><polygon fill="#E54B44" points="73 23 67 33 73 33"/></g></g></g><g id="R-Red" display="none"><g display="inline"><circle cx="55" cy="55" r="55" fill="#FABBAF"/></g><g display="inline"><g><rect width="20" height="37" x="63" y="43" fill="#FFF"/></g><g><rect width="20" height="37" x="27" y="43" fill="#FFF"/></g><g><rect width="28" height="7" x="23" y="80" fill="#7D261E"/></g><g><rect width="16" height="4" x="29" y="39" fill="#FFEFED"/></g><g><rect width="12" height="6" x="31" y="33" fill="#FFD7D4"/></g><g><polygon fill="#C23023" points="31 33 37 23 43 33"/></g><g><rect width="28" height="7" x="59" y="80" fill="#7D261E"/></g><g><rect width="16" height="4" x="65" y="39" fill="#FFEFED"/></g><g><rect width="12" height="6" x="67" y="33" fill="#FFD7D4"/></g><g><polygon fill="#C23023" points="67 33 73 23 79 33"/></g><g><path fill="#FFD7D4" d="M47,54v8h16v-8H47z M59,60h-8v-4h8V60z"/></g><g><g><rect width="14" height="2" x="30" y="48" fill="#FABBAF"/></g><g><rect width="14" height="2" x="30" y="53" fill="#FABBAF"/></g><g><rect width="14" height="2" x="30" y="58" fill="#FABBAF"/></g><g><rect width="14" height="2" x="30" y="63" fill="#FABBAF"/></g><g><rect width="14" height="2" x="30" y="68" fill="#FABBAF"/></g><g><rect width="14" height="2" x="30" y="73" fill="#FABBAF"/></g><g><rect width="14" height="2" x="66" y="48" fill="#FABBAF"/></g><g><rect width="14" height="2" x="66" y="53" fill="#FABBAF"/></g><g><rect width="14" height="2" x="66" y="58" fill="#FABBAF"/></g><g><rect width="14" height="2" x="66" y="63" fill="#FABBAF"/></g><g><rect width="14" height="2" x="66" y="68" fill="#FABBAF"/></g><g><rect width="14" height="2" x="66" y="73" fill="#FABBAF"/></g></g><g><polygon fill="#E54B44" points="37 23 31 33 37 33"/></g><g><polygon fill="#E54B44" points="73 23 67 33 73 33"/></g></g></g><g id="Yellow" display="none"><g display="inline"><g><rect width="20" height="37" x="63" y="43" fill="#FFF"/></g><g><rect width="20" height="37" x="27" y="43" fill="#FFF"/></g><g><rect width="28" height="7" x="23" y="80" fill="#66510D"/></g><g><rect width="16" height="4" x="29" y="39" fill="#FFF5D9"/></g><g><rect width="12" height="6" x="31" y="33" fill="#FFE9A1"/></g><g><polygon fill="#E07000" points="31 33 37 23 43 33"/></g><g><rect width="28" height="7" x="59" y="80" fill="#66510D"/></g><g><rect width="16" height="4" x="65" y="39" fill="#FFF5D9"/></g><g><rect width="12" height="6" x="67" y="33" fill="#FFE9A1"/></g><g><polygon fill="#E07000" points="67 33 73 23 79 33"/></g><g><path fill="#FFE9A1" d="M47,54v8h16v-8H47z M59,60h-8v-4h8V60z"/></g><g><g><rect width="14" height="2" x="30" y="48" fill="#FFD75E"/></g><g><rect width="14" height="2" x="30" y="53" fill="#FFD75E"/></g><g><rect width="14" height="2" x="30" y="58" fill="#FFD75E"/></g><g><rect width="14" height="2" x="30" y="63" fill="#FFD75E"/></g><g><rect width="14" height="2" x="30" y="68" fill="#FFD75E"/></g><g><rect width="14" height="2" x="30" y="73" fill="#FFD75E"/></g><g><rect width="14" height="2" x="66" y="48" fill="#FFD75E"/></g><g><rect width="14" height="2" x="66" y="53" fill="#FFD75E"/></g><g><rect width="14" height="2" x="66" y="58" fill="#FFD75E"/></g><g><rect width="14" height="2" x="66" y="63" fill="#FFD75E"/></g><g><rect width="14" height="2" x="66" y="68" fill="#FFD75E"/></g><g><rect width="14" height="2" x="66" y="73" fill="#FFD75E"/></g></g><g><polygon fill="#FA9200" points="37 23 31 33 37 33"/></g><g><polygon fill="#FA9200" points="73 23 67 33 73 33"/></g></g></g><g id="R-Yellow" display="none"><g display="inline"><circle cx="55" cy="55" r="55" fill="#FFD75E"/></g><g display="inline"><g><rect width="20" height="37" x="63" y="43" fill="#FFF"/></g><g><rect width="20" height="37" x="27" y="43" fill="#FFF"/></g><g><rect width="28" height="7" x="23" y="80" fill="#66510D"/></g><g><rect width="16" height="4" x="29" y="39" fill="#FFF5D9"/></g><g><rect width="12" height="6" x="31" y="33" fill="#FFE9A1"/></g><g><polygon fill="#E07000" points="31 33 37 23 43 33"/></g><g><rect width="28" height="7" x="59" y="80" fill="#66510D"/></g><g><rect width="16" height="4" x="65" y="39" fill="#FFF5D9"/></g><g><rect width="12" height="6" x="67" y="33" fill="#FFE9A1"/></g><g><polygon fill="#E07000" points="67 33 73 23 79 33"/></g><g><path fill="#FFE9A1" d="M47,54v8h16v-8H47z M59,60h-8v-4h8V60z"/></g><g><g><rect width="14" height="2" x="30" y="48" fill="#FFD75E"/></g><g><rect width="14" height="2" x="30" y="53" fill="#FFD75E"/></g><g><rect width="14" height="2" x="30" y="58" fill="#FFD75E"/></g><g><rect width="14" height="2" x="30" y="63" fill="#FFD75E"/></g><g><rect width="14" height="2" x="30" y="68" fill="#FFD75E"/></g><g><rect width="14" height="2" x="30" y="73" fill="#FFD75E"/></g><g><rect width="14" height="2" x="66" y="48" fill="#FFD75E"/></g><g><rect width="14" height="2" x="66" y="53" fill="#FFD75E"/></g><g><rect width="14" height="2" x="66" y="58" fill="#FFD75E"/></g><g><rect width="14" height="2" x="66" y="63" fill="#FFD75E"/></g><g><rect width="14" height="2" x="66" y="68" fill="#FFD75E"/></g><g><rect width="14" height="2" x="66" y="73" fill="#FFD75E"/></g></g><g><polygon fill="#FA9200" points="37 23 31 33 37 33"/></g><g><polygon fill="#FA9200" points="73 23 67 33 73 33"/></g></g></g></svg>